<?xml version="1.0" encoding="UTF-8"?><svg id="uuid-0be2496c-2a8e-459b-a403-88a3d8858a22" xmlns="http://www.w3.org/2000/svg" viewBox="0 0 543.33 259.74"><defs><style>.uuid-2bc0d302-ff53-4f4a-8f22-312e410d79b5{fill:#8ac397;}</style></defs><path class="uuid-2bc0d302-ff53-4f4a-8f22-312e410d79b5" d="M40.47,187.21c-1.09-1.56-2.08-2.67-2.96-3.33-.88-.65-1.83-1.12-2.84-1.41-1.02-.28-2.08-.42-3.19-.42-1.64,0-3.16.37-4.57,1.1s-2.62,1.73-3.65,2.99-1.83,2.72-2.42,4.39-.88,3.44-.88,5.32.29,3.68.86,5.35c.58,1.67,1.37,3.13,2.39,4.38,1.02,1.25,2.23,2.24,3.63,2.97s2.95,1.1,4.63,1.1c1.17,0,2.27-.19,3.28-.57,1.02-.38,1.94-.88,2.77-1.51.83-.62,1.56-1.34,2.18-2.15.62-.81,1.11-1.66,1.46-2.53l9.43,2.64c-.61,1.91-1.49,3.69-2.67,5.32s-2.58,3.04-4.23,4.23c-1.65,1.19-3.51,2.13-5.57,2.81-2.06.68-4.28,1.03-6.67,1.03-2.01,0-3.94-.27-5.77-.82-1.84-.55-3.55-1.32-5.14-2.31-1.59-1-3.04-2.2-4.34-3.6-1.3-1.41-2.41-2.96-3.33-4.67-.92-1.71-1.63-3.54-2.14-5.51-.51-1.96-.76-4.01-.76-6.14,0-3.18.56-6.17,1.67-8.95s2.64-5.21,4.57-7.29,4.2-3.72,6.81-4.92,5.42-1.8,8.42-1.8c2.4,0,4.42.3,6.06.89,1.64.6,3.45,1.77,5.42,3.53h6.56v9.9h-9.05Z"/><path class="uuid-2bc0d302-ff53-4f4a-8f22-312e410d79b5" d="M54.97,173.71h19.01v8.06h-3.72l5.95,10.2,6.3-10.2h-4.25v-8.06h19.01v8.06h-3.28l-13.21,17.93v10.4h5.39v8.03h-19.8v-8.03h4.92v-10.52l-12.42-17.81h-3.9v-8.06Z"/><path class="uuid-2bc0d302-ff53-4f4a-8f22-312e410d79b5" d="M131,187.21c-1.09-1.56-2.08-2.67-2.96-3.33-.88-.65-1.83-1.12-2.84-1.41-1.02-.28-2.08-.42-3.19-.42-1.64,0-3.16.37-4.57,1.1s-2.62,1.73-3.65,2.99-1.83,2.72-2.42,4.39-.88,3.44-.88,5.32.29,3.68.86,5.35c.58,1.67,1.37,3.13,2.39,4.38,1.02,1.25,2.23,2.24,3.63,2.97s2.95,1.1,4.63,1.1c1.17,0,2.27-.19,3.28-.57,1.02-.38,1.94-.88,2.77-1.51.83-.62,1.56-1.34,2.18-2.15.62-.81,1.11-1.66,1.46-2.53l9.43,2.64c-.61,1.91-1.49,3.69-2.67,5.32s-2.58,3.04-4.23,4.23c-1.65,1.19-3.51,2.13-5.57,2.81-2.06.68-4.28,1.03-6.67,1.03-2.01,0-3.94-.27-5.77-.82-1.84-.55-3.55-1.32-5.14-2.31-1.59-1-3.04-2.2-4.34-3.6-1.3-1.41-2.41-2.96-3.33-4.67-.92-1.71-1.63-3.54-2.14-5.51-.51-1.96-.76-4.01-.76-6.14,0-3.18.56-6.17,1.67-8.95s2.64-5.21,4.57-7.29,4.2-3.72,6.81-4.92,5.42-1.8,8.42-1.8c2.4,0,4.42.3,6.06.89,1.64.6,3.45,1.77,5.42,3.53h6.56v9.9h-9.05Z"/><path class="uuid-2bc0d302-ff53-4f4a-8f22-312e410d79b5" d="M147.43,173.71h19.01v8.06h-4.69v28.33h9.67c.25,0,.5-.07.75-.22.24-.15.46-.34.64-.57.19-.23.34-.49.45-.76s.18-.54.18-.79v-5.95h9.49v16.32h-35.51v-8.03h4.6v-28.33h-4.6v-8.06Z"/><path class="uuid-2bc0d302-ff53-4f4a-8f22-312e410d79b5" d="M186.87,173.71h35.33v15.15h-9.55v-6.3h-11.4v8.76h8.82v8.5h-8.82v10.28h11.4v-7.88h9.55v15.91h-35.33v-8.03h4.66v-27.54h-4.66v-8.85Z"/><path class="uuid-2bc0d302-ff53-4f4a-8f22-312e410d79b5" d="M239.31,173.71h34.37v15.15h-9.52v-6.24h-10.52v9.35h9.11v8.53h-9.11v9.61h4.69v8.03h-19.01v-8.03h4.6v-27.48h-4.6v-8.91Z"/><path class="uuid-2bc0d302-ff53-4f4a-8f22-312e410d79b5" d="M297.08,218.91c-2.01,0-3.94-.27-5.77-.82-1.84-.55-3.55-1.32-5.14-2.31s-3.04-2.19-4.34-3.59-2.41-2.95-3.33-4.66-1.63-3.54-2.14-5.49-.76-3.99-.76-6.12.25-4.17.76-6.14,1.22-3.8,2.14-5.51c.92-1.71,2.03-3.26,3.33-4.66,1.3-1.4,2.74-2.59,4.34-3.59s3.31-1.77,5.14-2.31c1.84-.55,3.76-.82,5.77-.82s3.94.27,5.79.82c1.85.55,3.56,1.32,5.16,2.31s3.04,2.19,4.34,3.59c1.3,1.4,2.41,2.95,3.34,4.66.93,1.71,1.65,3.54,2.15,5.51s.76,4.01.76,6.14-.25,4.15-.76,6.11-1.23,3.8-2.15,5.51-2.04,3.26-3.34,4.66-2.74,2.59-4.34,3.59-3.31,1.77-5.16,2.31c-1.85.55-3.77.82-5.79.82ZM297.08,209.71c1.7,0,3.26-.37,4.67-1.1,1.42-.73,2.63-1.73,3.65-2.99s1.8-2.72,2.36-4.39.83-3.44.83-5.32-.28-3.68-.85-5.36c-.57-1.68-1.36-3.15-2.39-4.41s-2.24-2.26-3.65-2.99c-1.41-.73-2.95-1.1-4.63-1.1s-3.22.37-4.63,1.1-2.62,1.73-3.63,2.99-1.81,2.73-2.39,4.41c-.58,1.68-.86,3.47-.86,5.36s.29,3.65.86,5.32,1.37,3.13,2.39,4.39,2.23,2.26,3.63,2.99,2.95,1.1,4.63,1.1Z"/><path class="uuid-2bc0d302-ff53-4f4a-8f22-312e410d79b5" d="M324.44,173.71h23.5c2.29,0,4.33.34,6.12,1.03,1.8.68,3.31,1.6,4.54,2.74s2.17,2.47,2.83,3.98c.65,1.51.98,3.09.98,4.73,0,1.5-.16,2.82-.48,3.96-.32,1.13-.79,2.14-1.41,3.02s-1.37,1.66-2.27,2.33-1.92,1.28-3.08,1.83c1,.51,1.88,1.28,2.64,2.33s1.34,2.4,1.73,4.06l1.49,5.77h3.66l.06,8.64h-12.89l-1.76-10.55c-.18-1.25-.44-2.33-.81-3.24s-.84-1.65-1.45-2.23-1.34-1-2.21-1.27-1.9-.41-3.09-.41h-3.78v9.67h4.07v8.03h-18.4v-8.03h4.6v-28.33h-4.6v-8.06ZM338.77,181.76v10.75h5.83c1.11,0,2.11-.1,3-.31s1.65-.53,2.29-.97,1.12-.99,1.46-1.66c.34-.66.51-1.45.51-2.37,0-1.72-.62-3.06-1.85-4.01-1.23-.96-3.04-1.44-5.42-1.44h-5.83Z"/><path class="uuid-2bc0d302-ff53-4f4a-8f22-312e410d79b5" d="M401.47,218.12v-7.62c-1.21,2.13-2.39,3.69-3.54,4.69s-2.46,1.8-3.91,2.4c-1.46.6-3.4.9-5.84.88-1.21-.02-2.42-.16-3.63-.42s-2.38-.63-3.52-1.11-2.24-1.05-3.33-1.73-2.07-1.45-2.94-2.33c-2.17-2.19-3.85-4.72-5.05-7.6s-1.8-6.02-1.8-9.42c0-2.09.25-4.11.76-6.06.51-1.95,1.22-3.78,2.14-5.48s2.03-3.25,3.33-4.64c1.3-1.4,2.74-2.59,4.34-3.59s3.31-1.77,5.14-2.31c1.84-.55,3.76-.82,5.77-.82,2.3,0,4.31.31,6.01.92s3.53,1.76,5.48,3.44h6.56v9.9h-9.05c-.9-1.39-1.74-2.39-2.53-3.02-.79-.62-1.65-1.14-2.58-1.55s-2.22-.62-3.88-.62-3.16.37-4.57,1.11c-1.41.74-2.62,1.74-3.65,3s-1.83,2.74-2.42,4.45c-.59,1.71-.88,3.46-.88,5.26s.26,3.47.79,5.07,1.33,3.04,2.4,4.32,2.32,2.26,3.75,2.94,2.95,1.03,4.57,1.03c2.07,0,3.88-.61,5.42-1.82s2.66-2.86,3.34-4.95h-8.47v-8.03h20.57v23.7h-8.76Z"/><path class="uuid-2bc0d302-ff53-4f4a-8f22-312e410d79b5" d="M417.2,173.71h19.01v8.03h-4.69v28.36h4.69v8.03h-19.01v-8.03h4.6v-28.36h-4.6v-8.03Z"/><path class="uuid-2bc0d302-ff53-4f4a-8f22-312e410d79b5" d="M461.03,218.91c-2.01,0-3.94-.27-5.77-.82-1.84-.55-3.55-1.32-5.14-2.31s-3.04-2.19-4.34-3.59-2.41-2.95-3.33-4.66-1.63-3.54-2.14-5.49-.76-3.99-.76-6.12.25-4.17.76-6.14,1.22-3.8,2.14-5.51c.92-1.71,2.03-3.26,3.33-4.66,1.3-1.4,2.74-2.59,4.34-3.59s3.31-1.77,5.14-2.31c1.84-.55,3.76-.82,5.77-.82s3.94.27,5.79.82c1.85.55,3.56,1.32,5.16,2.31s3.04,2.19,4.34,3.59c1.3,1.4,2.41,2.95,3.34,4.66.93,1.71,1.65,3.54,2.15,5.51s.76,4.01.76,6.14-.25,4.15-.76,6.11-1.23,3.8-2.15,5.51-2.04,3.26-3.34,4.66-2.74,2.59-4.34,3.59-3.31,1.77-5.16,2.31c-1.85.55-3.77.82-5.79.82ZM461.03,209.71c1.7,0,3.26-.37,4.67-1.1s2.63-1.73,3.65-2.99,1.8-2.72,2.36-4.39.83-3.44.83-5.32-.28-3.68-.85-5.36c-.57-1.68-1.36-3.15-2.39-4.41s-2.24-2.26-3.65-2.99-2.95-1.1-4.63-1.1-3.22.37-4.63,1.1-2.62,1.73-3.63,2.99-1.81,2.73-2.39,4.41c-.58,1.68-.86,3.47-.86,5.36s.29,3.65.86,5.32,1.37,3.13,2.39,4.39,2.23,2.26,3.63,2.99,2.95,1.1,4.63,1.1Z"/><path class="uuid-2bc0d302-ff53-4f4a-8f22-312e410d79b5" d="M516.46,173.71h16.88v8.06h-3.6v36.36h-9.73l-18.49-28.71v20.68h3.72v8.03h-16.85v-8.03h3.66v-28.33h-3.6v-8.06h13.42l18.37,29.09v-21.04h-3.78v-8.06Z"/><path class="uuid-2bc0d302-ff53-4f4a-8f22-312e410d79b5" d="M207.74,152.15c-16.66-.04-33.31-.08-49.97-.11-.71,0-1.72.33-1.12,1.14s2.26,1.01,3.17,1.01c16.66.04,33.31.08,49.97.11.71,0,1.72-.33,1.12-1.14s-2.26-1.01-3.17-1.01h0Z"/><path class="uuid-2bc0d302-ff53-4f4a-8f22-312e410d79b5" d="M324.47,56.73c2.55-2.08,5.06-4.2,7.77-6.07.12-.09.25-.17.37-.25.52,2.66,1.15,5.3,1.79,7.94,1.82,7.4,4.13,14.66,6.77,21.8,2.67,7.22,5.89,14.24,9.8,20.88,2.08,3.52,4.32,6.97,6.84,10.19,1.14,1.46,2.36,2.86,3.63,4.22.38.4.75.8,1.14,1.19.88.89,1.75,1.89,2.86,2.47-.16-.08-1.23-2.28-1.6-2.82-1.24-1.77-2.59-3.46-3.81-5.24-5.68-8.34-9.78-17.42-13.44-26.8-2.87-7.35-5.44-14.84-7.57-22.44-1-3.57-1.92-7.17-2.79-10.78-.22-.9-.43-1.8-.64-2.7-.06-.27-.12-.53-.18-.8-.14-.62-.28-1.23-.42-1.85-.08-.34-.15-.69-.22-1.03-.36-1.69-.7-3.38-.99-5.08-.52-2.95-.97-5.92-1.26-8.9,3.73-.28,7.46-.58,11.19-.87,2.96-.24,5.92-.49,8.88-.75,1.4-.12,2.8-.26,4.2-.4.32,1.65.46,3.34.34,5.01-.16,1.68-.64,3.3-1.23,4.88-.85,2.34-2.18,4.47-3.66,6.46-.84,1.17-1.63,2.41-2.76,3.33-.78.57,2.54,3.88,3.2,4.03.16.04.23.06.33-.1.3-.42.45-.93.78-1.33,2.69-3.32,4.88-7.12,5.35-11.43.62-3.66.03-7.44-1.16-10.96,0-.02-.01-.03-.02-.04-.12-.34-.24-.67-.36-1.01-.04-.1-.08-.21-.12-.31-.13-.34-.27-.69-.41-1.02-.05-.09-.09-.18-.14-.27-.24.02-.47.05-.7.08-.04,0-.08,0-.13.01-2.92.33-5.84.68-8.75,1.04-2.89.36-5.78.73-8.66,1.12-2.1.29-4.21.56-6.32.83-.64.08-1.27.17-1.91.25,0,.54,0,1.08.02,1.61.04,1.98.15,3.96.3,5.92-3.21-.17-6.43-.21-9.64-.07-7.28.31-14.53,1.35-21.65,2.85-7.29,1.54-14.48,3.52-21.51,6.02-6.96,2.47-13.68,5.55-20.15,9.11-1.67.92-3.33,1.87-4.97,2.84-2.57-5.88-5.16-11.75-7.77-17.61-1.5-3.37-2.98-6.75-4.43-10.14-1.22-2.84-2.45-5.67-3.65-8.51.15.03.3.06.45.09,4.02.52,8.35.6,12.02-1.37.83-.42,1.6-.98,2.06-1.81.64-1.05.91-2.36,1.14-3.55.2-1.19.4-2.41.26-3.61-.06-.36-.22-.86-.64-.94-.75-.08-1.49.17-2.22.29-2.51.48-5.08.51-7.6.98-1.9.32-3.76.82-5.61,1.31-1.9.47-3.75,1.13-5.67,1.5-2.04.38-4.17.49-6.25.44-1.08-.04-2.3-.08-3.28-.59,0-.11-.03-.19-.15-.16-.16,0-.19.1-.24.24-.6,1.36.08,2.31,1.22,3.05,1.22.87,2.63,1.4,4.06,1.82,3.09.86,6.24,1.49,9.38,2.1.86,2.2,1.72,4.39,2.59,6.59,2.51,6.36,4.9,12.76,7.35,19.14,1.55,4.05,3.12,8.09,4.69,12.12-.68.42-1.36.84-2.03,1.26-3.07,1.94-6.08,3.99-9.07,6.06-5.84,4.05-11.41,8.51-16.46,13.51-2.59,2.56-4.96,5.32-7.29,8.11-2.34,2.81-4.48,5.77-6.53,8.79-3.32,4.9-6.55,10.13-9.19,15.44-.69,1.4.38,3.99,1.46,1.83.13-.27.27-.53.4-.8.29-.54.58-1.07.88-1.6.67-1.18,1.39-2.35,2.14-3.48,1.97-2.98,4.18-5.81,6.53-8.5,2.35-2.69,4.87-5.24,7.43-7.72,2.55-2.47,5.22-4.83,7.91-7.14,2.75-2.35,5.49-4.71,8.3-6.98,2.72-2.2,5.5-4.33,8.33-6.39,2.96-2.15,6.03-4.14,9.16-6.04.14-.08.28-.16.41-.24.2.51.39,1.01.59,1.52,2.7,6.92,5.52,13.8,8.32,20.69,2.82,6.92,5.76,13.8,8.61,20.72,1.37,3.32,2.74,6.65,4.1,9.97,0,.01,0,.02.01.03.31-.67.64-1.33.96-1.99,1.67-3.36,3.52-6.63,5.49-9.82,3.95-6.4,8.47-12.42,13.09-18.34,4.49-5.75,9.32-11.25,14.43-16.47,5.02-5.13,10.35-9.99,15.91-14.53ZM288.76,88.6c-2.2,3.13-4.25,6.36-6.24,9.63-1.91,3.13-3.71,6.32-5.4,9.58-.68,1.3-1.33,2.62-1.96,3.96-1.26-3.22-2.51-6.43-3.76-9.65-2.71-6.97-5.47-13.92-8.33-20.83-1.44-3.48-2.91-6.94-4.37-10.41-1.05-2.47-2.13-4.93-3.21-7.39,5.34-3.08,10.83-5.89,16.43-8.48,6.7-3.11,13.52-5.98,20.51-8.36,6.72-2.28,13.62-4.05,20.63-5.14,5.95-.92,12-1.44,18.03-1.36.18,1.69.39,3.39.64,5.07-.71.42-1.41.87-2.1,1.32-1.34.87-2.66,1.79-3.97,2.7-1.38.96-2.74,1.97-4.06,3.02-1.37,1.09-2.69,2.26-4,3.43-5.31,4.76-10.21,9.93-14.9,15.3-4.93,5.64-9.62,11.49-13.93,17.62Z"/><path class="uuid-2bc0d302-ff53-4f4a-8f22-312e410d79b5" d="M254.92,135.78c.08-.29-.12-.64-.23-.81-.25-.4-.36-.54-.47-.71-.28-.42-.3-.4-.62-.78-.65-.78-1.38-1.56-2.22-2.13-.28-.19-.67-.54-.92-.11-.32.56-.48,1.1-.93,1.61-1.53,1.72-3.17,3.38-4.85,4.96-2.52,2.38-5.25,4.53-8.25,6.3-6.6,3.91-14.16,6.3-21.82,6.76-4.26.26-8.52-.03-12.71-.83-4.22-.81-8.29-2.22-12.17-4.04-1.93-.9-3.79-1.98-5.56-3.16-1.8-1.2-3.54-2.5-5.16-3.95-1.74-1.57-3.37-3.26-4.83-5.09-1.42-1.8-2.7-3.7-3.84-5.68-2.17-3.77-3.82-7.85-4.93-12.05-1.19-4.48-1.72-9.09-1.67-13.72.09-8.55,2.37-17.19,6.67-24.6,2.13-3.67,4.68-7.05,7.64-10.1,2.94-3.02,6.27-5.72,9.87-7.91,3.37-2.05,6.98-3.75,10.76-4.91,3.56-1.09,7.2-1.86,10.91-2.21,1.76-.16,3.52-.23,5.28-.2.39,0,.79.02,1.18.03.12,0,.25,0,.37.02.05,0,.28.07.32.02.12-.13-.24-.54-.3-.62-.21-.26-.44-.52-.7-.73-.15-.12-.26-.17-.45-.17-.12,0-.25-.01-.37-.02-3.48-.18-6.99-.06-10.44.47-7.82,1.2-15.36,4.26-21.83,8.81-3.55,2.5-6.72,5.46-9.52,8.78-2.69,3.18-4.92,6.73-6.76,10.46-.89,1.81-1.67,3.7-2.32,5.61-.68,2-1.27,4.04-1.7,6.11-.88,4.28-1.21,8.65-.96,13.01.52,8.79,3.37,17.49,8.23,24.84,5.09,7.69,11.86,14.33,19.94,18.84,3.8,2.12,7.84,3.78,12.04,4.89,4.03,1.06,8.24,1.68,12.41,1.69.09,0,.18,0,.27,0,2.09,0,4.19-.11,6.27-.35,3.85-.45,7.66-1.29,11.33-2.55,3.47-1.2,6.78-2.8,9.92-4.69,3.01-1.81,5.92-3.85,8.48-6.27.75-.71,1.51-1.41,2.2-2.18"/><path class="uuid-2bc0d302-ff53-4f4a-8f22-312e410d79b5" d="M404.87,95.99c-.57-3.98-1.62-7.91-3.13-11.65-2.75-6.84-7.07-12.93-12.16-18.22-.67-.69-1.33-1.4-2.09-1.98-.17-.13-.94-.69-.83-.09.05.26.22.52.35.74.21.36.47.7.73,1.02.45.55.93,1.07,1.41,1.59.32.34.63.69.94,1.04.37.42.7.87,1.04,1.31.97,1.28,1.89,2.58,2.73,3.95.92,1.5,1.77,3.05,2.52,4.64.83,1.75,1.57,3.54,2.22,5.37.73,2.08,1.31,4.22,1.76,6.37.9,4.29,1.26,8.67,1.14,13.05-.12,4.14-.88,8.3-2.13,12.24-.64,2.03-1.38,4.03-2.29,5.95-.88,1.87-1.82,3.73-2.93,5.47-1.14,1.8-2.36,3.54-3.69,5.21-1.3,1.63-2.72,3.14-4.2,4.6-1.47,1.45-3.07,2.77-4.71,4.02-1.61,1.23-3.32,2.37-5.09,3.37-1.85,1.05-3.73,2.01-5.67,2.85-1.97.86-4,1.56-6.05,2.18-3.94,1.19-8.06,1.86-12.17,2.07-8.45.42-17.02-1.41-24.53-5.31-3.82-1.99-7.37-4.46-10.53-7.39-2.87-2.66-5.35-5.71-7.42-9.03-3.61-5.79-5.93-12.35-7.17-19.04-.28-1.49-.47-2.99-.67-4.49-.03-.23-.06-.46-.1-.69-.02-.11-.05-.22-.06-.34-.01-.14,0-.28-.06-.41-.06-.12-.67-.95-.81-.78-.04.04,0,.35,0,.42-.01.12-.03.23-.03.35-.05,1.26.08,2.54.21,3.8.15,1.53.39,3.06.73,4.57.73,3.28,1.78,6.45,3.18,9.51,1.53,3.35,3.43,6.53,5.6,9.5,4.96,6.79,11.44,12.45,18.85,16.42,3.83,2.05,7.91,3.57,12.11,4.65,2.18.56,4.41.96,6.64,1.23,1.96.24,3.95.38,5.93.39.1,0,.21,0,.31,0,2.09-.04,4.17-.11,6.25-.36,2.12-.25,4.22-.67,6.29-1.19,1.89-.47,3.76-1.08,5.57-1.8,1.92-.76,3.81-1.61,5.62-2.61,7.29-4.02,13.6-9.76,18.19-16.73,2.28-3.46,4.16-7.2,5.53-11.12,1.38-3.93,2.3-8,2.78-12.14.48-4.15.48-8.36-.11-12.5Z"/><path class="uuid-2bc0d302-ff53-4f4a-8f22-312e410d79b5" d="M157.29,87.71c-11.97-.03-23.95-.05-35.92-.08-.68,0-1.65.31-1.08,1.1s2.17.97,3.05.97c11.97.03,23.95.05,35.92.08.68,0,1.65-.31,1.08-1.1s-2.17-.97-3.05-.97h0Z"/><path class="uuid-2bc0d302-ff53-4f4a-8f22-312e410d79b5" d="M140.81,97.1c-10.52-.02-21.04-.05-31.56-.07-.68,0-1.65.31-1.08,1.1s2.17.97,3.05.97c10.52.02,21.04.05,31.56.07.68,0,1.65-.31,1.08-1.1s-2.17-.97-3.05-.97h0Z"/><path class="uuid-2bc0d302-ff53-4f4a-8f22-312e410d79b5" d="M152.91,106.58l-27.87-.06c-.66,0-1.6.3-1.04,1.06s2.11.94,2.96.94c9.29.02,18.58.04,27.87.06.66,0,1.6-.3,1.04-1.06s-2.11-.94-2.96-.94h0Z"/><path class="uuid-2bc0d302-ff53-4f4a-8f22-312e410d79b5" d="M154.98,76.54c-2.02,0-4.03,0-6.05-.01-.32,0-.92.07-1.16.34-.22.24-.13.54.08.76.74.75,2.05.97,3.05.97,2.02,0,4.03,0,6.05.01.32,0,.92-.07,1.16-.34.22-.24.13-.54-.08-.76-.74-.75-2.05-.97-3.05-.97h0Z"/><path class="uuid-2bc0d302-ff53-4f4a-8f22-312e410d79b5" d="M396.07,97.28c-.47-3.31-1.35-6.57-2.6-9.67-2.29-5.68-5.87-10.74-10.1-15.13-.55-.57-1.1-1.16-1.74-1.64-.14-.11-.78-.57-.69-.08.04.21.18.43.29.62.18.3.39.58.61.85.38.46.77.88,1.17,1.32.26.29.53.57.78.86.31.35.58.72.86,1.09.8,1.06,1.57,2.14,2.26,3.28.76,1.25,1.47,2.53,2.1,3.85.69,1.45,1.31,2.94,1.84,4.46.61,1.73,1.09,3.5,1.46,5.29.75,3.57,1.05,7.2.94,10.84-.1,3.44-.73,6.89-1.77,10.16-.53,1.68-1.15,3.35-1.9,4.94-.73,1.56-1.51,3.09-2.44,4.55-.95,1.5-1.96,2.94-3.06,4.33-1.08,1.35-2.26,2.61-3.49,3.82-1.22,1.21-2.55,2.3-3.91,3.34-1.33,1.02-2.76,1.97-4.22,2.8-1.54.87-3.09,1.67-4.71,2.37-1.63.71-3.32,1.3-5.02,1.81-3.27.98-6.7,1.55-10.11,1.72-7.02.35-14.13-1.17-20.37-4.41-3.18-1.65-6.12-3.7-8.75-6.14-2.38-2.21-4.44-4.74-6.16-7.5-3-4.81-4.93-10.25-5.96-15.81-.23-1.24-.39-2.48-.55-3.73-.02-.19-.05-.38-.08-.58-.02-.09-.04-.19-.05-.28-.01-.12,0-.23-.05-.34-.05-.1-.55-.79-.67-.64-.03.04,0,.29,0,.34,0,.1-.02.19-.03.29-.05,1.05.07,2.11.17,3.16.12,1.27.33,2.54.6,3.79.61,2.72,1.48,5.36,2.64,7.9,1.27,2.78,2.85,5.42,4.65,7.89,4.12,5.64,9.5,10.34,15.66,13.64,3.18,1.7,6.57,2.96,10.06,3.86,1.81.47,3.66.79,5.51,1.02,1.63.2,3.28.32,4.93.32.09,0,.17,0,.26,0,1.74-.03,3.46-.09,5.19-.3,1.76-.21,3.5-.56,5.22-.98,1.57-.39,3.12-.9,4.63-1.5,1.6-.63,3.16-1.34,4.67-2.17,6.05-3.34,11.3-8.11,15.1-13.89,1.89-2.88,3.46-5.98,4.59-9.23,1.14-3.26,1.91-6.65,2.31-10.08.4-3.45.4-6.94-.09-10.38Z"/><path class="uuid-2bc0d302-ff53-4f4a-8f22-312e410d79b5" d="M215.48,57.63c.31,1.2.71,2.89.27,4.09-.05.14-.12.28-.26.33-.14.05-.29,0-.43-.06-.89-.37-1.72-.15-2.93-.17-1.4-.02-2.8.1-4.19.21-2.92.23-5.81.73-8.61,1.6-6.18,1.93-11.94,5.31-16.56,9.85-2.57,2.52-4.79,5.36-6.66,8.43-1.88,3.1-3.29,6.45-4.34,9.91-.52,1.72-.9,3.49-1.16,5.27-.27,1.81-.43,3.63-.44,5.46,0,1.98.13,3.95.46,5.9.32,1.9.79,3.78,1.39,5.61,1.14,3.49,2.76,6.83,4.76,9.9,2.13,3.27,4.72,6.22,7.65,8.8,5.41,4.78,12.11,8.23,19.18,9.72,3.5.74,7.06,1.05,10.64.92,3.55-.13,7.13-.69,10.53-1.71,3.19-.96,6.29-2.25,9.15-3.97,2.69-1.61,5.24-3.46,7.55-5.59,1.09-1.01,2.13-2.07,3.11-3.19.22-.25.43-.5.64-.76.07-.08.13-.16.2-.24.03-.03.12-.21.17-.21.15,0,.2.45.22.54.05.28.08.57.06.85-.01.16-.04.26-.15.38-.07.08-.13.16-.2.24-1.85,2.28-3.91,4.41-6.19,6.27-5.17,4.22-11.34,7.21-17.85,8.7-3.57.81-7.22,1.13-10.88,1.01-3.51-.12-6.99-.72-10.37-1.68-1.64-.46-3.26-1.04-4.82-1.72-1.64-.71-3.25-1.49-4.79-2.39-3.18-1.87-6.1-4.12-8.69-6.75-5.21-5.29-9.05-11.99-10.91-19.19-1.94-7.53-2.27-15.53-.53-23.13.82-3.57,2.06-7.05,3.74-10.31,1.61-3.12,3.6-6.11,5.96-8.73.05-.06.1-.11.15-.17,1.18-1.31,2.43-2.56,3.76-3.73,2.46-2.16,5.14-4.07,8-5.65,2.71-1.5,5.58-2.66,8.54-3.56,2.84-.86,5.76-1.53,8.72-1.77,1-.08,2.01-.12,3.01-.09.72.02,1.27.03,2.1,0,.2,0,.41-.12.6-.03.19.09.27.31.33.52.03.09.05.19.08.28Z"/><path class="uuid-2bc0d302-ff53-4f4a-8f22-312e410d79b5" d="M282.8,111.91c0,3.85-3.24,7.06-7.24,7.18-3.99.12-7.21-2.89-7.21-6.72s3.22-7.05,7.21-7.18c3.99-.14,7.24,2.87,7.24,6.72Z"/><path class="uuid-2bc0d302-ff53-4f4a-8f22-312e410d79b5" d="M118.5,249.46l-5-14h2.24l4.12,11.67h-.55l4.12-11.67h2.25l-5,14h-2.18Z"/><path class="uuid-2bc0d302-ff53-4f4a-8f22-312e410d79b5" d="M129,249.46v-14h8.72v2.04h-6.51v3.63h5.13v2.04h-5.13v4.25h6.7v2.04h-8.91Z"/><path class="uuid-2bc0d302-ff53-4f4a-8f22-312e410d79b5" d="M141.9,249.46v-14h2.26l6.51,9.87v-9.87h2.19v14h-1.82l-6.96-10.44v10.44h-2.18Z"/><path class="uuid-2bc0d302-ff53-4f4a-8f22-312e410d79b5" d="M160.47,249.46v-11.96h-4.03v-2.04h10.24v2.04h-4.03v11.96h-2.18Z"/><path class="uuid-2bc0d302-ff53-4f4a-8f22-312e410d79b5" d="M170.25,249.46v-14h8.72v2.04h-6.51v3.63h5.13v2.04h-5.13v4.25h6.7v2.04h-8.91Z"/><path class="uuid-2bc0d302-ff53-4f4a-8f22-312e410d79b5" d="M182.55,249.46v-2.37h2.34v2.37h-2.34Z"/><path class="uuid-2bc0d302-ff53-4f4a-8f22-312e410d79b5" d="M189.13,249.46v-14h2.18v12.04h6.14v1.96h-8.32Z"/><path class="uuid-2bc0d302-ff53-4f4a-8f22-312e410d79b5" d="M206.93,249.74c-1.33,0-2.52-.3-3.56-.9-1.04-.6-1.86-1.45-2.45-2.54s-.89-2.37-.89-3.84.3-2.75.89-3.84,1.41-1.94,2.45-2.54c1.04-.6,2.23-.9,3.56-.9s2.52.3,3.56.9c1.04.6,1.86,1.45,2.45,2.54s.89,2.37.89,3.84-.3,2.75-.89,3.84-1.41,1.94-2.45,2.54c-1.04.6-2.23.9-3.56.9ZM206.93,247.63c1.01,0,1.86-.23,2.54-.68.68-.45,1.19-1.07,1.53-1.86s.52-1.66.52-2.63-.17-1.85-.52-2.63-.85-1.4-1.53-1.86c-.68-.45-1.53-.68-2.54-.68s-1.86.23-2.54.68c-.68.45-1.19,1.07-1.54,1.86s-.52,1.66-.52,2.63.17,1.85.52,2.63.85,1.4,1.54,1.86c.68.45,1.53.68,2.54.68Z"/><path class="uuid-2bc0d302-ff53-4f4a-8f22-312e410d79b5" d="M224.15,249.74c-1.39,0-2.61-.3-3.69-.9-1.07-.6-1.91-1.45-2.51-2.54-.61-1.09-.91-2.37-.91-3.84s.31-2.75.92-3.84,1.47-1.94,2.56-2.54c1.09-.6,2.32-.9,3.71-.9.72,0,1.4.08,2.03.23.63.15,1.19.35,1.66.59l-.24,2.05c-.5-.24-1.04-.44-1.61-.6-.57-.16-1.19-.24-1.86-.24-1.05,0-1.93.23-2.64.7-.71.46-1.24,1.09-1.6,1.88s-.54,1.68-.54,2.67.18,1.88.54,2.67c.36.79.89,1.42,1.59,1.88.7.46,1.58.7,2.62.7.69,0,1.31-.08,1.88-.22.56-.15,1.11-.35,1.65-.61l.24,2.05c-.51.23-1.08.43-1.71.58s-1.31.23-2.06.23Z"/><path class="uuid-2bc0d302-ff53-4f4a-8f22-312e410d79b5" d="M236.15,237.59h.6l-4.19,11.87h-2.2l5-14h2.18l5,14h-2.2l-4.19-11.87ZM239.42,245.88h-5.94v-1.95h5.94v1.95Z"/><path class="uuid-2bc0d302-ff53-4f4a-8f22-312e410d79b5" d="M248.68,249.46v-11.96h-4.03v-2.04h10.24v2.04h-4.03v11.96h-2.18Z"/><path class="uuid-2bc0d302-ff53-4f4a-8f22-312e410d79b5" d="M258.46,249.46v-14h2.18v14h-2.18Z"/><path class="uuid-2bc0d302-ff53-4f4a-8f22-312e410d79b5" d="M271.58,249.74c-1.33,0-2.52-.3-3.56-.9-1.04-.6-1.86-1.45-2.45-2.54s-.89-2.37-.89-3.84.3-2.75.89-3.84,1.41-1.94,2.45-2.54c1.04-.6,2.23-.9,3.56-.9s2.52.3,3.56.9c1.04.6,1.86,1.45,2.45,2.54s.89,2.37.89,3.84-.3,2.75-.89,3.84-1.41,1.94-2.45,2.54c-1.04.6-2.23.9-3.56.9ZM271.58,247.63c1.01,0,1.86-.23,2.54-.68.68-.45,1.19-1.07,1.53-1.86s.52-1.66.52-2.63-.17-1.85-.52-2.63-.85-1.4-1.53-1.86c-.68-.45-1.53-.68-2.54-.68s-1.86.23-2.54.68c-.68.45-1.19,1.07-1.54,1.86s-.52,1.66-.52,2.63.17,1.85.52,2.63.85,1.4,1.54,1.86c.68.45,1.53.68,2.54.68Z"/><path class="uuid-2bc0d302-ff53-4f4a-8f22-312e410d79b5" d="M282.51,249.46v-14h2.26l6.51,9.87v-9.87h2.19v14h-1.82l-6.96-10.44v10.44h-2.18Z"/><path class="uuid-2bc0d302-ff53-4f4a-8f22-312e410d79b5" d="M297.72,249.46v-2.37h2.34v2.37h-2.34Z"/><path class="uuid-2bc0d302-ff53-4f4a-8f22-312e410d79b5" d="M304.3,249.46v-14h4.79c.97,0,1.82.15,2.54.46s1.29.77,1.68,1.39c.4.63.6,1.43.6,2.4s-.21,1.79-.63,2.42c-.42.63-1.02,1.13-1.78,1.5l3.15,5.83h-2.55l-2.78-5.35h-2.79v5.35h-2.24ZM306.54,242.22h2.25c.99,0,1.72-.22,2.17-.67.46-.45.68-1.04.68-1.78s-.23-1.36-.68-1.78c-.45-.42-1.17-.64-2.14-.64h-2.29v4.87Z"/><path class="uuid-2bc0d302-ff53-4f4a-8f22-312e410d79b5" d="M318.26,249.46v-14h8.72v2.04h-6.51v3.63h5.13v2.04h-5.13v4.25h6.7v2.04h-8.91ZM320.93,234.22v-1.25l3.82-1.9v1.99l-3.82,1.16Z"/><path class="uuid-2bc0d302-ff53-4f4a-8f22-312e410d79b5" d="M331.16,249.46v-14h4.78c.99,0,1.85.16,2.58.46.73.31,1.29.8,1.68,1.46.39.67.58,1.53.58,2.6s-.2,1.94-.58,2.61c-.39.68-.95,1.18-1.67,1.5-.72.32-1.58.48-2.56.48h-2.56v4.88h-2.24ZM333.4,242.7h2.27c.96,0,1.68-.22,2.16-.65.48-.43.72-1.11.72-2.02s-.23-1.59-.7-2.02-1.2-.65-2.2-.65h-2.25v5.34Z"/><path class="uuid-2bc0d302-ff53-4f4a-8f22-312e410d79b5" d="M348.83,237.59h.6l-4.19,11.87h-2.2l5-14h2.18l5,14h-2.2l-4.19-11.87ZM352.1,245.88h-5.94v-1.95h5.94v1.95Z"/><path class="uuid-2bc0d302-ff53-4f4a-8f22-312e410d79b5" d="M358.6,249.46v-14h4.79c.97,0,1.82.15,2.54.46.72.3,1.29.77,1.68,1.39.4.63.6,1.43.6,2.4s-.21,1.79-.64,2.42c-.42.63-1.01,1.13-1.77,1.5l3.15,5.83h-2.55l-2.78-5.35h-2.79v5.35h-2.24ZM360.84,242.22h2.25c.99,0,1.72-.22,2.18-.67.46-.45.68-1.04.68-1.78s-.23-1.36-.68-1.78c-.45-.42-1.17-.64-2.14-.64h-2.29v4.87Z"/><path class="uuid-2bc0d302-ff53-4f4a-8f22-312e410d79b5" d="M376.89,237.59h.6l-4.19,11.87h-2.2l5-14h2.18l5,14h-2.2l-4.19-11.87ZM380.16,245.88h-5.94v-1.95h5.94v1.95Z"/><path class="uuid-2bc0d302-ff53-4f4a-8f22-312e410d79b5" d="M389.42,249.46v-11.96h-4.03v-2.04h10.24v2.04h-4.03v11.96h-2.18Z"/><path class="uuid-2bc0d302-ff53-4f4a-8f22-312e410d79b5" d="M399.2,249.46v-14h2.18v14h-2.18Z"/><path class="uuid-2bc0d302-ff53-4f4a-8f22-312e410d79b5" d="M412.32,249.74c-1.33,0-2.52-.3-3.56-.9-1.04-.6-1.86-1.45-2.45-2.54-.59-1.09-.89-2.37-.89-3.84s.3-2.75.89-3.84c.59-1.09,1.41-1.94,2.45-2.54,1.04-.6,2.23-.9,3.56-.9s2.52.3,3.56.9c1.04.6,1.86,1.45,2.45,2.54s.89,2.37.89,3.84-.3,2.75-.89,3.84-1.41,1.94-2.45,2.54c-1.04.6-2.23.9-3.56.9ZM412.32,247.63c1.01,0,1.86-.23,2.54-.68.68-.45,1.19-1.07,1.54-1.86.34-.78.51-1.66.51-2.63s-.17-1.85-.51-2.63c-.34-.78-.86-1.4-1.54-1.86-.68-.45-1.53-.68-2.54-.68s-1.86.23-2.54.68c-.68.45-1.19,1.07-1.54,1.86s-.51,1.66-.51,2.63.17,1.85.51,2.63.86,1.4,1.54,1.86,1.53.68,2.54.68Z"/><path class="uuid-2bc0d302-ff53-4f4a-8f22-312e410d79b5" d="M423.25,249.46v-14h2.26l6.51,9.87v-9.87h2.19v14h-1.82l-6.96-10.44v10.44h-2.18Z"/><path class="uuid-2bc0d302-ff53-4f4a-8f22-312e410d79b5" d="M52.81,240.2c1.8-.04,3.56,1.51,5.72,1.62,2.32.12,3.31-.82,5.24-1.42,4.86-1.51,7.14,5.37,2.91,7.26-2.65,1.18-5.35-1.6-8.64-1.23-2.52.28-4.91,2.74-7.42.88-3.01-2.22-1.53-7.03,2.19-7.1ZM52.43,242.35c-1.81.34-1.77,3.28.11,3.53,2.95.4,2.85-4.08-.11-3.53ZM64.44,242.35c-1.75.4-1.62,3.38.36,3.55,2.86.25,2.61-4.22-.36-3.55Z"/><path class="uuid-2bc0d302-ff53-4f4a-8f22-312e410d79b5" d="M64.98,240.22c1.8-.04,3.56,1.51,5.72,1.62,2.32.12,3.31-.82,5.24-1.42,4.86-1.51,7.14,5.37,2.91,7.26-2.65,1.18-5.35-1.6-8.64-1.23-2.52.28-4.91,2.74-7.42.88-3.01-2.22-1.53-7.03,2.19-7.1ZM64.61,242.38c-1.81.34-1.77,3.28.11,3.53,2.95.4,2.85-4.08-.11-3.53ZM76.61,242.37c-1.75.4-1.62,3.38.36,3.55,2.86.25,2.61-4.22-.36-3.55Z"/><path class="uuid-2bc0d302-ff53-4f4a-8f22-312e410d79b5" d="M77.04,240.23c1.8-.04,3.56,1.51,5.72,1.62,2.32.12,3.31-.82,5.24-1.42,4.86-1.51,7.14,5.37,2.91,7.26-2.65,1.18-5.35-1.6-8.64-1.23-2.52.28-4.91,2.74-7.42.88-3.01-2.22-1.53-7.03,2.19-7.1ZM76.66,242.39c-1.81.34-1.77,3.28.11,3.53,2.95.4,2.85-4.08-.11-3.53ZM88.67,242.38c-1.75.4-1.62,3.38.36,3.55,2.86.25,2.61-4.22-.36-3.55Z"/><path class="uuid-2bc0d302-ff53-4f4a-8f22-312e410d79b5" d="M89.21,240.25c1.8-.04,3.56,1.51,5.72,1.62,2.32.12,3.31-.82,5.24-1.42,4.86-1.51,7.14,5.37,2.91,7.26-2.65,1.18-5.35-1.6-8.64-1.23-2.52.28-4.91,2.74-7.42.88-3.01-2.22-1.53-7.03,2.19-7.1ZM88.84,242.41c-1.81.34-1.77,3.28.11,3.53,2.95.4,2.85-4.08-.11-3.53ZM100.84,242.4c-1.75.4-1.62,3.38.36,3.55,2.86.25,2.61-4.22-.36-3.55Z"/><path class="uuid-2bc0d302-ff53-4f4a-8f22-312e410d79b5" d="M449.83,240.25c1.8-.04,3.56,1.51,5.72,1.62,2.32.12,3.31-.82,5.24-1.42,4.86-1.51,7.14,5.37,2.91,7.26-2.65,1.18-5.35-1.6-8.64-1.23-2.52.28-4.91,2.74-7.42.88-3.01-2.22-1.53-7.03,2.19-7.1ZM449.46,242.4c-1.81.34-1.77,3.28.11,3.53,2.95.4,2.85-4.08-.11-3.53ZM461.46,242.4c-1.75.4-1.62,3.38.36,3.55,2.86.25,2.61-4.22-.36-3.55Z"/><path class="uuid-2bc0d302-ff53-4f4a-8f22-312e410d79b5" d="M462.01,240.27c1.8-.04,3.56,1.51,5.72,1.62,2.32.12,3.31-.82,5.24-1.42,4.86-1.51,7.14,5.37,2.91,7.26-2.65,1.18-5.35-1.6-8.64-1.23-2.52.28-4.91,2.74-7.42.88-3.01-2.22-1.53-7.03,2.19-7.1ZM461.63,242.42c-1.81.34-1.77,3.28.11,3.53,2.95.4,2.85-4.08-.11-3.53ZM473.64,242.42c-1.75.4-1.62,3.38.36,3.55,2.86.25,2.61-4.22-.36-3.55Z"/><path class="uuid-2bc0d302-ff53-4f4a-8f22-312e410d79b5" d="M474.06,240.28c1.8-.04,3.56,1.51,5.72,1.62,2.32.12,3.31-.82,5.24-1.42,4.86-1.51,7.14,5.37,2.91,7.26-2.65,1.18-5.35-1.6-8.64-1.23-2.52.28-4.91,2.74-7.42.88-3.01-2.22-1.53-7.03,2.19-7.1ZM473.69,242.43c-1.81.34-1.77,3.28.11,3.53,2.95.4,2.85-4.08-.11-3.53ZM485.69,242.43c-1.75.4-1.62,3.38.36,3.55,2.86.25,2.61-4.22-.36-3.55Z"/><path class="uuid-2bc0d302-ff53-4f4a-8f22-312e410d79b5" d="M486.24,240.3c1.8-.04,3.56,1.51,5.72,1.62,2.32.12,3.31-.82,5.24-1.42,4.86-1.51,7.14,5.37,2.91,7.26-2.65,1.18-5.35-1.6-8.64-1.23-2.52.28-4.91,2.74-7.42.88-3.01-2.22-1.53-7.03,2.19-7.1ZM485.86,242.46c-1.81.34-1.77,3.28.11,3.53,2.95.4,2.85-4.08-.11-3.53ZM497.87,242.45c-1.75.4-1.62,3.38.36,3.55,2.86.25,2.61-4.22-.36-3.55Z"/></svg>