<?xml version="1.0" encoding="UTF-8"?><svg id="uuid-19b5c25e-af48-4ecd-83ed-50a7da12341e" xmlns="http://www.w3.org/2000/svg" viewBox="0 0 353.06 353.06"><defs><style>.uuid-500e3c55-9193-49b7-92b9-20c0b96154d2{fill:#3c6142;}.uuid-e28ccc5a-46ae-4661-a1d5-80e9e5a68a75{fill:#8ac397;}</style></defs><circle class="uuid-e28ccc5a-46ae-4661-a1d5-80e9e5a68a75" cx="176.53" cy="176.53" r="166.53"/><path class="uuid-500e3c55-9193-49b7-92b9-20c0b96154d2" d="M49.25,208.1c-.6-.86-1.15-1.47-1.63-1.83-.48-.36-1.01-.62-1.56-.77-.56-.16-1.15-.23-1.76-.23-.9,0-1.74.2-2.52.6s-1.44.95-2.01,1.65-1.01,1.5-1.33,2.42-.48,1.9-.48,2.93.16,2.02.48,2.94c.32.92.76,1.72,1.31,2.41.56.69,1.23,1.23,2,1.64s1.62.6,2.55.6c.65,0,1.25-.1,1.81-.31.56-.21,1.07-.49,1.52-.83.46-.34.86-.74,1.2-1.19.34-.45.61-.91.81-1.4l5.19,1.45c-.33,1.05-.82,2.03-1.47,2.93s-1.42,1.67-2.33,2.33c-.91.66-1.93,1.17-3.06,1.55-1.13.38-2.36.56-3.67.56-1.11,0-2.17-.15-3.18-.45-1.01-.3-1.95-.73-2.83-1.27-.88-.55-1.67-1.21-2.39-1.98-.72-.77-1.33-1.63-1.83-2.57-.51-.94-.9-1.95-1.18-3.03-.28-1.08-.42-2.21-.42-3.38,0-1.75.31-3.4.92-4.93s1.45-2.87,2.52-4.02,2.31-2.05,3.75-2.71,2.98-.99,4.64-.99c1.32,0,2.44.16,3.34.49.9.33,1.9.98,2.98,1.94h3.61v5.45h-4.98Z"/><path class="uuid-500e3c55-9193-49b7-92b9-20c0b96154d2" d="M57.23,200.66h10.47v4.44h-2.05l3.27,5.61,3.47-5.61h-2.34v-4.44h10.47v4.44h-1.81l-7.27,9.87v5.73h2.97v4.42h-10.9v-4.42h2.71v-5.79l-6.84-9.81h-2.15v-4.44Z"/><path class="uuid-500e3c55-9193-49b7-92b9-20c0b96154d2" d="M99.09,208.1c-.6-.86-1.15-1.47-1.63-1.83-.48-.36-1.01-.62-1.56-.77-.56-.16-1.15-.23-1.76-.23-.9,0-1.74.2-2.52.6s-1.44.95-2.01,1.65-1.01,1.5-1.33,2.42-.48,1.9-.48,2.93.16,2.02.48,2.94c.32.92.76,1.72,1.31,2.41.56.69,1.23,1.23,2,1.64s1.62.6,2.55.6c.65,0,1.25-.1,1.81-.31.56-.21,1.07-.49,1.52-.83.46-.34.86-.74,1.2-1.19.34-.45.61-.91.81-1.4l5.19,1.45c-.33,1.05-.82,2.03-1.47,2.93s-1.42,1.67-2.33,2.33c-.91.66-1.93,1.17-3.06,1.55-1.13.38-2.36.56-3.67.56-1.11,0-2.17-.15-3.18-.45-1.01-.3-1.95-.73-2.83-1.27-.88-.55-1.67-1.21-2.39-1.98-.72-.77-1.33-1.63-1.83-2.57-.51-.94-.9-1.95-1.18-3.03-.28-1.08-.42-2.21-.42-3.38,0-1.75.31-3.4.92-4.93s1.45-2.87,2.52-4.02,2.31-2.05,3.75-2.71,2.98-.99,4.64-.99c1.32,0,2.44.16,3.34.49.9.33,1.9.98,2.98,1.94h3.61v5.45h-4.98Z"/><path class="uuid-500e3c55-9193-49b7-92b9-20c0b96154d2" d="M108.14,200.66h10.47v4.44h-2.58v15.6h5.32c.14,0,.28-.04.41-.12.13-.08.25-.19.35-.31.1-.13.19-.27.25-.42s.1-.3.1-.44v-3.27h5.23v8.98h-19.55v-4.42h2.53v-15.6h-2.53v-4.44Z"/><path class="uuid-500e3c55-9193-49b7-92b9-20c0b96154d2" d="M129.85,200.66h19.45v8.34h-5.26v-3.47h-6.27v4.82h4.85v4.68h-4.85v5.66h6.27v-4.34h5.26v8.76h-19.45v-4.42h2.56v-15.16h-2.56v-4.87Z"/><path class="uuid-500e3c55-9193-49b7-92b9-20c0b96154d2" d="M158.72,200.66h18.92v8.34h-5.24v-3.44h-5.79v5.15h5.02v4.69h-5.02v5.29h2.58v4.42h-10.47v-4.42h2.53v-15.13h-2.53v-4.9Z"/><path class="uuid-500e3c55-9193-49b7-92b9-20c0b96154d2" d="M190.52,225.55c-1.11,0-2.17-.15-3.18-.45-1.01-.3-1.95-.73-2.83-1.27s-1.67-1.21-2.39-1.98-1.33-1.62-1.83-2.56-.9-1.95-1.18-3.02-.42-2.2-.42-3.37.14-2.3.42-3.38.67-2.09,1.18-3.03c.51-.94,1.12-1.8,1.83-2.56.72-.77,1.51-1.43,2.39-1.98s1.82-.97,2.83-1.27c1.01-.3,2.07-.45,3.18-.45s2.17.15,3.19.45c1.02.3,1.96.73,2.84,1.27s1.67,1.21,2.39,1.98c.72.77,1.33,1.62,1.84,2.56.51.94.91,1.95,1.19,3.03s.42,2.21.42,3.38-.14,2.28-.42,3.36-.67,2.09-1.19,3.03-1.12,1.8-1.84,2.56-1.51,1.43-2.39,1.98-1.82.97-2.84,1.27c-1.02.3-2.08.45-3.19.45ZM190.52,220.49c.94,0,1.79-.2,2.57-.6.78-.4,1.45-.95,2.01-1.65s.99-1.5,1.3-2.42.46-1.9.46-2.93-.16-2.03-.47-2.95c-.31-.92-.75-1.73-1.31-2.43s-1.23-1.24-2.01-1.65c-.77-.4-1.62-.6-2.55-.6s-1.77.2-2.55.6-1.44.95-2,1.65-1,1.5-1.31,2.43c-.32.93-.48,1.91-.48,2.95s.16,2.01.48,2.93.76,1.73,1.31,2.42,1.23,1.24,2,1.65,1.62.6,2.55.6Z"/><path class="uuid-500e3c55-9193-49b7-92b9-20c0b96154d2" d="M205.59,200.66h12.94c1.26,0,2.38.19,3.37.56.99.38,1.82.88,2.5,1.51s1.2,1.36,1.56,2.19c.36.83.54,1.7.54,2.6,0,.83-.09,1.55-.27,2.18-.18.62-.44,1.18-.77,1.66s-.76.91-1.25,1.28-1.06.71-1.69,1.01c.55.28,1.03.71,1.45,1.28s.74,1.32.95,2.23l.82,3.18h2.02l.03,4.76h-7.1l-.97-5.81c-.1-.69-.24-1.28-.44-1.78s-.47-.91-.8-1.23-.74-.55-1.22-.7-1.05-.23-1.7-.23h-2.08v5.32h2.24v4.42h-10.13v-4.42h2.53v-15.6h-2.53v-4.44ZM213.48,205.1v5.92h3.21c.61,0,1.16-.06,1.65-.17s.91-.29,1.26-.53.62-.55.81-.91c.19-.37.28-.8.28-1.31,0-.95-.34-1.68-1.02-2.21-.68-.53-1.67-.79-2.98-.79h-3.21Z"/><path class="uuid-500e3c55-9193-49b7-92b9-20c0b96154d2" d="M247.99,225.12v-4.19c-.67,1.17-1.32,2.03-1.95,2.58s-1.35.99-2.15,1.32c-.8.33-1.87.49-3.22.48-.67-.01-1.33-.09-2-.23s-1.31-.35-1.94-.61-1.23-.58-1.83-.95-1.14-.8-1.62-1.28c-1.19-1.2-2.12-2.6-2.78-4.19s-.99-3.31-.99-5.19c0-1.15.14-2.26.42-3.34.28-1.08.67-2.08,1.18-3.02s1.12-1.79,1.83-2.56c.72-.77,1.51-1.43,2.39-1.98s1.82-.97,2.83-1.27c1.01-.3,2.07-.45,3.18-.45,1.27,0,2.37.17,3.31.51s1.94.97,3.02,1.9h3.61v5.45h-4.98c-.49-.76-.96-1.32-1.4-1.66-.44-.34-.91-.63-1.42-.85s-1.22-.34-2.14-.34-1.74.2-2.52.61c-.77.41-1.44.96-2.01,1.65s-1.01,1.51-1.33,2.45c-.32.94-.48,1.91-.48,2.9s.15,1.91.44,2.79.73,1.67,1.32,2.38,1.28,1.24,2.06,1.62,1.62.56,2.52.56c1.14,0,2.13-.33,2.98-1s1.46-1.58,1.84-2.73h-4.66v-4.42h11.32v13.05h-4.82Z"/><path class="uuid-500e3c55-9193-49b7-92b9-20c0b96154d2" d="M256.66,200.66h10.47v4.42h-2.58v15.61h2.58v4.42h-10.47v-4.42h2.53v-15.61h-2.53v-4.42Z"/><path class="uuid-500e3c55-9193-49b7-92b9-20c0b96154d2" d="M280.79,225.55c-1.11,0-2.17-.15-3.18-.45-1.01-.3-1.95-.73-2.83-1.27s-1.67-1.21-2.39-1.98-1.33-1.62-1.83-2.56-.9-1.95-1.18-3.02-.42-2.2-.42-3.37.14-2.3.42-3.38.67-2.09,1.18-3.03c.51-.94,1.12-1.8,1.83-2.56.72-.77,1.51-1.43,2.39-1.98s1.82-.97,2.83-1.27c1.01-.3,2.07-.45,3.18-.45s2.17.15,3.19.45c1.02.3,1.96.73,2.84,1.27s1.67,1.21,2.39,1.98c.72.77,1.33,1.62,1.84,2.56.51.94.91,1.95,1.19,3.03s.42,2.21.42,3.38-.14,2.28-.42,3.36-.67,2.09-1.19,3.03-1.12,1.8-1.84,2.56-1.51,1.43-2.39,1.98-1.82.97-2.84,1.27c-1.02.3-2.08.45-3.19.45ZM280.79,220.49c.94,0,1.79-.2,2.57-.6s1.45-.95,2.01-1.65.99-1.5,1.3-2.42.46-1.9.46-2.93-.16-2.03-.47-2.95c-.31-.92-.75-1.73-1.31-2.43s-1.23-1.24-2.01-1.65-1.62-.6-2.55-.6-1.77.2-2.55.6-1.44.95-2,1.65-1,1.5-1.31,2.43c-.32.93-.48,1.91-.48,2.95s.16,2.01.48,2.93.76,1.73,1.31,2.42,1.23,1.24,2,1.65,1.62.6,2.55.6Z"/><path class="uuid-500e3c55-9193-49b7-92b9-20c0b96154d2" d="M311.3,200.66h9.29v4.44h-1.98v20.02h-5.35l-10.18-15.81v11.39h2.05v4.42h-9.27v-4.42h2.02v-15.6h-1.98v-4.44h7.39l10.11,16.02v-11.58h-2.08v-4.44Z"/><path class="uuid-500e3c55-9193-49b7-92b9-20c0b96154d2" d="M141.34,188.8c-9.17-.02-18.34-.04-27.51-.06-.39,0-.95.18-.62.63s1.24.56,1.75.56c9.17.02,18.34.04,27.51.06.39,0,.95-.18.62-.63s-1.24-.56-1.75-.56h0Z"/><path class="uuid-500e3c55-9193-49b7-92b9-20c0b96154d2" d="M205.6,136.27c1.4-1.15,2.78-2.31,4.28-3.34.07-.05.14-.09.2-.14.29,1.47.63,2.92.99,4.37,1,4.08,2.27,8.07,3.73,12,1.47,3.98,3.24,7.84,5.4,11.49,1.14,1.94,2.38,3.83,3.77,5.61.63.81,1.3,1.58,2,2.32.21.22.42.44.63.65.48.49.96,1.04,1.58,1.36-.09-.05-.68-1.26-.88-1.55-.69-.97-1.43-1.9-2.1-2.89-3.13-4.59-5.39-9.59-7.4-14.75-1.58-4.05-2.99-8.17-4.17-12.35-.55-1.97-1.06-3.95-1.54-5.93-.12-.49-.24-.99-.35-1.49-.03-.15-.07-.29-.1-.44-.08-.34-.15-.68-.23-1.02-.04-.19-.08-.38-.12-.57-.2-.93-.38-1.86-.55-2.8-.28-1.63-.53-3.26-.69-4.9,2.05-.16,4.11-.32,6.16-.48,1.63-.13,3.26-.27,4.89-.41.77-.07,1.54-.14,2.31-.22.18.91.25,1.84.19,2.76-.09.93-.35,1.82-.67,2.69-.47,1.29-1.2,2.46-2.02,3.56-.46.64-.9,1.33-1.52,1.83-.43.31,1.4,2.13,1.76,2.22.09.02.12.03.18-.05.17-.23.25-.51.43-.73,1.48-1.83,2.68-3.92,2.95-6.3.34-2.02.01-4.1-.64-6.03,0,0,0-.02,0-.02-.06-.19-.13-.37-.2-.55-.02-.06-.04-.11-.07-.17-.07-.19-.15-.38-.23-.56-.03-.05-.05-.1-.08-.15-.13.01-.26.03-.39.04-.02,0-.05,0-.07,0-1.61.18-3.21.37-4.82.58-1.59.2-3.18.4-4.77.62-1.16.16-2.32.31-3.48.46-.35.05-.7.09-1.05.14,0,.3,0,.59.01.89.02,1.09.08,2.18.17,3.26-1.77-.09-3.54-.11-5.31-.04-4.01.17-8,.74-11.92,1.57-4.01.85-7.97,1.94-11.84,3.31-3.83,1.36-7.53,3.06-11.09,5.01-.92.51-1.83,1.03-2.73,1.57-1.41-3.24-2.84-6.47-4.28-9.7-.83-1.86-1.64-3.72-2.44-5.58-.67-1.56-1.35-3.12-2.01-4.69.08.02.17.03.25.05,2.21.29,4.6.33,6.62-.75.46-.23.88-.54,1.13-1,.35-.58.5-1.3.63-1.96.11-.65.22-1.33.14-1.99-.03-.2-.12-.47-.35-.52-.41-.05-.82.09-1.22.16-1.38.27-2.8.28-4.18.54-1.04.18-2.07.45-3.09.72-1.05.26-2.06.62-3.12.83-1.13.21-2.3.27-3.44.24-.6-.02-1.26-.04-1.8-.32,0-.06-.02-.1-.08-.09-.09,0-.1.06-.13.13-.33.75.04,1.27.67,1.68.67.48,1.45.77,2.23,1,1.7.47,3.43.82,5.17,1.16.47,1.21.95,2.42,1.42,3.63,1.38,3.5,2.7,7.02,4.05,10.54.86,2.23,1.72,4.45,2.58,6.67-.37.23-.75.46-1.12.7-1.69,1.07-3.35,2.2-4.99,3.34-3.21,2.23-6.28,4.68-9.06,7.44-1.43,1.41-2.73,2.93-4.01,4.46-1.29,1.54-2.47,3.17-3.59,4.84-1.83,2.7-3.61,5.58-5.06,8.5-.38.77.21,2.2.8,1.01.07-.15.15-.29.22-.44.16-.3.32-.59.48-.88.37-.65.76-1.29,1.18-1.92,1.08-1.64,2.3-3.2,3.59-4.68,1.29-1.48,2.68-2.88,4.09-4.25,1.4-1.36,2.87-2.66,4.36-3.93,1.51-1.3,3.02-2.59,4.57-3.84,1.5-1.21,3.03-2.39,4.58-3.52,1.63-1.18,3.32-2.28,5.04-3.32.08-.05.15-.09.23-.13.11.28.22.56.33.83,1.49,3.81,3.04,7.6,4.58,11.39,1.56,3.81,3.17,7.6,4.74,11.41.76,1.83,1.51,3.66,2.26,5.49,0,0,0,.01,0,.02.17-.37.35-.73.53-1.1.92-1.85,1.94-3.65,3.02-5.41,2.17-3.52,4.66-6.84,7.21-10.1,2.47-3.17,5.13-6.2,7.94-9.07,2.77-2.83,5.7-5.5,8.76-8ZM185.94,153.81c-1.21,1.72-2.34,3.5-3.44,5.3-1.05,1.72-2.04,3.48-2.97,5.27-.37.72-.73,1.44-1.08,2.18-.69-1.77-1.38-3.54-2.07-5.31-1.49-3.84-3.01-7.66-4.59-11.47-.79-1.91-1.6-3.82-2.41-5.73-.58-1.36-1.17-2.72-1.76-4.07,2.94-1.7,5.96-3.24,9.04-4.67,3.69-1.71,7.44-3.29,11.29-4.6,3.7-1.26,7.5-2.23,11.36-2.83,3.28-.51,6.61-.79,9.93-.75.1.93.21,1.86.35,2.79-.39.23-.77.48-1.16.73-.74.48-1.46.98-2.19,1.49-.76.53-1.51,1.08-2.23,1.66-.76.6-1.48,1.24-2.2,1.89-2.92,2.62-5.62,5.47-8.2,8.42-2.71,3.1-5.3,6.33-7.67,9.7Z"/><path class="uuid-500e3c55-9193-49b7-92b9-20c0b96154d2" d="M167.32,179.78c.05-.16-.07-.35-.13-.45-.14-.22-.2-.3-.26-.39-.15-.23-.17-.22-.34-.43-.36-.43-.76-.86-1.22-1.17-.15-.1-.37-.3-.5-.06-.18.31-.26.61-.51.89-.84.95-1.75,1.86-2.67,2.73-1.39,1.31-2.89,2.5-4.54,3.47-3.63,2.15-7.79,3.47-12.01,3.72-2.34.14-4.69-.02-7-.46-2.32-.44-4.56-1.22-6.7-2.23-1.06-.5-2.09-1.09-3.06-1.74-.99-.66-1.95-1.38-2.84-2.18-.96-.86-1.86-1.79-2.66-2.81-.78-.99-1.49-2.04-2.11-3.13-1.19-2.08-2.1-4.32-2.72-6.64-.65-2.46-.95-5.01-.92-7.55.05-4.71,1.31-9.46,3.67-13.54,1.17-2.02,2.58-3.88,4.21-5.56,1.62-1.66,3.45-3.15,5.44-4.36,1.86-1.13,3.84-2.06,5.92-2.7,1.96-.6,3.96-1.03,6.01-1.21.97-.09,1.94-.13,2.91-.11.22,0,.43,0,.65.02.07,0,.14,0,.2,0,.03,0,.15.04.18.01.06-.07-.13-.3-.17-.34-.11-.15-.24-.29-.39-.4-.08-.07-.15-.1-.25-.09-.07,0-.14,0-.2,0-1.92-.1-3.85-.03-5.75.26-4.3.66-8.45,2.34-12.02,4.85-1.96,1.37-3.7,3.01-5.24,4.83-1.48,1.75-2.71,3.71-3.72,5.76-.49,1-.92,2.04-1.28,3.09-.38,1.1-.7,2.22-.93,3.37-.48,2.36-.67,4.76-.53,7.16.29,4.84,1.85,9.63,4.53,13.67,2.8,4.23,6.53,7.89,10.98,10.37,2.09,1.17,4.32,2.08,6.63,2.69,2.22.58,4.53.92,6.83.93.05,0,.1,0,.15,0,1.15,0,2.3-.06,3.45-.19,2.12-.25,4.22-.71,6.24-1.41,1.91-.66,3.73-1.54,5.46-2.58,1.66-1,3.26-2.12,4.67-3.45.41-.39.83-.77,1.21-1.2"/><path class="uuid-500e3c55-9193-49b7-92b9-20c0b96154d2" d="M249.87,157.88c-.31-2.19-.89-4.36-1.72-6.41-1.52-3.76-3.89-7.12-6.69-10.03-.37-.38-.73-.77-1.15-1.09-.09-.07-.52-.38-.46-.05.03.14.12.29.19.41.12.2.26.38.4.56.25.3.51.59.78.87.17.19.35.38.52.57.2.23.39.48.57.72.53.71,1.04,1.42,1.5,2.17.5.83.97,1.68,1.39,2.56.46.96.87,1.95,1.22,2.95.4,1.15.72,2.32.97,3.51.5,2.36.7,4.77.63,7.18-.07,2.28-.48,4.57-1.17,6.74-.35,1.11-.76,2.22-1.26,3.28-.48,1.03-1,2.05-1.61,3.01-.63.99-1.3,1.95-2.03,2.87-.72.9-1.5,1.73-2.31,2.53-.81.8-1.69,1.52-2.59,2.21-.88.68-1.83,1.31-2.8,1.85-1.02.58-2.05,1.1-3.12,1.57-1.08.47-2.2.86-3.33,1.2-2.17.65-4.44,1.03-6.7,1.14-4.65.23-9.37-.77-13.5-2.93-2.11-1.1-4.06-2.45-5.8-4.07-1.58-1.46-2.95-3.15-4.08-4.97-1.99-3.19-3.27-6.8-3.95-10.48-.15-.82-.26-1.65-.37-2.47-.02-.13-.03-.25-.05-.38-.01-.06-.03-.12-.03-.19,0-.08,0-.15-.03-.22-.03-.07-.37-.52-.45-.43-.02.02,0,.19,0,.23,0,.06-.01.13-.02.19-.03.7.04,1.4.11,2.09.08.84.22,1.69.4,2.51.4,1.81.98,3.55,1.75,5.23.84,1.85,1.89,3.59,3.09,5.23,2.73,3.74,6.3,6.86,10.38,9.04,2.11,1.13,4.35,1.96,6.67,2.56,1.2.31,2.43.53,3.65.68,1.08.13,2.18.21,3.27.21.06,0,.11,0,.17,0,1.15-.02,2.29-.06,3.44-.2,1.17-.14,2.32-.37,3.46-.65,1.04-.26,2.07-.6,3.07-.99,1.06-.42,2.1-.89,3.09-1.44,4.01-2.21,7.49-5.38,10.01-9.21,1.25-1.91,2.29-3.97,3.04-6.12.76-2.16,1.27-4.41,1.53-6.68.27-2.29.26-4.6-.06-6.88Z"/><path class="uuid-500e3c55-9193-49b7-92b9-20c0b96154d2" d="M113.56,153.32c-6.59-.02-13.18-.03-19.78-.05-.37,0-.91.17-.59.6s1.2.53,1.68.54c6.59.02,13.18.03,19.78.05.37,0,.91-.17.59-.6s-1.2-.53-1.68-.54h0Z"/><path class="uuid-500e3c55-9193-49b7-92b9-20c0b96154d2" d="M104.49,158.49l-17.37-.04c-.37,0-.91.17-.59.6s1.2.53,1.68.54l17.37.04c.37,0,.91-.17.59-.6s-1.2-.53-1.68-.54h0Z"/><path class="uuid-500e3c55-9193-49b7-92b9-20c0b96154d2" d="M111.15,163.71c-5.11-.01-10.23-.02-15.34-.03-.36,0-.88.17-.58.58s1.16.52,1.63.52l15.34.03c.36,0,.88-.17.58-.58s-1.16-.52-1.63-.52h0Z"/><path class="uuid-500e3c55-9193-49b7-92b9-20c0b96154d2" d="M112.29,147.17h-3.33c-.17,0-.51.03-.64.18-.12.13-.07.3.05.42.41.42,1.13.53,1.68.54h3.33c.17,0,.51-.03.64-.18.12-.13.07-.3-.05-.42-.41-.42-1.13-.53-1.68-.54h0Z"/><path class="uuid-500e3c55-9193-49b7-92b9-20c0b96154d2" d="M245.02,158.59c-.26-1.82-.74-3.62-1.43-5.32-1.26-3.13-3.23-5.91-5.56-8.33-.3-.32-.61-.64-.96-.9-.08-.06-.43-.32-.38-.04.02.12.1.24.16.34.1.16.21.32.33.47.21.25.43.49.65.73.14.16.29.31.43.48.17.19.32.4.47.6.44.59.86,1.18,1.25,1.8.42.69.81,1.39,1.15,2.12.38.8.72,1.62,1.01,2.45.33.95.6,1.93.8,2.91.41,1.96.58,3.96.52,5.97-.06,1.89-.4,3.79-.97,5.6-.29.93-.63,1.84-1.05,2.72-.4.86-.83,1.7-1.34,2.5-.52.82-1.08,1.62-1.69,2.38-.59.74-1.25,1.44-1.92,2.1-.67.66-1.41,1.26-2.15,1.84-.73.56-1.52,1.08-2.33,1.54-.85.48-1.7.92-2.59,1.3-.9.39-1.83.71-2.77,1-1.8.54-3.69.85-5.57.95-3.86.19-7.78-.64-11.21-2.43-1.75-.91-3.37-2.04-4.82-3.38-1.31-1.21-2.45-2.61-3.39-4.13-1.65-2.65-2.71-5.65-3.28-8.71-.13-.68-.21-1.37-.3-2.05-.01-.11-.03-.21-.05-.32,0-.05-.02-.1-.03-.15,0-.06,0-.13-.03-.19-.03-.06-.3-.43-.37-.35-.02.02,0,.16,0,.19,0,.05-.01.1-.01.16-.03.58.04,1.16.09,1.74.07.7.18,1.4.33,2.09.33,1.5.81,2.95,1.45,4.35.7,1.53,1.57,2.98,2.56,4.34,2.27,3.11,5.23,5.69,8.62,7.51,1.75.94,3.62,1.63,5.54,2.13,1,.26,2.01.44,3.03.56.9.11,1.81.17,2.71.18.05,0,.09,0,.14,0,.96-.02,1.91-.05,2.86-.16.97-.12,1.93-.31,2.88-.54.86-.21,1.72-.5,2.55-.82.88-.35,1.74-.74,2.57-1.19,3.33-1.84,6.22-4.46,8.31-7.65,1.04-1.58,1.9-3.29,2.53-5.08.63-1.8,1.05-3.66,1.27-5.55.22-1.9.22-3.82-.05-5.72Z"/><path class="uuid-500e3c55-9193-49b7-92b9-20c0b96154d2" d="M145.6,136.76c.17.66.39,1.59.15,2.25-.03.07-.07.15-.14.18-.08.03-.16,0-.24-.04-.49-.2-.95-.08-1.62-.09-.77-.01-1.54.05-2.31.11-1.61.13-3.2.4-4.74.88-3.4,1.06-6.58,2.92-9.12,5.42-1.41,1.39-2.64,2.95-3.67,4.64-1.03,1.71-1.81,3.55-2.39,5.46-.29.94-.5,1.92-.64,2.9-.15,1-.24,2-.24,3.01,0,1.09.07,2.18.26,3.25.18,1.05.44,2.08.77,3.09.63,1.92,1.52,3.76,2.62,5.45,1.18,1.8,2.6,3.42,4.21,4.84,2.98,2.63,6.67,4.53,10.56,5.35,1.93.41,3.89.58,5.86.51,1.96-.07,3.92-.38,5.8-.94,1.75-.53,3.46-1.24,5.04-2.18,1.48-.89,2.88-1.9,4.15-3.08.6-.56,1.17-1.14,1.71-1.76.12-.14.24-.28.35-.42.04-.04.07-.09.11-.13.02-.02.06-.12.09-.12.08,0,.11.25.12.3.03.15.04.31.03.47,0,.09-.02.15-.08.21-.04.04-.07.09-.11.13-1.02,1.25-2.16,2.43-3.41,3.45-2.85,2.32-6.25,3.97-9.83,4.79-1.97.45-3.97.62-5.99.55-1.93-.06-3.85-.4-5.71-.92-.9-.25-1.79-.58-2.65-.95-.9-.39-1.79-.82-2.64-1.32-1.75-1.03-3.36-2.27-4.78-3.72-2.87-2.91-4.98-6.6-6-10.56-1.07-4.14-1.25-8.55-.29-12.73.45-1.97,1.13-3.88,2.06-5.67.89-1.72,1.98-3.36,3.28-4.8.03-.03.06-.06.08-.09.65-.72,1.34-1.41,2.07-2.05,1.35-1.19,2.83-2.24,4.4-3.11,1.49-.82,3.07-1.46,4.7-1.96,1.56-.47,3.17-.84,4.8-.97.55-.04,1.1-.07,1.66-.05.4.01.7.01,1.16,0,.11,0,.23-.06.33-.01.1.05.15.17.18.28.01.05.03.1.04.16Z"/><path class="uuid-500e3c55-9193-49b7-92b9-20c0b96154d2" d="M182.66,166.64c0,2.12-1.79,3.89-3.99,3.95s-3.97-1.59-3.97-3.7,1.78-3.88,3.97-3.95,3.99,1.58,3.99,3.7Z"/><path class="uuid-500e3c55-9193-49b7-92b9-20c0b96154d2" d="M92.21,242.37l-2.75-7.71h1.23l2.27,6.42h-.3l2.27-6.42h1.24l-2.75,7.71h-1.2Z"/><path class="uuid-500e3c55-9193-49b7-92b9-20c0b96154d2" d="M97.99,242.37v-7.71h4.8v1.12h-3.58v2h2.82v1.12h-2.82v2.34h3.69v1.12h-4.91Z"/><path class="uuid-500e3c55-9193-49b7-92b9-20c0b96154d2" d="M105.09,242.37v-7.71h1.24l3.58,5.43v-5.43h1.21v7.71h-1l-3.83-5.75v5.75h-1.2Z"/><path class="uuid-500e3c55-9193-49b7-92b9-20c0b96154d2" d="M115.32,242.37v-6.58h-2.22v-1.12h5.64v1.12h-2.22v6.58h-1.2Z"/><path class="uuid-500e3c55-9193-49b7-92b9-20c0b96154d2" d="M120.7,242.37v-7.71h4.8v1.12h-3.58v2h2.82v1.12h-2.82v2.34h3.69v1.12h-4.91Z"/><path class="uuid-500e3c55-9193-49b7-92b9-20c0b96154d2" d="M127.47,242.37v-1.3h1.29v1.3h-1.29Z"/><path class="uuid-500e3c55-9193-49b7-92b9-20c0b96154d2" d="M131.09,242.37v-7.71h1.2v6.63h3.38v1.08h-4.58Z"/><path class="uuid-500e3c55-9193-49b7-92b9-20c0b96154d2" d="M140.89,242.53c-.73,0-1.39-.17-1.96-.5-.57-.33-1.02-.8-1.35-1.4s-.49-1.31-.49-2.12.16-1.52.49-2.12.78-1.07,1.35-1.4c.57-.33,1.23-.5,1.96-.5s1.39.17,1.96.5c.57.33,1.02.8,1.35,1.4s.49,1.31.49,2.12-.16,1.52-.49,2.12-.78,1.07-1.35,1.4c-.57.33-1.23.5-1.96.5ZM140.89,241.37c.56,0,1.02-.12,1.4-.37.37-.25.66-.59.84-1.02s.28-.91.28-1.45-.09-1.02-.28-1.45-.47-.77-.84-1.02c-.37-.25-.84-.37-1.4-.37s-1.02.12-1.4.37c-.37.25-.66.59-.85,1.02s-.28.91-.28,1.45.09,1.02.28,1.45.47.77.85,1.02c.37.25.84.37,1.4.37Z"/><path class="uuid-500e3c55-9193-49b7-92b9-20c0b96154d2" d="M150.37,242.53c-.76,0-1.44-.17-2.03-.5-.59-.33-1.05-.8-1.38-1.4-.33-.6-.5-1.31-.5-2.12s.17-1.52.51-2.12.81-1.07,1.41-1.4c.6-.33,1.28-.5,2.04-.5.4,0,.77.04,1.12.13.35.08.65.19.91.32l-.13,1.13c-.28-.13-.57-.24-.89-.33-.32-.09-.66-.13-1.02-.13-.58,0-1.06.13-1.45.38-.39.25-.68.6-.88,1.03s-.3.93-.3,1.47.1,1.04.29,1.47c.2.43.49.78.88,1.03.39.26.87.38,1.44.38.38,0,.72-.04,1.03-.12.31-.08.61-.19.91-.33l.13,1.13c-.28.13-.6.23-.94.32s-.72.13-1.13.13Z"/><path class="uuid-500e3c55-9193-49b7-92b9-20c0b96154d2" d="M156.98,235.84h.33l-2.31,6.54h-1.21l2.75-7.71h1.2l2.75,7.71h-1.21l-2.31-6.54ZM158.78,240.4h-3.27v-1.07h3.27v1.07Z"/><path class="uuid-500e3c55-9193-49b7-92b9-20c0b96154d2" d="M163.88,242.37v-6.58h-2.22v-1.12h5.64v1.12h-2.22v6.58h-1.2Z"/><path class="uuid-500e3c55-9193-49b7-92b9-20c0b96154d2" d="M169.26,242.37v-7.71h1.2v7.71h-1.2Z"/><path class="uuid-500e3c55-9193-49b7-92b9-20c0b96154d2" d="M176.49,242.53c-.73,0-1.39-.17-1.96-.5-.57-.33-1.02-.8-1.35-1.4s-.49-1.31-.49-2.12.16-1.52.49-2.12.78-1.07,1.35-1.4c.57-.33,1.23-.5,1.96-.5s1.39.17,1.96.5c.57.33,1.02.8,1.35,1.4s.49,1.31.49,2.12-.16,1.52-.49,2.12-.78,1.07-1.35,1.4c-.57.33-1.23.5-1.96.5ZM176.49,241.37c.56,0,1.02-.12,1.4-.37.37-.25.66-.59.84-1.02s.28-.91.28-1.45-.09-1.02-.28-1.45-.47-.77-.84-1.02c-.37-.25-.84-.37-1.4-.37s-1.02.12-1.4.37c-.37.25-.66.59-.85,1.02s-.28.91-.28,1.45.09,1.02.28,1.45.47.77.85,1.02c.37.25.84.37,1.4.37Z"/><path class="uuid-500e3c55-9193-49b7-92b9-20c0b96154d2" d="M182.5,242.37v-7.71h1.24l3.58,5.43v-5.43h1.21v7.71h-1l-3.83-5.75v5.75h-1.2Z"/><path class="uuid-500e3c55-9193-49b7-92b9-20c0b96154d2" d="M190.88,242.37v-1.3h1.29v1.3h-1.29Z"/><path class="uuid-500e3c55-9193-49b7-92b9-20c0b96154d2" d="M194.5,242.37v-7.71h2.64c.54,0,1,.08,1.4.25s.71.42.93.77c.22.35.33.79.33,1.32s-.12.99-.35,1.33c-.23.35-.56.62-.98.82l1.73,3.21h-1.4l-1.53-2.95h-1.54v2.95h-1.23ZM195.73,238.39h1.24c.55,0,.95-.12,1.2-.37.25-.25.38-.57.38-.98s-.12-.75-.37-.98c-.25-.23-.64-.35-1.18-.35h-1.26v2.68Z"/><path class="uuid-500e3c55-9193-49b7-92b9-20c0b96154d2" d="M202.19,242.37v-7.71h4.8v1.12h-3.58v2h2.82v1.12h-2.82v2.34h3.69v1.12h-4.91ZM203.66,233.98v-.69l2.1-1.05v1.1l-2.1.64Z"/><path class="uuid-500e3c55-9193-49b7-92b9-20c0b96154d2" d="M209.29,242.37v-7.71h2.63c.55,0,1.02.09,1.42.26.4.17.71.44.92.81.21.37.32.84.32,1.43s-.11,1.07-.32,1.44c-.22.37-.52.65-.92.82-.4.18-.87.26-1.41.26h-1.41v2.69h-1.23ZM210.52,238.65h1.25c.53,0,.92-.12,1.19-.36.26-.24.4-.61.4-1.11s-.13-.88-.39-1.11-.66-.36-1.21-.36h-1.24v2.94Z"/><path class="uuid-500e3c55-9193-49b7-92b9-20c0b96154d2" d="M219.02,235.84h.33l-2.31,6.54h-1.21l2.75-7.71h1.2l2.75,7.71h-1.21l-2.31-6.54ZM220.82,240.4h-3.27v-1.07h3.27v1.07Z"/><path class="uuid-500e3c55-9193-49b7-92b9-20c0b96154d2" d="M224.4,242.37v-7.71h2.64c.54,0,1,.08,1.4.25.4.17.71.42.93.77.22.35.33.79.33,1.32s-.12.99-.35,1.33c-.23.35-.56.62-.98.82l1.73,3.21h-1.4l-1.53-2.95h-1.54v2.95h-1.23ZM225.63,238.39h1.24c.55,0,.95-.12,1.2-.37.25-.25.38-.57.38-.98s-.12-.75-.37-.98c-.25-.23-.64-.35-1.18-.35h-1.26v2.68Z"/><path class="uuid-500e3c55-9193-49b7-92b9-20c0b96154d2" d="M234.46,235.84h.33l-2.31,6.54h-1.21l2.75-7.71h1.2l2.75,7.71h-1.21l-2.31-6.54ZM236.26,240.4h-3.27v-1.07h3.27v1.07Z"/><path class="uuid-500e3c55-9193-49b7-92b9-20c0b96154d2" d="M241.36,242.37v-6.58h-2.22v-1.12h5.64v1.12h-2.22v6.58h-1.2Z"/><path class="uuid-500e3c55-9193-49b7-92b9-20c0b96154d2" d="M246.75,242.37v-7.71h1.2v7.71h-1.2Z"/><path class="uuid-500e3c55-9193-49b7-92b9-20c0b96154d2" d="M253.97,242.53c-.73,0-1.39-.17-1.96-.5-.57-.33-1.02-.8-1.35-1.4-.33-.6-.49-1.31-.49-2.12s.16-1.52.49-2.12c.33-.6.78-1.07,1.35-1.4.57-.33,1.23-.5,1.96-.5s1.39.17,1.96.5c.57.33,1.02.8,1.35,1.4s.49,1.31.49,2.12-.16,1.52-.49,2.12-.78,1.07-1.35,1.4c-.57.33-1.23.5-1.96.5ZM253.97,241.37c.56,0,1.02-.12,1.4-.37.37-.25.66-.59.85-1.02.19-.43.28-.91.28-1.45s-.09-1.02-.28-1.45c-.19-.43-.47-.77-.85-1.02-.37-.25-.84-.37-1.4-.37s-1.02.12-1.4.37c-.37.25-.66.59-.85,1.02s-.28.91-.28,1.45.09,1.02.28,1.45.47.77.85,1.02.84.37,1.4.37Z"/><path class="uuid-500e3c55-9193-49b7-92b9-20c0b96154d2" d="M259.99,242.37v-7.71h1.24l3.58,5.43v-5.43h1.21v7.71h-1l-3.83-5.75v5.75h-1.2Z"/><path class="uuid-500e3c55-9193-49b7-92b9-20c0b96154d2" d="M56.04,237.27c.99-.02,1.96.83,3.15.89,1.28.06,1.82-.45,2.88-.78,2.67-.83,3.93,2.96,1.6,3.99-1.46.65-2.94-.88-4.76-.68-1.39.16-2.7,1.51-4.09.48-1.66-1.22-.84-3.87,1.21-3.91ZM55.83,238.46c-1,.18-.98,1.81.06,1.95,1.62.22,1.57-2.25-.06-1.95ZM62.44,238.46c-.97.22-.89,1.86.2,1.95,1.58.14,1.44-2.33-.2-1.95Z"/><path class="uuid-500e3c55-9193-49b7-92b9-20c0b96154d2" d="M62.74,237.29c.99-.02,1.96.83,3.15.89,1.28.06,1.82-.45,2.88-.78,2.67-.83,3.93,2.96,1.6,3.99-1.46.65-2.94-.88-4.76-.68-1.39.16-2.7,1.51-4.09.48-1.66-1.22-.84-3.87,1.21-3.91ZM62.54,238.47c-1,.18-.98,1.81.06,1.95,1.62.22,1.57-2.25-.06-1.95ZM69.15,238.47c-.97.22-.89,1.86.2,1.95,1.58.14,1.44-2.33-.2-1.95Z"/><path class="uuid-500e3c55-9193-49b7-92b9-20c0b96154d2" d="M69.38,237.29c.99-.02,1.96.83,3.15.89,1.28.06,1.82-.45,2.88-.78,2.67-.83,3.93,2.96,1.6,3.99-1.46.65-2.94-.88-4.76-.68-1.39.16-2.7,1.51-4.09.48-1.66-1.22-.84-3.87,1.21-3.91ZM69.17,238.48c-1,.18-.98,1.81.06,1.95,1.62.22,1.57-2.25-.06-1.95ZM75.78,238.47c-.97.22-.89,1.86.2,1.95,1.58.14,1.44-2.33-.2-1.95Z"/><path class="uuid-500e3c55-9193-49b7-92b9-20c0b96154d2" d="M76.08,237.3c.99-.02,1.96.83,3.15.89,1.28.06,1.82-.45,2.88-.78,2.67-.83,3.93,2.96,1.6,3.99-1.46.65-2.94-.88-4.76-.68-1.39.16-2.7,1.51-4.09.48-1.66-1.22-.84-3.87,1.21-3.91ZM75.88,238.49c-1,.18-.98,1.81.06,1.95,1.62.22,1.57-2.25-.06-1.95ZM82.49,238.49c-.97.22-.89,1.86.2,1.95,1.58.14,1.44-2.33-.2-1.95Z"/><path class="uuid-500e3c55-9193-49b7-92b9-20c0b96154d2" d="M274.62,237.3c.99-.02,1.96.83,3.15.89,1.28.06,1.82-.45,2.88-.78,2.67-.83,3.93,2.96,1.6,3.99-1.46.65-2.94-.88-4.76-.68-1.39.16-2.7,1.51-4.09.48-1.66-1.22-.84-3.87,1.21-3.91ZM274.42,238.49c-1,.18-.98,1.81.06,1.95,1.62.22,1.57-2.25-.06-1.95ZM281.03,238.48c-.97.22-.89,1.86.2,1.95,1.58.14,1.44-2.33-.2-1.95Z"/><path class="uuid-500e3c55-9193-49b7-92b9-20c0b96154d2" d="M281.33,237.31c.99-.02,1.96.83,3.15.89,1.28.06,1.82-.45,2.88-.78,2.67-.83,3.93,2.96,1.6,3.99-1.46.65-2.94-.88-4.76-.68-1.39.16-2.7,1.51-4.09.48-1.66-1.22-.84-3.87,1.21-3.91ZM281.12,238.5c-1,.18-.98,1.81.06,1.95,1.62.22,1.57-2.25-.06-1.95ZM287.73,238.5c-.97.22-.89,1.86.2,1.95,1.58.14,1.44-2.33-.2-1.95Z"/><path class="uuid-500e3c55-9193-49b7-92b9-20c0b96154d2" d="M287.96,237.32c.99-.02,1.96.83,3.15.89,1.28.06,1.82-.45,2.88-.78,2.67-.83,3.93,2.96,1.6,3.99-1.46.65-2.94-.88-4.76-.68-1.39.16-2.7,1.51-4.09.48-1.66-1.22-.84-3.87,1.21-3.91ZM287.75,238.5c-1,.18-.98,1.81.06,1.95,1.62.22,1.57-2.25-.06-1.95ZM294.36,238.5c-.97.22-.89,1.86.2,1.95,1.58.14,1.44-2.33-.2-1.95Z"/><path class="uuid-500e3c55-9193-49b7-92b9-20c0b96154d2" d="M294.66,237.33c.99-.02,1.96.83,3.15.89,1.28.06,1.82-.45,2.88-.78,2.67-.83,3.93,2.96,1.6,3.99-1.46.65-2.94-.88-4.76-.68-1.39.16-2.7,1.51-4.09.48-1.66-1.22-.84-3.87,1.21-3.91ZM294.46,238.51c-1,.18-.98,1.81.06,1.95,1.62.22,1.57-2.25-.06-1.95ZM301.07,238.51c-.97.22-.89,1.86.2,1.95,1.58.14,1.44-2.33-.2-1.95Z"/></svg>