<?xml version="1.0" encoding="UTF-8"?><svg id="uuid-6b41e993-5c0c-4971-a315-8e3d583507b3" xmlns="http://www.w3.org/2000/svg" viewBox="0 0 373.46 373.46"><defs><style>.uuid-eb345933-0dd8-42ef-beda-68a4a80483f2{fill:#3c6142;}.uuid-e7363923-f789-4fca-9145-92e1cf7d353f{fill:#eeefd5;}</style></defs><circle class="uuid-e7363923-f789-4fca-9145-92e1cf7d353f" cx="186.73" cy="186.73" r="176.73"/><path class="uuid-eb345933-0dd8-42ef-beda-68a4a80483f2" d="M61.42,238.33c-.6-.86-1.15-1.47-1.63-1.83-.48-.36-1.01-.62-1.56-.77-.56-.16-1.15-.23-1.76-.23-.9,0-1.74.2-2.52.6s-1.44.95-2.01,1.65-1.01,1.5-1.33,2.42-.48,1.9-.48,2.93.16,2.02.48,2.94c.32.92.76,1.72,1.31,2.41.56.69,1.23,1.23,2,1.64s1.62.6,2.55.6c.65,0,1.25-.1,1.81-.31.56-.21,1.07-.49,1.52-.83.46-.34.86-.74,1.2-1.19.34-.45.61-.91.81-1.4l5.19,1.45c-.33,1.05-.82,2.03-1.47,2.93s-1.42,1.67-2.33,2.33c-.91.66-1.93,1.17-3.06,1.55-1.13.38-2.36.56-3.67.56-1.11,0-2.17-.15-3.18-.45-1.01-.3-1.95-.73-2.83-1.27-.88-.55-1.67-1.21-2.39-1.98-.72-.77-1.33-1.63-1.83-2.57-.51-.94-.9-1.95-1.18-3.03-.28-1.08-.42-2.21-.42-3.38,0-1.75.31-3.4.92-4.93s1.45-2.87,2.52-4.02,2.31-2.05,3.75-2.71,2.98-.99,4.64-.99c1.32,0,2.44.16,3.34.49.9.33,1.9.98,2.98,1.94h3.61v5.45h-4.98Z"/><path class="uuid-eb345933-0dd8-42ef-beda-68a4a80483f2" d="M69.4,230.9h10.47v4.44h-2.05l3.27,5.61,3.47-5.61h-2.34v-4.44h10.47v4.44h-1.81l-7.27,9.87v5.73h2.97v4.42h-10.9v-4.42h2.71v-5.79l-6.84-9.81h-2.15v-4.44Z"/><path class="uuid-eb345933-0dd8-42ef-beda-68a4a80483f2" d="M111.26,238.33c-.6-.86-1.15-1.47-1.63-1.83-.48-.36-1.01-.62-1.56-.77-.56-.16-1.15-.23-1.76-.23-.9,0-1.74.2-2.52.6s-1.44.95-2.01,1.65-1.01,1.5-1.33,2.42-.48,1.9-.48,2.93.16,2.02.48,2.94c.32.92.76,1.72,1.31,2.41.56.69,1.23,1.23,2,1.64s1.62.6,2.55.6c.65,0,1.25-.1,1.81-.31.56-.21,1.07-.49,1.52-.83.46-.34.86-.74,1.2-1.19.34-.45.61-.91.81-1.4l5.19,1.45c-.33,1.05-.82,2.03-1.47,2.93s-1.42,1.67-2.33,2.33c-.91.66-1.93,1.17-3.06,1.55-1.13.38-2.36.56-3.67.56-1.11,0-2.17-.15-3.18-.45-1.01-.3-1.95-.73-2.83-1.27-.88-.55-1.67-1.21-2.39-1.98-.72-.77-1.33-1.63-1.83-2.57-.51-.94-.9-1.95-1.18-3.03-.28-1.08-.42-2.21-.42-3.38,0-1.75.31-3.4.92-4.93s1.45-2.87,2.52-4.02,2.31-2.05,3.75-2.71,2.98-.99,4.64-.99c1.32,0,2.44.16,3.34.49.9.33,1.9.98,2.98,1.94h3.61v5.45h-4.98Z"/><path class="uuid-eb345933-0dd8-42ef-beda-68a4a80483f2" d="M120.31,230.9h10.47v4.44h-2.58v15.6h5.32c.14,0,.28-.04.41-.12.13-.08.25-.19.35-.31.1-.13.19-.27.25-.42s.1-.3.1-.44v-3.27h5.23v8.98h-19.55v-4.42h2.53v-15.6h-2.53v-4.44Z"/><path class="uuid-eb345933-0dd8-42ef-beda-68a4a80483f2" d="M142.02,230.9h19.45v8.34h-5.26v-3.47h-6.27v4.82h4.85v4.68h-4.85v5.66h6.27v-4.34h5.26v8.76h-19.45v-4.42h2.56v-15.16h-2.56v-4.87Z"/><path class="uuid-eb345933-0dd8-42ef-beda-68a4a80483f2" d="M170.89,230.9h18.92v8.34h-5.24v-3.44h-5.79v5.15h5.02v4.69h-5.02v5.29h2.58v4.42h-10.47v-4.42h2.53v-15.13h-2.53v-4.9Z"/><path class="uuid-eb345933-0dd8-42ef-beda-68a4a80483f2" d="M202.7,255.79c-1.11,0-2.17-.15-3.18-.45-1.01-.3-1.95-.73-2.83-1.27s-1.67-1.21-2.39-1.98-1.33-1.62-1.83-2.56-.9-1.95-1.18-3.02-.42-2.2-.42-3.37.14-2.3.42-3.38.67-2.09,1.18-3.03c.51-.94,1.12-1.8,1.83-2.56.72-.77,1.51-1.43,2.39-1.98s1.82-.97,2.83-1.27c1.01-.3,2.07-.45,3.18-.45s2.17.15,3.19.45c1.02.3,1.96.73,2.84,1.27s1.67,1.21,2.39,1.98c.72.77,1.33,1.62,1.84,2.56.51.94.91,1.95,1.19,3.03s.42,2.21.42,3.38-.14,2.28-.42,3.36-.67,2.09-1.19,3.03-1.12,1.8-1.84,2.56-1.51,1.43-2.39,1.98-1.82.97-2.84,1.27c-1.02.3-2.08.45-3.19.45ZM202.7,250.72c.94,0,1.79-.2,2.57-.6.78-.4,1.45-.95,2.01-1.65s.99-1.5,1.3-2.42.46-1.9.46-2.93-.16-2.03-.47-2.95c-.31-.92-.75-1.73-1.31-2.43s-1.23-1.24-2.01-1.65c-.77-.4-1.62-.6-2.55-.6s-1.77.2-2.55.6-1.44.95-2,1.65-1,1.5-1.31,2.43c-.32.93-.48,1.91-.48,2.95s.16,2.01.48,2.93.76,1.73,1.31,2.42,1.23,1.24,2,1.65,1.62.6,2.55.6Z"/><path class="uuid-eb345933-0dd8-42ef-beda-68a4a80483f2" d="M217.76,230.9h12.94c1.26,0,2.38.19,3.37.56.99.38,1.82.88,2.5,1.51s1.2,1.36,1.56,2.19c.36.83.54,1.7.54,2.6,0,.83-.09,1.55-.27,2.18-.18.62-.44,1.18-.77,1.66s-.76.91-1.25,1.28-1.06.71-1.69,1.01c.55.28,1.03.71,1.45,1.28s.74,1.32.95,2.23l.82,3.18h2.02l.03,4.76h-7.1l-.97-5.81c-.1-.69-.24-1.28-.44-1.78s-.47-.91-.8-1.23-.74-.55-1.22-.7-1.05-.23-1.7-.23h-2.08v5.32h2.24v4.42h-10.13v-4.42h2.53v-15.6h-2.53v-4.44ZM225.65,235.33v5.92h3.21c.61,0,1.16-.06,1.65-.17s.91-.29,1.26-.53.62-.55.81-.91c.19-.37.28-.8.28-1.31,0-.95-.34-1.68-1.02-2.21-.68-.53-1.67-.79-2.98-.79h-3.21Z"/><path class="uuid-eb345933-0dd8-42ef-beda-68a4a80483f2" d="M260.17,255.35v-4.19c-.67,1.17-1.32,2.03-1.95,2.58s-1.35.99-2.15,1.32c-.8.33-1.87.49-3.22.48-.67-.01-1.33-.09-2-.23s-1.31-.35-1.94-.61-1.23-.58-1.83-.95-1.14-.8-1.62-1.28c-1.19-1.2-2.12-2.6-2.78-4.19s-.99-3.31-.99-5.19c0-1.15.14-2.26.42-3.34.28-1.08.67-2.08,1.18-3.02s1.12-1.79,1.83-2.56c.72-.77,1.51-1.43,2.39-1.98s1.82-.97,2.83-1.27c1.01-.3,2.07-.45,3.18-.45,1.27,0,2.37.17,3.31.51s1.94.97,3.02,1.9h3.61v5.45h-4.98c-.49-.76-.96-1.32-1.4-1.66-.44-.34-.91-.63-1.42-.85s-1.22-.34-2.14-.34-1.74.2-2.52.61c-.77.41-1.44.96-2.01,1.65s-1.01,1.51-1.33,2.45c-.32.94-.48,1.91-.48,2.9s.15,1.91.44,2.79.73,1.67,1.32,2.38,1.28,1.24,2.06,1.62,1.62.56,2.52.56c1.14,0,2.13-.33,2.98-1s1.46-1.58,1.84-2.73h-4.66v-4.42h11.32v13.05h-4.82Z"/><path class="uuid-eb345933-0dd8-42ef-beda-68a4a80483f2" d="M268.83,230.9h10.47v4.42h-2.58v15.61h2.58v4.42h-10.47v-4.42h2.53v-15.61h-2.53v-4.42Z"/><path class="uuid-eb345933-0dd8-42ef-beda-68a4a80483f2" d="M292.96,255.79c-1.11,0-2.17-.15-3.18-.45-1.01-.3-1.95-.73-2.83-1.27s-1.67-1.21-2.39-1.98-1.33-1.62-1.83-2.56-.9-1.95-1.18-3.02-.42-2.2-.42-3.37.14-2.3.42-3.38.67-2.09,1.18-3.03c.51-.94,1.12-1.8,1.83-2.56.72-.77,1.51-1.43,2.39-1.98s1.82-.97,2.83-1.27c1.01-.3,2.07-.45,3.18-.45s2.17.15,3.19.45c1.02.3,1.96.73,2.84,1.27s1.67,1.21,2.39,1.98c.72.77,1.33,1.62,1.84,2.56.51.94.91,1.95,1.19,3.03s.42,2.21.42,3.38-.14,2.28-.42,3.36-.67,2.09-1.19,3.03-1.12,1.8-1.84,2.56-1.51,1.43-2.39,1.98-1.82.97-2.84,1.27c-1.02.3-2.08.45-3.19.45ZM292.96,250.72c.94,0,1.79-.2,2.57-.6s1.45-.95,2.01-1.65.99-1.5,1.3-2.42.46-1.9.46-2.93-.16-2.03-.47-2.95c-.31-.92-.75-1.73-1.31-2.43s-1.23-1.24-2.01-1.65-1.62-.6-2.55-.6-1.77.2-2.55.6-1.44.95-2,1.65-1,1.5-1.31,2.43c-.32.93-.48,1.91-.48,2.95s.16,2.01.48,2.93.76,1.73,1.31,2.42,1.23,1.24,2,1.65,1.62.6,2.55.6Z"/><path class="uuid-eb345933-0dd8-42ef-beda-68a4a80483f2" d="M323.47,230.9h9.29v4.44h-1.98v20.02h-5.35l-10.18-15.81v11.39h2.05v4.42h-9.27v-4.42h2.02v-15.6h-1.98v-4.44h7.39l10.11,16.02v-11.58h-2.08v-4.44Z"/><path class="uuid-eb345933-0dd8-42ef-beda-68a4a80483f2" d="M131.56,213.55c-13.51-.03-27.03-.06-40.54-.09-.57,0-1.39.27-.91.92s1.83.82,2.57.82c13.51.03,27.03.06,40.54.09.57,0,1.39-.27.91-.92s-1.83-.82-2.57-.82h0Z"/><path class="uuid-eb345933-0dd8-42ef-beda-68a4a80483f2" d="M226.26,136.14c2.07-1.69,4.1-3.41,6.3-4.92.1-.07.2-.14.3-.21.43,2.16.93,4.3,1.45,6.44,1.47,6.01,3.35,11.89,5.49,17.69,2.17,5.86,4.78,11.56,7.95,16.94,1.68,2.86,3.51,5.65,5.55,8.27.93,1.19,1.91,2.32,2.94,3.42.3.33.61.65.93.96.71.72,1.42,1.53,2.32,2-.13-.07-.99-1.85-1.3-2.29-1.01-1.43-2.1-2.8-3.09-4.25-4.61-6.77-7.94-14.13-10.91-21.74-2.33-5.96-4.41-12.04-6.14-18.2-.81-2.9-1.56-5.82-2.26-8.75-.18-.73-.35-1.46-.52-2.19-.05-.22-.1-.43-.15-.65-.11-.5-.23-1-.34-1.5-.06-.28-.12-.56-.18-.84-.29-1.37-.57-2.74-.81-4.13-.42-2.39-.78-4.8-1.02-7.22,3.03-.23,6.05-.47,9.07-.71,2.4-.19,4.8-.4,7.21-.61,1.14-.1,2.27-.21,3.41-.32.26,1.34.37,2.71.27,4.07-.13,1.37-.52,2.68-.99,3.96-.69,1.9-1.77,3.62-2.97,5.24-.69.95-1.33,1.96-2.24,2.7-.64.46,2.06,3.14,2.59,3.27.13.03.18.05.27-.08.24-.34.36-.76.63-1.08,2.18-2.69,3.96-5.78,4.34-9.28.51-2.97.02-6.03-.94-8.89,0-.01,0-.02-.01-.04-.09-.27-.19-.55-.29-.82-.03-.08-.06-.17-.1-.25-.11-.28-.22-.56-.33-.83-.04-.07-.08-.15-.12-.22-.19.02-.38.04-.57.06-.03,0-.07,0-.1.01-2.37.26-4.74.55-7.1.85-2.34.3-4.69.59-7.03.91-1.71.24-3.42.45-5.13.67-.52.07-1.03.13-1.55.21,0,.44,0,.87.02,1.31.03,1.6.12,3.21.24,4.81-2.61-.14-5.21-.17-7.82-.06-5.91.25-11.78,1.09-17.57,2.31-5.92,1.25-11.75,2.86-17.45,4.88-5.64,2-11.1,4.51-16.34,7.39-1.36.75-2.7,1.52-4.03,2.31-2.08-4.77-4.18-9.53-6.3-14.29-1.22-2.73-2.42-5.48-3.6-8.23-.99-2.3-1.99-4.6-2.96-6.91.12.02.24.05.37.07,3.26.42,6.77.49,9.75-1.11.68-.34,1.3-.8,1.67-1.47.52-.85.74-1.91.92-2.88.17-.96.33-1.95.21-2.93-.04-.29-.18-.7-.52-.76-.6-.07-1.21.13-1.8.24-2.04.39-4.12.41-6.16.8-1.54.26-3.05.67-4.55,1.06-1.54.38-3.04.91-4.6,1.22-1.66.31-3.38.4-5.07.35-.88-.03-1.86-.06-2.66-.47,0-.09-.03-.15-.12-.13-.13,0-.15.08-.2.2-.49,1.11.06,1.88.99,2.47.99.7,2.13,1.14,3.29,1.48,2.5.69,5.06,1.21,7.61,1.7.7,1.78,1.39,3.56,2.1,5.34,2.04,5.16,3.98,10.35,5.97,15.53,1.26,3.28,2.53,6.56,3.81,9.84-.55.34-1.1.68-1.65,1.03-2.49,1.57-4.93,3.24-7.36,4.92-4.74,3.28-9.25,6.9-13.36,10.96-2.1,2.08-4.02,4.31-5.91,6.58-1.9,2.28-3.63,4.68-5.3,7.13-2.7,3.98-5.32,8.22-7.45,12.52-.56,1.13.31,3.24,1.18,1.48.11-.22.22-.43.33-.65.23-.44.47-.87.71-1.3.55-.96,1.13-1.9,1.73-2.82,1.6-2.42,3.39-4.71,5.29-6.9,1.9-2.18,3.95-4.25,6.03-6.27,2.07-2,4.23-3.92,6.42-5.79,2.23-1.91,4.45-3.82,6.73-5.66,2.21-1.78,4.46-3.52,6.75-5.18,2.4-1.75,4.89-3.36,7.43-4.9.11-.07.22-.13.33-.2.16.41.32.82.48,1.23,2.19,5.62,4.48,11.2,6.75,16.78,2.29,5.62,4.67,11.2,6.99,16.81,1.11,2.7,2.22,5.39,3.33,8.09,0,0,0,.02.01.03.25-.54.52-1.08.78-1.61,1.36-2.73,2.85-5.38,4.45-7.97,3.2-5.19,6.87-10.08,10.62-14.88,3.64-4.67,7.57-9.13,11.71-13.36,4.08-4.16,8.39-8.1,12.91-11.79ZM197.29,161.99c-1.79,2.54-3.45,5.16-5.06,7.81-1.55,2.54-3.01,5.13-4.38,7.77-.55,1.06-1.08,2.13-1.59,3.21-1.02-2.61-2.04-5.22-3.05-7.83-2.2-5.66-4.44-11.29-6.76-16.9-1.17-2.82-2.36-5.63-3.55-8.45-.85-2.01-1.73-4-2.6-6,4.33-2.5,8.79-4.78,13.33-6.88,5.44-2.52,10.97-4.85,16.64-6.78,5.45-1.85,11.05-3.29,16.74-4.17,4.83-.75,9.73-1.17,14.63-1.1.14,1.37.32,2.75.52,4.11-.58.34-1.14.71-1.71,1.07-1.09.7-2.16,1.45-3.22,2.19-1.12.78-2.22,1.6-3.29,2.45-1.11.89-2.18,1.83-3.24,2.78-4.31,3.86-8.28,8.06-12.09,12.41-4,4.57-7.8,9.33-11.3,14.29Z"/><path class="uuid-eb345933-0dd8-42ef-beda-68a4a80483f2" d="M169.84,200.27c.07-.24-.1-.52-.19-.66-.2-.32-.29-.44-.38-.57-.23-.34-.24-.32-.51-.63-.53-.63-1.12-1.27-1.8-1.73-.23-.15-.54-.44-.74-.09-.26.46-.39.89-.75,1.3-1.24,1.4-2.57,2.74-3.93,4.02-2.05,1.93-4.26,3.68-6.69,5.11-5.36,3.17-11.49,5.11-17.7,5.49-3.45.21-6.91-.03-10.31-.68-3.43-.66-6.72-1.8-9.87-3.28-1.56-.73-3.07-1.61-4.51-2.56-1.46-.97-2.88-2.03-4.18-3.21-1.41-1.27-2.74-2.64-3.92-4.13-1.15-1.46-2.19-3-3.11-4.61-1.76-3.06-3.1-6.37-4-9.78-.96-3.63-1.4-7.38-1.36-11.13.07-6.94,1.92-13.95,5.41-19.95,1.73-2.98,3.8-5.72,6.2-8.19,2.38-2.45,5.09-4.64,8.01-6.42,2.74-1.66,5.66-3.04,8.73-3.98,2.89-.89,5.84-1.51,8.85-1.79,1.42-.13,2.85-.19,4.28-.16.32,0,.64.01.96.03.1,0,.2,0,.3.01.04,0,.22.05.26.02.1-.1-.19-.44-.25-.5-.17-.21-.36-.42-.57-.59-.12-.1-.21-.14-.37-.14-.1,0-.2,0-.3-.01-2.82-.14-5.67-.05-8.47.38-6.34.97-12.46,3.45-17.71,7.14-2.88,2.03-5.46,4.43-7.73,7.12-2.18,2.58-3.99,5.46-5.49,8.49-.73,1.47-1.35,3-1.88,4.55-.55,1.63-1.03,3.28-1.38,4.96-.71,3.47-.98,7.01-.78,10.56.42,7.13,2.73,14.19,6.68,20.15,4.13,6.24,9.62,11.63,16.17,15.28,3.08,1.72,6.36,3.07,9.77,3.97,3.27.86,6.68,1.36,10.07,1.37.07,0,.15,0,.22,0,1.7,0,3.4-.09,5.08-.28,3.12-.37,6.22-1.04,9.19-2.07,2.81-.97,5.5-2.27,8.05-3.81,2.44-1.47,4.81-3.13,6.88-5.09.61-.58,1.22-1.14,1.78-1.77"/><path class="uuid-eb345933-0dd8-42ef-beda-68a4a80483f2" d="M291.49,167.98c-.46-3.23-1.32-6.42-2.54-9.45-2.23-5.55-5.73-10.49-9.87-14.78-.54-.56-1.08-1.13-1.7-1.6-.14-.1-.76-.56-.67-.08.04.21.17.42.28.6.17.29.38.57.59.83.37.45.76.86,1.15,1.29.26.28.52.56.77.84.3.34.57.7.84,1.07.78,1.04,1.53,2.09,2.21,3.2.74,1.22,1.44,2.47,2.05,3.77.67,1.42,1.28,2.87,1.8,4.35.59,1.69,1.06,3.42,1.43,5.17.73,3.48,1.03,7.03.92,10.59-.1,3.36-.71,6.73-1.73,9.93-.52,1.64-1.12,3.27-1.86,4.83-.71,1.52-1.48,3.02-2.38,4.44-.93,1.46-1.91,2.87-2.99,4.23-1.05,1.32-2.21,2.55-3.41,3.73-1.19,1.18-2.49,2.24-3.82,3.26-1.3,1-2.7,1.92-4.13,2.73-1.5.85-3.02,1.63-4.6,2.31-1.6.7-3.24,1.27-4.91,1.77-3.2.96-6.54,1.51-9.88,1.68-6.86.34-13.8-1.14-19.9-4.31-3.1-1.61-5.98-3.62-8.55-5.99-2.33-2.15-4.34-4.63-6.02-7.32-2.93-4.7-4.81-10.02-5.82-15.45-.22-1.21-.38-2.42-.54-3.64-.02-.19-.05-.38-.08-.56-.02-.09-.04-.18-.05-.27-.01-.11,0-.22-.05-.33-.05-.1-.54-.77-.66-.63-.03.04,0,.28,0,.34,0,.09-.02.19-.02.28-.04,1.03.07,2.06.17,3.08.12,1.24.32,2.48.59,3.7.59,2.66,1.45,5.23,2.58,7.71,1.24,2.72,2.78,5.29,4.55,7.71,4.02,5.51,9.28,10.1,15.3,13.32,3.11,1.66,6.42,2.89,9.82,3.77,1.77.46,3.57.78,5.38.99,1.59.19,3.21.31,4.81.31.08,0,.17,0,.25,0,1.7-.03,3.38-.09,5.07-.29,1.72-.2,3.42-.55,5.1-.96,1.53-.38,3.05-.88,4.52-1.46,1.56-.62,3.09-1.31,4.56-2.12,5.91-3.26,11.04-7.92,14.75-13.57,1.85-2.81,3.38-5.84,4.49-9.02,1.12-3.19,1.87-6.49,2.26-9.85.39-3.37.39-6.78-.09-10.14Z"/><path class="uuid-eb345933-0dd8-42ef-beda-68a4a80483f2" d="M90.63,161.27c-9.71-.02-19.43-.04-29.14-.07-.55,0-1.34.26-.87.89s1.76.79,2.48.79c9.71.02,19.43.04,29.14.07.55,0,1.34-.26.87-.89s-1.76-.79-2.48-.79h0Z"/><path class="uuid-eb345933-0dd8-42ef-beda-68a4a80483f2" d="M77.26,168.88c-8.53-.02-17.07-.04-25.6-.06-.55,0-1.34.26-.87.89s1.76.79,2.48.79c8.53.02,17.07.04,25.6.06.55,0,1.34-.26.87-.89s-1.76-.79-2.48-.79h0Z"/><path class="uuid-eb345933-0dd8-42ef-beda-68a4a80483f2" d="M87.08,176.58c-7.54-.02-15.07-.03-22.61-.05-.53,0-1.3.25-.85.86s1.71.76,2.4.76c7.54.02,15.07.03,22.61.05.53,0,1.3-.25.85-.86s-1.71-.76-2.4-.76h0Z"/><path class="uuid-eb345933-0dd8-42ef-beda-68a4a80483f2" d="M88.76,152.2h-4.91c-.26-.01-.75.05-.94.26-.18.2-.1.44.07.62.6.61,1.66.79,2.48.79,1.64,0,3.27,0,4.91.01.26,0,.75-.06.94-.27.18-.2.1-.44-.07-.62-.6-.61-1.66-.79-2.48-.79h0Z"/><path class="uuid-eb345933-0dd8-42ef-beda-68a4a80483f2" d="M284.35,169.03c-.38-2.68-1.09-5.33-2.11-7.85-1.86-4.61-4.76-8.71-8.19-12.28-.45-.47-.89-.94-1.41-1.33-.11-.09-.63-.47-.56-.06.03.17.15.35.23.5.14.24.31.47.49.69.31.37.63.72.95,1.07.21.23.43.46.64.7.25.28.47.59.7.89.65.86,1.27,1.74,1.84,2.66.62,1.01,1.19,2.05,1.7,3.13.56,1.18,1.06,2.38,1.49,3.62.49,1.4.88,2.84,1.19,4.29.61,2.89.85,5.84.77,8.79-.08,2.79-.59,5.59-1.43,8.25-.43,1.36-.93,2.71-1.54,4.01-.59,1.26-1.23,2.51-1.98,3.69-.77,1.21-1.59,2.39-2.49,3.51-.88,1.1-1.83,2.12-2.83,3.1-.99.98-2.07,1.86-3.17,2.71-1.08.83-2.24,1.6-3.43,2.27-1.25.7-2.51,1.35-3.82,1.92-1.33.58-2.69,1.05-4.08,1.47-2.66.8-5.43,1.26-8.2,1.39-5.69.29-11.46-.95-16.53-3.58-2.58-1.34-4.96-3-7.1-4.98-1.93-1.79-3.61-3.85-5-6.08-2.44-3.9-4-8.32-4.83-12.83-.19-1-.32-2.01-.45-3.03-.02-.16-.04-.31-.07-.47-.01-.08-.03-.15-.04-.23,0-.09,0-.19-.04-.27-.04-.08-.45-.64-.55-.52-.03.03,0,.24,0,.28,0,.08-.02.15-.02.23-.04.85.05,1.71.14,2.56.1,1.03.26,2.06.49,3.08.49,2.21,1.2,4.35,2.14,6.41,1.03,2.26,2.31,4.4,3.78,6.4,3.34,4.58,7.71,8.39,12.7,11.06,2.58,1.38,5.33,2.4,8.16,3.13,1.47.38,2.97.64,4.47.83,1.32.16,2.66.26,4,.26.07,0,.14,0,.21,0,1.41-.03,2.81-.08,4.21-.24,1.43-.17,2.84-.45,4.24-.8,1.27-.31,2.53-.73,3.75-1.21,1.29-.51,2.57-1.08,3.79-1.76,4.91-2.71,9.17-6.58,12.25-11.27,1.53-2.33,2.8-4.85,3.73-7.49.93-2.65,1.55-5.39,1.87-8.18.33-2.8.32-5.63-.07-8.42Z"/><path class="uuid-eb345933-0dd8-42ef-beda-68a4a80483f2" d="M137.84,136.86c.25.97.57,2.34.22,3.31-.04.11-.1.23-.21.27-.11.04-.24,0-.35-.05-.72-.3-1.39-.12-2.38-.14-1.13-.02-2.27.08-3.4.17-2.37.19-4.71.59-6.98,1.3-5.01,1.56-9.69,4.31-13.44,7.99-2.08,2.04-3.89,4.35-5.4,6.84-1.52,2.52-2.67,5.23-3.52,8.04-.42,1.39-.73,2.83-.94,4.27-.22,1.47-.35,2.95-.35,4.43,0,1.6.11,3.21.38,4.79.26,1.54.64,3.07,1.13,4.56.92,2.83,2.24,5.54,3.86,8.03,1.73,2.65,3.83,5.04,6.21,7.14,4.39,3.88,9.82,6.67,15.56,7.88,2.84.6,5.73.85,8.63.75,2.88-.11,5.78-.56,8.55-1.39,2.59-.78,5.11-1.83,7.42-3.22,2.18-1.31,4.25-2.8,6.12-4.53.89-.82,1.73-1.68,2.52-2.59.18-.2.35-.41.52-.61.05-.07.11-.13.16-.2.02-.03.09-.17.14-.17.12,0,.16.37.18.44.04.23.06.46.05.69,0,.13-.03.21-.12.31-.06.06-.11.13-.16.19-1.5,1.85-3.18,3.58-5.02,5.09-4.19,3.42-9.2,5.85-14.48,7.06-2.9.66-5.86.91-8.82.82-2.85-.09-5.67-.59-8.42-1.36-1.33-.38-2.64-.85-3.91-1.39-1.33-.57-2.64-1.21-3.88-1.94-2.58-1.52-4.95-3.35-7.05-5.48-4.23-4.29-7.34-9.73-8.85-15.57-1.57-6.11-1.84-12.6-.43-18.77.66-2.9,1.67-5.72,3.03-8.36,1.31-2.53,2.92-4.95,4.83-7.08.04-.05.08-.09.12-.14.96-1.07,1.97-2.08,3.05-3.02,1.99-1.75,4.17-3.3,6.49-4.59,2.2-1.21,4.53-2.16,6.93-2.89,2.3-.7,4.67-1.24,7.08-1.43.81-.06,1.63-.1,2.44-.08.59.02,1.03.02,1.71,0,.17,0,.34-.09.49-.02.15.07.22.25.27.42.02.08.04.15.06.23Z"/><path class="uuid-eb345933-0dd8-42ef-beda-68a4a80483f2" d="M192.46,180.9c0,3.12-2.63,5.73-5.87,5.83s-5.85-2.34-5.85-5.45,2.62-5.72,5.85-5.83c3.24-.11,5.87,2.33,5.87,5.45Z"/><path class="uuid-eb345933-0dd8-42ef-beda-68a4a80483f2" d="M174.28,269.66c.99-.02,1.96.83,3.15.89,1.28.06,1.82-.45,2.88-.78,2.67-.83,3.93,2.96,1.6,3.99-1.46.65-2.94-.88-4.76-.68-1.39.16-2.7,1.51-4.09.48-1.66-1.22-.84-3.87,1.21-3.91ZM174.07,270.84c-1,.18-.98,1.81.06,1.95,1.62.22,1.57-2.25-.06-1.95ZM180.68,270.84c-.97.22-.89,1.86.2,1.95,1.58.14,1.44-2.33-.2-1.95Z"/><path class="uuid-eb345933-0dd8-42ef-beda-68a4a80483f2" d="M180.98,269.67c.99-.02,1.96.83,3.15.89,1.28.06,1.82-.45,2.88-.78,2.67-.83,3.93,2.96,1.6,3.99-1.46.65-2.94-.88-4.76-.68-1.39.16-2.7,1.51-4.09.48-1.66-1.22-.84-3.87,1.21-3.91ZM180.77,270.85c-1,.18-.98,1.81.06,1.95,1.62.22,1.57-2.25-.06-1.95ZM187.38,270.85c-.97.22-.89,1.86.2,1.95,1.58.14,1.44-2.33-.2-1.95Z"/><path class="uuid-eb345933-0dd8-42ef-beda-68a4a80483f2" d="M187.61,269.67c.99-.02,1.96.83,3.15.89,1.28.06,1.82-.45,2.88-.78,2.67-.83,3.93,2.96,1.6,3.99-1.46.65-2.94-.88-4.76-.68-1.39.16-2.7,1.51-4.09.48-1.66-1.22-.84-3.87,1.21-3.91ZM187.41,270.86c-1,.18-.98,1.81.06,1.95,1.62.22,1.57-2.25-.06-1.95ZM194.02,270.86c-.97.22-.89,1.86.2,1.95,1.58.14,1.44-2.33-.2-1.95Z"/><path class="uuid-eb345933-0dd8-42ef-beda-68a4a80483f2" d="M194.32,269.68c.99-.02,1.96.83,3.15.89,1.28.06,1.82-.45,2.88-.78,2.67-.83,3.93,2.96,1.6,3.99-1.46.65-2.94-.88-4.76-.68-1.39.16-2.7,1.51-4.09.48-1.66-1.22-.84-3.87,1.21-3.91ZM194.11,270.87c-1,.18-.98,1.81.06,1.95,1.62.22,1.57-2.25-.06-1.95ZM200.72,270.87c-.97.22-.89,1.86.2,1.95,1.58.14,1.44-2.33-.2-1.95Z"/></svg>