<?xml version="1.0" encoding="UTF-8"?><svg id="uuid-0a0561ef-4242-4f0b-b011-b9a3487c370f" xmlns="http://www.w3.org/2000/svg" viewBox="0 0 630.7 299.77"><defs><style>.uuid-cda44b05-ca09-4e02-885f-4e65e4f64015{fill:#fff;}</style></defs><path class="uuid-cda44b05-ca09-4e02-885f-4e65e4f64015" d="M45.56,216.8c-1.28-1.82-2.43-3.12-3.45-3.88-1.03-.76-2.13-1.31-3.32-1.64-1.19-.33-2.43-.5-3.73-.5-1.91,0-3.69.43-5.33,1.28s-3.06,2.02-4.26,3.49-2.14,3.18-2.82,5.13-1.03,4.02-1.03,6.21.34,4.29,1.01,6.24c.67,1.95,1.6,3.65,2.79,5.11,1.18,1.46,2.6,2.62,4.24,3.47s3.44,1.28,5.4,1.28c1.37,0,2.64-.22,3.83-.67,1.18-.44,2.26-1.03,3.23-1.76.97-.73,1.82-1.57,2.55-2.51.73-.95,1.3-1.93,1.71-2.96l11.01,3.08c-.71,2.23-1.74,4.3-3.11,6.21s-3.01,3.55-4.94,4.94c-1.93,1.39-4.09,2.48-6.5,3.28-2.41.8-5,1.2-7.78,1.2-2.35,0-4.59-.32-6.73-.96-2.14-.64-4.14-1.54-6-2.7-1.86-1.16-3.54-2.56-5.06-4.21-1.52-1.64-2.81-3.46-3.88-5.45-1.07-1.99-1.9-4.14-2.5-6.43-.59-2.29-.89-4.68-.89-7.16,0-3.71.65-7.2,1.95-10.44s3.08-6.09,5.33-8.51,4.91-4.34,7.95-5.74,6.32-2.1,9.83-2.1c2.8,0,5.16.35,7.08,1.04,1.91.7,4.02,2.07,6.32,4.12h7.66v11.56h-10.56Z"/><path class="uuid-cda44b05-ca09-4e02-885f-4e65e4f64015" d="M62.48,201.03h22.19v9.4h-4.34l6.94,11.9,7.35-11.9h-4.96v-9.4h22.19v9.4h-3.83l-15.42,20.92v12.14h6.29v9.37h-23.11v-9.37h5.74v-12.27l-14.5-20.79h-4.55v-9.4Z"/><path class="uuid-cda44b05-ca09-4e02-885f-4e65e4f64015" d="M151.2,216.8c-1.28-1.82-2.43-3.12-3.45-3.88-1.03-.76-2.13-1.31-3.32-1.64-1.19-.33-2.43-.5-3.73-.5-1.91,0-3.69.43-5.33,1.28s-3.06,2.02-4.26,3.49-2.14,3.18-2.82,5.13-1.03,4.02-1.03,6.21.34,4.29,1.01,6.24c.67,1.95,1.6,3.65,2.79,5.11,1.18,1.46,2.6,2.62,4.24,3.47s3.44,1.28,5.4,1.28c1.37,0,2.64-.22,3.83-.67,1.18-.44,2.26-1.03,3.23-1.76.97-.73,1.82-1.57,2.55-2.51.73-.95,1.3-1.93,1.71-2.96l11.01,3.08c-.71,2.23-1.74,4.3-3.11,6.21s-3.01,3.55-4.94,4.94c-1.93,1.39-4.09,2.48-6.5,3.28-2.41.8-5,1.2-7.78,1.2-2.35,0-4.59-.32-6.73-.96-2.14-.64-4.14-1.54-6-2.7-1.86-1.16-3.54-2.56-5.06-4.21-1.52-1.64-2.81-3.46-3.88-5.45-1.07-1.99-1.9-4.14-2.5-6.43-.59-2.29-.89-4.68-.89-7.16,0-3.71.65-7.2,1.95-10.44s3.08-6.09,5.33-8.51,4.91-4.34,7.95-5.74,6.32-2.1,9.83-2.1c2.8,0,5.16.35,7.08,1.04,1.91.7,4.02,2.07,6.32,4.12h7.66v11.56h-10.56Z"/><path class="uuid-cda44b05-ca09-4e02-885f-4e65e4f64015" d="M170.37,201.03h22.19v9.4h-5.47v33.06h11.28c.3,0,.59-.09.87-.26.28-.17.54-.39.75-.67.22-.27.39-.57.53-.89s.21-.63.21-.92v-6.94h11.08v19.04h-41.44v-9.37h5.37v-33.06h-5.37v-9.4Z"/><path class="uuid-cda44b05-ca09-4e02-885f-4e65e4f64015" d="M216.39,201.03h41.23v17.68h-11.15v-7.35h-13.3v10.22h10.29v9.92h-10.29v12h13.3v-9.2h11.15v18.56h-41.23v-9.37h5.44v-32.14h-5.44v-10.32Z"/><path class="uuid-cda44b05-ca09-4e02-885f-4e65e4f64015" d="M277.59,201.03h40.1v17.68h-11.11v-7.28h-12.27v10.91h10.63v9.95h-10.63v11.21h5.47v9.37h-22.19v-9.37h5.37v-32.07h-5.37v-10.39Z"/><path class="uuid-cda44b05-ca09-4e02-885f-4e65e4f64015" d="M345.01,253.79c-2.35,0-4.59-.32-6.73-.96-2.14-.64-4.14-1.54-6-2.7s-3.54-2.56-5.06-4.19-2.81-3.44-3.88-5.44-1.9-4.13-2.5-6.41-.89-4.66-.89-7.15.3-4.87.89-7.16,1.42-4.43,2.5-6.43c1.07-1.99,2.36-3.81,3.88-5.44,1.52-1.63,3.2-3.03,5.06-4.19s3.86-2.06,6-2.7c2.14-.64,4.39-.96,6.73-.96s4.6.32,6.75.96c2.15.64,4.16,1.54,6.02,2.7s3.54,2.56,5.06,4.19c1.52,1.63,2.81,3.44,3.9,5.44,1.08,1.99,1.92,4.14,2.51,6.43s.89,4.68.89,7.16-.3,4.84-.89,7.13-1.43,4.43-2.51,6.43-2.38,3.81-3.9,5.44-3.2,3.03-5.06,4.19-3.86,2.06-6.02,2.7c-2.15.64-4.41.96-6.75.96ZM345.01,243.05c1.98,0,3.8-.43,5.45-1.28,1.65-.85,3.07-2.02,4.26-3.49s2.1-3.18,2.75-5.13.97-4.02.97-6.21-.33-4.3-.99-6.26c-.66-1.96-1.59-3.68-2.79-5.15s-2.62-2.63-4.26-3.49c-1.64-.85-3.44-1.28-5.4-1.28s-3.76.43-5.4,1.28-3.05,2.02-4.24,3.49-2.11,3.19-2.79,5.15c-.67,1.96-1.01,4.05-1.01,6.26s.34,4.26,1.01,6.21,1.6,3.66,2.79,5.13,2.6,2.63,4.24,3.49,3.44,1.28,5.4,1.28Z"/><path class="uuid-cda44b05-ca09-4e02-885f-4e65e4f64015" d="M376.94,201.03h27.42c2.67,0,5.05.4,7.15,1.2,2.1.8,3.86,1.86,5.3,3.2s2.54,2.88,3.3,4.65c.76,1.77,1.15,3.61,1.15,5.52,0,1.76-.19,3.29-.56,4.62-.38,1.32-.92,2.5-1.64,3.52s-1.6,1.93-2.65,2.72-2.24,1.5-3.59,2.14c1.16.59,2.19,1.5,3.08,2.72s1.56,2.8,2.02,4.74l1.74,6.73h4.27l.07,10.09h-15.04l-2.05-12.31c-.21-1.46-.52-2.72-.94-3.78s-.99-1.93-1.69-2.6-1.57-1.17-2.58-1.49-2.22-.48-3.61-.48h-4.41v11.28h4.75v9.37h-21.47v-9.37h5.37v-33.06h-5.37v-9.4ZM393.66,210.44v12.55h6.8c1.3,0,2.47-.12,3.5-.36s1.93-.62,2.67-1.13,1.31-1.16,1.71-1.93c.4-.77.6-1.7.6-2.77,0-2.01-.72-3.57-2.15-4.68-1.44-1.12-3.54-1.68-6.32-1.68h-6.8Z"/><path class="uuid-cda44b05-ca09-4e02-885f-4e65e4f64015" d="M466.82,252.86v-8.89c-1.41,2.48-2.79,4.31-4.14,5.47s-2.87,2.1-4.56,2.8c-1.7.71-3.97,1.05-6.82,1.03-1.41-.02-2.83-.19-4.24-.5s-2.78-.74-4.1-1.3-2.62-1.23-3.88-2.02-2.41-1.69-3.44-2.72c-2.53-2.55-4.5-5.51-5.9-8.87s-2.1-7.03-2.1-10.99c0-2.44.3-4.8.89-7.08.59-2.28,1.42-4.41,2.5-6.39s2.36-3.79,3.88-5.42c1.52-1.63,3.2-3.03,5.06-4.19s3.86-2.06,6-2.7c2.14-.64,4.39-.96,6.73-.96,2.69,0,5.03.36,7.01,1.08s4.11,2.06,6.39,4.02h7.66v11.56h-10.56c-1.05-1.62-2.03-2.79-2.96-3.52-.92-.73-1.93-1.33-3.01-1.81s-2.59-.72-4.53-.72-3.69.43-5.33,1.3c-1.64.87-3.06,2.03-4.26,3.5s-2.14,3.2-2.82,5.2c-.68,1.99-1.03,4.04-1.03,6.14s.31,4.05.92,5.92,1.55,3.55,2.8,5.04,2.71,2.64,4.38,3.44,3.44,1.2,5.33,1.2c2.42,0,4.52-.71,6.32-2.12s3.1-3.34,3.9-5.78h-9.88v-9.37h24v27.66h-10.22Z"/><path class="uuid-cda44b05-ca09-4e02-885f-4e65e4f64015" d="M485.18,201.03h22.19v9.37h-5.47v33.09h5.47v9.37h-22.19v-9.37h5.37v-33.09h-5.37v-9.37Z"/><path class="uuid-cda44b05-ca09-4e02-885f-4e65e4f64015" d="M536.32,253.79c-2.35,0-4.59-.32-6.73-.96-2.14-.64-4.14-1.54-6-2.7s-3.54-2.56-5.06-4.19-2.81-3.44-3.88-5.44-1.9-4.13-2.5-6.41-.89-4.66-.89-7.15.3-4.87.89-7.16,1.42-4.43,2.5-6.43c1.07-1.99,2.36-3.81,3.88-5.44,1.52-1.63,3.2-3.03,5.06-4.19s3.86-2.06,6-2.7c2.14-.64,4.39-.96,6.73-.96s4.6.32,6.75.96c2.15.64,4.16,1.54,6.02,2.7s3.54,2.56,5.06,4.19c1.52,1.63,2.81,3.44,3.9,5.44,1.08,1.99,1.92,4.14,2.51,6.43s.89,4.68.89,7.16-.3,4.84-.89,7.13-1.43,4.43-2.51,6.43-2.38,3.81-3.9,5.44-3.2,3.03-5.06,4.19-3.86,2.06-6.02,2.7c-2.15.64-4.4.96-6.75.96ZM536.32,243.05c1.98,0,3.8-.43,5.45-1.28s3.07-2.02,4.26-3.49,2.1-3.18,2.75-5.13.97-4.02.97-6.21-.33-4.3-.99-6.26c-.66-1.96-1.59-3.68-2.79-5.15s-2.62-2.63-4.26-3.49-3.44-1.28-5.4-1.28-3.76.43-5.4,1.28-3.05,2.02-4.24,3.49-2.11,3.19-2.79,5.15c-.67,1.96-1.01,4.05-1.01,6.26s.34,4.26,1.01,6.21,1.6,3.66,2.79,5.13,2.6,2.63,4.24,3.49,3.44,1.28,5.4,1.28Z"/><path class="uuid-cda44b05-ca09-4e02-885f-4e65e4f64015" d="M601,201.03h19.69v9.4h-4.21v42.43h-11.35l-21.57-33.5v24.14h4.34v9.37h-19.66v-9.37h4.27v-33.06h-4.21v-9.4h15.66l21.44,33.95v-24.55h-4.41v-9.4Z"/><path class="uuid-cda44b05-ca09-4e02-885f-4e65e4f64015" d="M240.75,175.88c-19.44-.04-38.87-.09-58.31-.13-.82,0-2,.38-1.31,1.33s2.64,1.18,3.7,1.18l58.31.13c.82,0,2-.38,1.31-1.33s-2.64-1.18-3.7-1.18h0Z"/><path class="uuid-cda44b05-ca09-4e02-885f-4e65e4f64015" d="M376.97,64.54c2.97-2.43,5.9-4.9,9.06-7.08.14-.1.29-.2.43-.3.61,3.11,1.34,6.19,2.09,9.26,2.12,8.64,4.82,17.11,7.9,25.44,3.12,8.43,6.87,16.62,11.44,24.36,2.42,4.11,5.04,8.13,7.98,11.89,1.34,1.71,2.75,3.34,4.23,4.92.44.47.88.93,1.33,1.38,1.02,1.04,2.04,2.21,3.34,2.88-.19-.1-1.43-2.67-1.87-3.29-1.45-2.06-3.03-4.03-4.45-6.12-6.63-9.74-11.42-20.33-15.69-31.27-3.35-8.58-6.34-17.31-8.83-26.18-1.17-4.17-2.24-8.37-3.26-12.58-.25-1.05-.5-2.1-.75-3.15-.07-.31-.14-.62-.21-.93-.16-.72-.33-1.44-.49-2.16-.09-.4-.17-.8-.26-1.21-.42-1.97-.81-3.95-1.16-5.93-.6-3.44-1.13-6.9-1.47-10.38,4.35-.33,8.7-.67,13.05-1.02,3.46-.27,6.91-.58,10.36-.87,1.63-.14,3.27-.3,4.9-.46.37,1.93.53,3.9.39,5.85-.19,1.97-.74,3.85-1.43,5.7-1,2.73-2.54,5.21-4.27,7.54-.99,1.36-1.91,2.81-3.22,3.89-.91.67,2.97,4.52,3.73,4.7.18.04.26.07.39-.11.35-.49.52-1.09.91-1.55,3.13-3.87,5.69-8.31,6.25-13.34.73-4.27.03-8.68-1.36-12.78,0-.02-.01-.03-.02-.05-.13-.4-.28-.79-.42-1.18-.05-.12-.09-.24-.14-.36-.16-.4-.31-.8-.48-1.2-.05-.11-.11-.21-.17-.32-.27.03-.55.06-.82.09-.05,0-.1.01-.15.02-3.41.38-6.81.79-10.22,1.22-3.37.42-6.74.85-10.11,1.31-2.46.34-4.92.65-7.38.97-.74.1-1.49.19-2.23.3,0,.63,0,1.26.02,1.88.05,2.31.17,4.62.35,6.91-3.75-.19-7.5-.24-11.25-.08-8.49.37-16.95,1.57-25.27,3.33-8.51,1.8-16.9,4.11-25.1,7.02-8.12,2.88-15.96,6.48-23.51,10.63-1.95,1.07-3.88,2.18-5.8,3.32-2.99-6.86-6.02-13.71-9.06-20.55-1.75-3.93-3.47-7.88-5.17-11.83-1.42-3.31-2.86-6.62-4.26-9.93.18.03.35.07.53.1,4.69.61,9.75.7,14.03-1.59.97-.49,1.87-1.14,2.4-2.12.74-1.23,1.06-2.75,1.33-4.14.24-1.38.47-2.81.31-4.22-.06-.41-.26-1-.75-1.1-.87-.1-1.74.19-2.6.34-2.93.57-5.93.59-8.86,1.15-2.21.37-4.38.96-6.55,1.53-2.22.54-4.38,1.32-6.62,1.76-2.39.45-4.87.57-7.29.51-1.27-.04-2.68-.09-3.83-.68,0-.13-.04-.22-.18-.18-.18,0-.22.12-.28.28-.7,1.59.09,2.7,1.43,3.56,1.42,1.01,3.07,1.63,4.73,2.12,3.6,1,7.28,1.74,10.95,2.45,1,2.56,2.01,5.13,3.02,7.69,2.93,7.42,5.72,14.89,8.58,22.33,1.81,4.72,3.64,9.43,5.48,14.15-.79.49-1.59.98-2.37,1.48-3.59,2.27-7.09,4.66-10.58,7.08-6.81,4.72-13.31,9.93-19.21,15.76-3.02,2.99-5.79,6.2-8.5,9.46-2.73,3.27-5.23,6.73-7.62,10.26-3.88,5.72-7.65,11.82-10.72,18.02-.81,1.63.45,4.66,1.7,2.13.15-.31.31-.62.47-.93.33-.63.67-1.25,1.02-1.87.78-1.38,1.62-2.74,2.5-4.06,2.3-3.48,4.87-6.78,7.62-9.92,2.74-3.14,5.68-6.11,8.67-9.01,2.98-2.88,6.09-5.63,9.23-8.33,3.2-2.75,6.4-5.5,9.69-8.15,3.17-2.56,6.41-5.06,9.72-7.46,3.46-2.51,7.04-4.84,10.69-7.05.16-.1.32-.19.48-.29.23.59.46,1.18.69,1.77,3.15,8.08,6.44,16.11,9.71,24.14,3.3,8.08,6.72,16.11,10.05,24.18,1.6,3.88,3.2,7.75,4.79,11.64,0,.01.01.03.02.04.37-.78.74-1.55,1.12-2.32,1.95-3.92,4.1-7.74,6.4-11.46,4.61-7.46,9.88-14.49,15.28-21.4,5.24-6.71,10.88-13.13,16.84-19.22,5.86-5.99,12.07-11.65,18.56-16.96ZM335.29,101.72c-2.57,3.65-4.96,7.42-7.29,11.23-2.23,3.65-4.33,7.38-6.3,11.17-.79,1.52-1.56,3.06-2.29,4.62-1.47-3.75-2.93-7.51-4.39-11.26-3.16-8.14-6.38-16.24-9.72-24.3-1.68-4.06-3.39-8.1-5.11-12.15-1.22-2.89-2.48-5.76-3.74-8.63,6.23-3.6,12.64-6.87,19.17-9.9,7.82-3.62,15.77-6.97,23.94-9.75,7.84-2.67,15.89-4.73,24.08-6,6.95-1.07,14-1.68,21.04-1.58.21,1.98.45,3.95.74,5.92-.83.49-1.64,1.02-2.45,1.54-1.57,1.01-3.1,2.08-4.63,3.15-1.61,1.13-3.19,2.3-4.73,3.53-1.6,1.28-3.14,2.64-4.67,4-6.19,5.55-11.91,11.59-17.38,17.85-5.75,6.58-11.22,13.41-16.26,20.56Z"/><path class="uuid-cda44b05-ca09-4e02-885f-4e65e4f64015" d="M295.81,156.77c.1-.34-.14-.75-.27-.95-.29-.46-.42-.63-.55-.83-.33-.49-.35-.46-.73-.91-.76-.91-1.61-1.82-2.59-2.49-.33-.22-.78-.63-1.07-.13-.38.66-.56,1.29-1.08,1.88-1.78,2.01-3.7,3.94-5.65,5.79-2.95,2.78-6.13,5.29-9.62,7.36-7.7,4.56-16.52,7.35-25.46,7.89-4.97.3-9.94-.04-14.83-.97-4.93-.94-9.67-2.59-14.2-4.72-2.25-1.05-4.42-2.31-6.49-3.68-2.11-1.4-4.14-2.92-6.02-4.61-2.03-1.83-3.93-3.8-5.63-5.95-1.66-2.1-3.15-4.31-4.48-6.63-2.53-4.4-4.46-9.16-5.76-14.06-1.38-5.22-2.01-10.61-1.95-16.01.1-9.98,2.77-20.06,7.79-28.7,2.49-4.29,5.46-8.23,8.92-11.78,3.43-3.53,7.32-6.68,11.52-9.23,3.94-2.39,8.15-4.38,12.55-5.73,4.15-1.27,8.4-2.18,12.73-2.57,2.05-.19,4.1-.27,6.16-.24.46,0,.92.02,1.37.04.15,0,.29.01.43.02.06,0,.32.08.37.02.14-.15-.28-.63-.35-.73-.24-.31-.51-.61-.82-.85-.18-.14-.31-.2-.53-.2-.14,0-.29-.01-.43-.02-4.06-.21-8.16-.07-12.18.55-9.12,1.4-17.92,4.97-25.47,10.28-4.15,2.91-7.85,6.37-11.11,10.24-3.14,3.72-5.74,7.86-7.89,12.21-1.04,2.11-1.95,4.31-2.7,6.54-.8,2.34-1.48,4.71-1.98,7.13-1.02,5-1.42,10.09-1.12,15.18.61,10.26,3.93,20.41,9.61,28.98,5.94,8.97,13.84,16.72,23.26,21.98,4.43,2.47,9.15,4.42,14.05,5.71,4.7,1.24,9.61,1.96,14.48,1.97.1,0,.21,0,.31,0,2.44,0,4.89-.12,7.31-.41,4.49-.53,8.94-1.5,13.22-2.98,4.05-1.4,7.91-3.27,11.57-5.48,3.51-2.11,6.91-4.5,9.9-7.32.87-.83,1.76-1.64,2.57-2.54"/><path class="uuid-cda44b05-ca09-4e02-885f-4e65e4f64015" d="M470.79,110.34c-.66-4.65-1.89-9.23-3.65-13.59-3.21-7.98-8.25-15.09-14.19-21.26-.78-.81-1.55-1.63-2.44-2.31-.2-.15-1.1-.81-.97-.11.05.3.25.61.41.86.25.42.54.82.85,1.19.53.64,1.09,1.24,1.65,1.85.37.4.74.8,1.1,1.21.43.49.82,1.01,1.21,1.53,1.13,1.49,2.21,3.01,3.18,4.6,1.07,1.75,2.07,3.56,2.95,5.42.97,2.04,1.84,4.13,2.59,6.26.85,2.43,1.52,4.92,2.05,7.44,1.05,5.01,1.48,10.11,1.33,15.23-.14,4.83-1.03,9.68-2.48,14.28-.75,2.36-1.61,4.7-2.67,6.95-1.03,2.19-2.13,4.35-3.42,6.39-1.34,2.1-2.75,4.13-4.3,6.08-1.52,1.9-3.18,3.66-4.9,5.37-1.71,1.7-3.59,3.23-5.5,4.69-1.88,1.44-3.88,2.77-5.94,3.93-2.16,1.22-4.35,2.34-6.62,3.33-2.3,1-4.66,1.82-7.06,2.54-4.6,1.38-9.41,2.18-14.21,2.42-9.86.49-19.86-1.64-28.62-6.2-4.46-2.32-8.6-5.2-12.29-8.62-3.35-3.1-6.24-6.67-8.66-10.53-4.22-6.76-6.92-14.41-8.37-22.22-.32-1.74-.55-3.49-.78-5.24-.04-.27-.07-.54-.12-.81-.02-.13-.06-.26-.07-.4-.02-.16,0-.32-.07-.47-.07-.15-.78-1.11-.95-.9-.04.05,0,.41,0,.48-.01.14-.03.27-.04.4-.06,1.48.09,2.97.24,4.43.18,1.79.46,3.57.85,5.33.85,3.83,2.08,7.53,3.71,11.1,1.78,3.91,4,7.61,6.54,11.09,5.79,7.93,13.35,14.53,22,19.16,4.47,2.39,9.23,4.16,14.13,5.42,2.54.66,5.14,1.12,7.74,1.43,2.29.28,4.61.44,6.92.45.12,0,.24,0,.36,0,2.44-.04,4.86-.13,7.29-.42,2.47-.29,4.92-.79,7.34-1.38,2.21-.55,4.39-1.26,6.5-2.1,2.24-.89,4.45-1.88,6.56-3.05,8.5-4.69,15.88-11.39,21.22-19.52,2.66-4.04,4.85-8.41,6.45-12.98,1.61-4.59,2.68-9.34,3.25-14.17.56-4.85.56-9.75-.13-14.59Z"/><path class="uuid-cda44b05-ca09-4e02-885f-4e65e4f64015" d="M181.88,100.69c-13.97-.03-27.94-.06-41.92-.1-.79,0-1.93.37-1.26,1.28s2.54,1.13,3.56,1.13c13.97.03,27.94.06,41.92.1.79,0,1.93-.37,1.26-1.28s-2.54-1.13-3.56-1.13h0Z"/><path class="uuid-cda44b05-ca09-4e02-885f-4e65e4f64015" d="M162.65,111.64c-12.27-.03-24.55-.06-36.82-.08-.79,0-1.93.37-1.26,1.28s2.54,1.13,3.56,1.13c12.27.03,24.55.06,36.82.08.79,0,1.93-.37,1.26-1.28s-2.54-1.13-3.56-1.13h0Z"/><path class="uuid-cda44b05-ca09-4e02-885f-4e65e4f64015" d="M176.77,122.7l-32.52-.07c-.77,0-1.87.36-1.22,1.24s2.46,1.1,3.45,1.1c10.84.02,21.68.05,32.52.07.77,0,1.87-.36,1.22-1.24s-2.46-1.1-3.45-1.1h0Z"/><path class="uuid-cda44b05-ca09-4e02-885f-4e65e4f64015" d="M179.18,87.64c-2.35,0-4.71-.01-7.06-.02-.37,0-1.07.08-1.36.39-.26.28-.15.63.1.89.86.88,2.39,1.13,3.56,1.13,2.35,0,4.71.01,7.06.02.37,0,1.07-.08,1.36-.39.26-.28.15-.63-.1-.89-.86-.88-2.39-1.13-3.56-1.13h0Z"/><path class="uuid-cda44b05-ca09-4e02-885f-4e65e4f64015" d="M460.52,111.85c-.55-3.86-1.57-7.67-3.03-11.29-2.67-6.62-6.85-12.53-11.78-17.66-.65-.67-1.28-1.35-2.03-1.92-.17-.12-.91-.67-.8-.09.05.25.21.51.34.72.21.35.45.68.71.99.44.54.9,1.03,1.37,1.54.31.33.62.67.92,1.01.36.41.68.84,1.01,1.27.94,1.24,1.83,2.5,2.64,3.82.89,1.46,1.72,2.95,2.45,4.5.8,1.7,1.53,3.43,2.15,5.2.71,2.02,1.27,4.09,1.71,6.18.88,4.16,1.23,8.4,1.1,12.65-.12,4.01-.85,8.04-2.06,11.86-.62,1.96-1.34,3.9-2.22,5.77-.85,1.82-1.77,3.61-2.84,5.31-1.11,1.75-2.28,3.43-3.57,5.05-1.26,1.58-2.64,3.04-4.07,4.46-1.42,1.41-2.98,2.68-4.56,3.9-1.56,1.2-3.22,2.3-4.93,3.26-1.79,1.01-3.61,1.94-5.5,2.76-1.91.83-3.87,1.51-5.86,2.11-3.82,1.15-7.82,1.81-11.8,2.01-8.19.41-16.49-1.36-23.77-5.15-3.71-1.93-7.14-4.32-10.21-7.16-2.78-2.57-5.19-5.54-7.19-8.75-3.5-5.61-5.75-11.97-6.95-18.45-.27-1.44-.45-2.9-.64-4.35-.03-.22-.06-.45-.1-.67-.02-.11-.05-.22-.06-.33-.01-.14,0-.27-.06-.39-.06-.12-.64-.92-.79-.75-.04.04,0,.34,0,.4-.01.11-.03.22-.03.34-.05,1.23.08,2.46.2,3.68.15,1.49.38,2.97.71,4.42.71,3.18,1.73,6.25,3.08,9.21,1.48,3.25,3.33,6.32,5.43,9.21,4.8,6.58,11.08,12.07,18.27,15.91,3.71,1.98,7.66,3.46,11.74,4.51,2.11.54,4.27.93,6.43,1.19,1.9.23,3.83.37,5.75.37.1,0,.2,0,.3,0,2.03-.04,4.04-.11,6.05-.35,2.06-.24,4.09-.65,6.1-1.15,1.83-.45,3.65-1.05,5.4-1.75,1.86-.74,3.69-1.56,5.45-2.53,7.06-3.9,13.18-9.46,17.62-16.21,2.21-3.36,4.03-6.98,5.36-10.78,1.33-3.81,2.23-7.76,2.7-11.76.47-4.03.46-8.1-.11-12.12Z"/><path class="uuid-cda44b05-ca09-4e02-885f-4e65e4f64015" d="M249.78,65.58c.37,1.4.82,3.37.31,4.77-.06.16-.14.33-.3.39-.16.06-.34,0-.5-.08-1.04-.43-2-.17-3.42-.2-1.63-.03-3.27.11-4.89.24-3.41.27-6.78.85-10.04,1.87-7.21,2.25-13.94,6.2-19.33,11.49-2.99,2.94-5.59,6.25-7.77,9.84-2.19,3.62-3.84,7.52-5.07,11.56-.61,2-1.05,4.08-1.36,6.15-.31,2.11-.51,4.24-.51,6.38,0,2.31.16,4.61.54,6.89.38,2.22.92,4.41,1.62,6.55,1.33,4.07,3.22,7.97,5.56,11.55,2.49,3.82,5.51,7.25,8.93,10.27,6.31,5.57,14.13,9.6,22.38,11.34,4.09.86,8.24,1.23,12.42,1.07,4.14-.15,8.32-.81,12.29-2,3.72-1.12,7.34-2.63,10.68-4.63,3.14-1.88,6.11-4.03,8.8-6.52,1.28-1.18,2.49-2.42,3.63-3.72.25-.29.51-.59.75-.88.08-.09.16-.19.23-.28.03-.04.13-.25.2-.25.17,0,.24.53.25.63.06.33.09.67.07,1-.01.19-.05.31-.17.45-.08.09-.15.19-.23.28-2.16,2.66-4.57,5.15-7.23,7.32-6.03,4.93-13.24,8.42-20.83,10.15-4.17.95-8.42,1.31-12.69,1.17-4.1-.14-8.16-.84-12.11-1.95-1.91-.54-3.8-1.22-5.63-2-1.91-.82-3.79-1.73-5.59-2.79-3.71-2.18-7.12-4.81-10.14-7.88-6.08-6.17-10.56-13.99-12.73-22.39-2.26-8.79-2.65-18.12-.62-26.99.95-4.17,2.4-8.22,4.36-12.03,1.88-3.65,4.21-7.13,6.95-10.18.06-.07.12-.13.18-.2,1.38-1.53,2.84-2.99,4.39-4.35,2.87-2.52,5.99-4.75,9.34-6.6,3.16-1.74,6.52-3.1,9.97-4.15,3.31-1.01,6.72-1.79,10.18-2.06,1.17-.09,2.34-.14,3.51-.11.84.02,1.48.03,2.45,0,.24,0,.48-.13.7-.03.22.11.32.37.39.6.03.11.06.22.09.33Z"/><path class="uuid-cda44b05-ca09-4e02-885f-4e65e4f64015" d="M328.34,128.92c0,4.49-3.79,8.24-8.45,8.38-4.65.14-8.41-3.37-8.41-7.84s3.76-8.22,8.41-8.38,8.45,3.35,8.45,7.84Z"/><path class="uuid-cda44b05-ca09-4e02-885f-4e65e4f64015" d="M136.62,289.44l-5.83-16.34h2.61l4.81,13.62h-.64l4.81-13.62h2.63l-5.83,16.34h-2.54Z"/><path class="uuid-cda44b05-ca09-4e02-885f-4e65e4f64015" d="M148.87,289.44v-16.34h10.18v2.38h-7.6v4.24h5.99v2.38h-5.99v4.96h7.82v2.38h-10.4Z"/><path class="uuid-cda44b05-ca09-4e02-885f-4e65e4f64015" d="M163.92,289.44v-16.34h2.64l7.6,11.52v-11.52h2.56v16.34h-2.12l-8.12-12.18v12.18h-2.54Z"/><path class="uuid-cda44b05-ca09-4e02-885f-4e65e4f64015" d="M185.6,289.44v-13.96h-4.7v-2.38h11.95v2.38h-4.7v13.96h-2.54Z"/><path class="uuid-cda44b05-ca09-4e02-885f-4e65e4f64015" d="M197.01,289.44v-16.34h10.18v2.38h-7.6v4.24h5.99v2.38h-5.99v4.96h7.82v2.38h-10.4Z"/><path class="uuid-cda44b05-ca09-4e02-885f-4e65e4f64015" d="M211.36,289.44v-2.77h2.73v2.77h-2.73Z"/><path class="uuid-cda44b05-ca09-4e02-885f-4e65e4f64015" d="M219.04,289.44v-16.34h2.54v14.05h7.17v2.29h-9.71Z"/><path class="uuid-cda44b05-ca09-4e02-885f-4e65e4f64015" d="M239.81,289.77c-1.56,0-2.94-.35-4.15-1.05-1.21-.7-2.17-1.69-2.86-2.96s-1.04-2.77-1.04-4.49.35-3.21,1.04-4.49,1.65-2.26,2.86-2.96c1.21-.7,2.6-1.05,4.15-1.05s2.94.35,4.15,1.05c1.21.7,2.17,1.69,2.86,2.96s1.04,2.77,1.04,4.49-.35,3.21-1.04,4.49-1.65,2.26-2.86,2.96c-1.21.7-2.6,1.05-4.15,1.05ZM239.81,287.31c1.18,0,2.17-.26,2.96-.79.79-.53,1.39-1.25,1.79-2.17s.6-1.94.6-3.07-.2-2.16-.6-3.07-1-1.64-1.79-2.17c-.79-.53-1.78-.79-2.96-.79s-2.17.26-2.96.79c-.79.53-1.39,1.25-1.79,2.17s-.6,1.94-.6,3.07.2,2.16.6,3.07,1,1.64,1.79,2.17c.79.53,1.78.79,2.96.79Z"/><path class="uuid-cda44b05-ca09-4e02-885f-4e65e4f64015" d="M259.9,289.77c-1.62,0-3.05-.35-4.3-1.05-1.25-.7-2.23-1.69-2.93-2.96-.71-1.27-1.06-2.77-1.06-4.49s.36-3.21,1.08-4.49,1.71-2.26,2.98-2.96c1.27-.7,2.71-1.05,4.33-1.05.84,0,1.63.09,2.37.27.74.18,1.38.41,1.94.69l-.28,2.39c-.58-.28-1.21-.51-1.88-.7-.67-.19-1.39-.28-2.17-.28-1.23,0-2.26.27-3.08.81-.82.54-1.45,1.27-1.87,2.19s-.64,1.96-.64,3.12.21,2.2.62,3.12c.42.92,1.03,1.65,1.86,2.19.82.54,1.84.81,3.05.81.8,0,1.53-.09,2.19-.26.66-.18,1.3-.41,1.92-.71l.28,2.39c-.6.27-1.27.5-2,.68s-1.53.27-2.4.27Z"/><path class="uuid-cda44b05-ca09-4e02-885f-4e65e4f64015" d="M273.91,275.59h.7l-4.89,13.85h-2.57l5.83-16.34h2.54l5.83,16.34h-2.57l-4.89-13.85ZM277.72,285.26h-6.93v-2.28h6.93v2.28Z"/><path class="uuid-cda44b05-ca09-4e02-885f-4e65e4f64015" d="M288.53,289.44v-13.96h-4.7v-2.38h11.95v2.38h-4.7v13.96h-2.54Z"/><path class="uuid-cda44b05-ca09-4e02-885f-4e65e4f64015" d="M299.94,289.44v-16.34h2.54v16.34h-2.54Z"/><path class="uuid-cda44b05-ca09-4e02-885f-4e65e4f64015" d="M315.25,289.77c-1.56,0-2.94-.35-4.15-1.05-1.21-.7-2.17-1.69-2.86-2.96s-1.04-2.77-1.04-4.49.35-3.21,1.04-4.49,1.65-2.26,2.86-2.96c1.21-.7,2.6-1.05,4.15-1.05s2.94.35,4.15,1.05c1.21.7,2.17,1.69,2.86,2.96s1.04,2.77,1.04,4.49-.35,3.21-1.04,4.49-1.65,2.26-2.86,2.96c-1.21.7-2.6,1.05-4.15,1.05ZM315.25,287.31c1.18,0,2.17-.26,2.96-.79.79-.53,1.39-1.25,1.79-2.17s.6-1.94.6-3.07-.2-2.16-.6-3.07-1-1.64-1.79-2.17c-.79-.53-1.78-.79-2.96-.79s-2.17.26-2.96.79c-.79.53-1.39,1.25-1.79,2.17s-.6,1.94-.6,3.07.2,2.16.6,3.07,1,1.64,1.79,2.17c.79.53,1.78.79,2.96.79Z"/><path class="uuid-cda44b05-ca09-4e02-885f-4e65e4f64015" d="M328.01,289.44v-16.34h2.64l7.6,11.52v-11.52h2.56v16.34h-2.12l-8.12-12.18v12.18h-2.54Z"/><path class="uuid-cda44b05-ca09-4e02-885f-4e65e4f64015" d="M345.76,289.44v-2.77h2.73v2.77h-2.73Z"/><path class="uuid-cda44b05-ca09-4e02-885f-4e65e4f64015" d="M353.43,289.44v-16.34h5.59c1.14,0,2.13.18,2.97.53s1.5.9,1.97,1.63c.47.73.7,1.66.7,2.8s-.25,2.09-.74,2.83c-.49.74-1.19,1.32-2.07,1.74l3.68,6.8h-2.98l-3.24-6.24h-3.26v6.24h-2.61ZM356.05,280.99h2.63c1.16,0,2-.26,2.54-.78.53-.52.8-1.21.8-2.08s-.26-1.59-.79-2.08c-.53-.49-1.36-.74-2.5-.74h-2.67v5.68Z"/><path class="uuid-cda44b05-ca09-4e02-885f-4e65e4f64015" d="M369.72,289.44v-16.34h10.18v2.38h-7.6v4.24h5.99v2.38h-5.99v4.96h7.82v2.38h-10.4ZM372.84,271.66v-1.46l4.46-2.22v2.32l-4.46,1.35Z"/><path class="uuid-cda44b05-ca09-4e02-885f-4e65e4f64015" d="M384.78,289.44v-16.34h5.58c1.16,0,2.16.18,3.01.54.85.36,1.5.93,1.96,1.71.45.78.68,1.79.68,3.03s-.23,2.26-.68,3.05c-.46.79-1.11,1.37-1.95,1.74-.84.37-1.84.56-2.99.56h-2.99v5.69h-2.61ZM387.39,281.54h2.65c1.12,0,1.96-.25,2.52-.76.56-.51.84-1.29.84-2.36s-.27-1.86-.82-2.36-1.4-.75-2.57-.75h-2.63v6.23Z"/><path class="uuid-cda44b05-ca09-4e02-885f-4e65e4f64015" d="M405.4,275.59h.7l-4.89,13.85h-2.57l5.83-16.34h2.54l5.83,16.34h-2.57l-4.89-13.85ZM409.21,285.26h-6.93v-2.28h6.93v2.28Z"/><path class="uuid-cda44b05-ca09-4e02-885f-4e65e4f64015" d="M416.8,289.44v-16.34h5.59c1.14,0,2.13.18,2.97.53.84.35,1.5.9,1.97,1.63.47.73.7,1.66.7,2.8s-.25,2.09-.74,2.83c-.49.74-1.18,1.32-2.07,1.74l3.68,6.8h-2.98l-3.24-6.24h-3.26v6.24h-2.61ZM419.41,280.99h2.63c1.16,0,2.01-.26,2.54-.78.53-.52.8-1.21.8-2.08s-.26-1.59-.79-2.08c-.53-.49-1.36-.74-2.5-.74h-2.67v5.68Z"/><path class="uuid-cda44b05-ca09-4e02-885f-4e65e4f64015" d="M438.14,275.59h.7l-4.89,13.85h-2.57l5.83-16.34h2.54l5.83,16.34h-2.57l-4.89-13.85ZM441.96,285.26h-6.93v-2.28h6.93v2.28Z"/><path class="uuid-cda44b05-ca09-4e02-885f-4e65e4f64015" d="M452.76,289.44v-13.96h-4.7v-2.38h11.95v2.38h-4.7v13.96h-2.54Z"/><path class="uuid-cda44b05-ca09-4e02-885f-4e65e4f64015" d="M464.18,289.44v-16.34h2.54v16.34h-2.54Z"/><path class="uuid-cda44b05-ca09-4e02-885f-4e65e4f64015" d="M479.49,289.77c-1.56,0-2.94-.35-4.15-1.05-1.21-.7-2.17-1.69-2.86-2.96-.69-1.27-1.04-2.77-1.04-4.49s.35-3.21,1.04-4.49c.69-1.27,1.64-2.26,2.86-2.96,1.21-.7,2.6-1.05,4.15-1.05s2.94.35,4.15,1.05c1.21.7,2.17,1.69,2.86,2.96s1.04,2.77,1.04,4.49-.35,3.21-1.04,4.49-1.65,2.26-2.86,2.96c-1.21.7-2.6,1.05-4.15,1.05ZM479.49,287.31c1.18,0,2.17-.26,2.96-.79.79-.53,1.39-1.25,1.79-2.17.4-.91.6-1.94.6-3.07s-.2-2.16-.6-3.07c-.4-.91-1-1.64-1.79-2.17-.79-.53-1.78-.79-2.96-.79s-2.17.26-2.96.79c-.79.53-1.39,1.25-1.79,2.17s-.6,1.94-.6,3.07.2,2.16.6,3.07,1,1.64,1.79,2.17,1.78.79,2.96.79Z"/><path class="uuid-cda44b05-ca09-4e02-885f-4e65e4f64015" d="M492.24,289.44v-16.34h2.64l7.6,11.52v-11.52h2.56v16.34h-2.12l-8.12-12.18v12.18h-2.54Z"/><path class="uuid-cda44b05-ca09-4e02-885f-4e65e4f64015" d="M59.95,278.63c2.11-.04,4.15,1.76,6.68,1.89,2.71.14,3.86-.95,6.11-1.65,5.67-1.77,8.34,6.27,3.4,8.47-3.09,1.38-6.24-1.87-10.08-1.44-2.95.33-5.73,3.19-8.66,1.03-3.51-2.59-1.78-8.2,2.56-8.29ZM59.52,281.14c-2.11.39-2.07,3.83.13,4.12,3.44.46,3.33-4.76-.13-4.12ZM73.53,281.14c-2.05.46-1.89,3.94.42,4.14,3.34.3,3.05-4.93-.42-4.14Z"/><path class="uuid-cda44b05-ca09-4e02-885f-4e65e4f64015" d="M74.16,278.66c2.11-.04,4.15,1.76,6.68,1.89,2.71.14,3.86-.95,6.11-1.65,5.67-1.77,8.34,6.27,3.4,8.47-3.09,1.38-6.24-1.87-10.08-1.44-2.95.33-5.73,3.19-8.66,1.03-3.51-2.59-1.78-8.2,2.56-8.29ZM73.72,281.17c-2.11.39-2.07,3.83.13,4.12,3.44.46,3.33-4.76-.13-4.12ZM87.73,281.16c-2.05.46-1.89,3.94.42,4.14,3.34.3,3.05-4.93-.42-4.14Z"/><path class="uuid-cda44b05-ca09-4e02-885f-4e65e4f64015" d="M88.23,278.67c2.11-.04,4.15,1.76,6.68,1.89,2.71.14,3.86-.95,6.11-1.65,5.67-1.77,8.34,6.27,3.4,8.47-3.09,1.38-6.24-1.87-10.08-1.44-2.95.33-5.73,3.19-8.66,1.03-3.51-2.59-1.78-8.2,2.56-8.29ZM87.79,281.18c-2.11.39-2.07,3.83.13,4.12,3.44.46,3.33-4.76-.13-4.12ZM101.8,281.18c-2.05.46-1.89,3.94.42,4.14,3.34.3,3.05-4.93-.42-4.14Z"/><path class="uuid-cda44b05-ca09-4e02-885f-4e65e4f64015" d="M102.44,278.69c2.11-.04,4.15,1.76,6.68,1.89,2.71.14,3.86-.95,6.11-1.65,5.67-1.77,8.34,6.27,3.4,8.47-3.09,1.38-6.24-1.87-10.08-1.44-2.95.33-5.73,3.19-8.66,1.03-3.51-2.59-1.78-8.2,2.56-8.29ZM102,281.21c-2.11.39-2.07,3.83.13,4.12,3.44.46,3.33-4.76-.13-4.12ZM116.01,281.2c-2.05.46-1.89,3.94.42,4.14,3.34.3,3.05-4.93-.42-4.14Z"/><path class="uuid-cda44b05-ca09-4e02-885f-4e65e4f64015" d="M523.26,278.69c2.11-.04,4.15,1.76,6.68,1.89,2.71.14,3.86-.95,6.11-1.65,5.67-1.77,8.34,6.27,3.4,8.47-3.09,1.38-6.24-1.87-10.08-1.44-2.95.33-5.73,3.19-8.66,1.03-3.51-2.59-1.78-8.2,2.56-8.29ZM522.82,281.2c-2.11.39-2.07,3.83.13,4.12,3.44.46,3.33-4.76-.13-4.12ZM536.83,281.2c-2.05.46-1.89,3.94.42,4.14,3.34.3,3.05-4.93-.42-4.14Z"/><path class="uuid-cda44b05-ca09-4e02-885f-4e65e4f64015" d="M537.47,278.71c2.11-.04,4.15,1.76,6.68,1.89,2.71.14,3.86-.95,6.11-1.65,5.67-1.77,8.34,6.27,3.4,8.47-3.09,1.38-6.24-1.87-10.08-1.44-2.95.33-5.73,3.19-8.66,1.03-3.51-2.59-1.78-8.2,2.56-8.29ZM537.03,281.22c-2.11.39-2.07,3.83.13,4.12,3.44.46,3.33-4.76-.13-4.12ZM551.04,281.22c-2.05.46-1.89,3.94.42,4.14,3.34.3,3.05-4.93-.42-4.14Z"/><path class="uuid-cda44b05-ca09-4e02-885f-4e65e4f64015" d="M551.53,278.72c2.11-.04,4.15,1.76,6.68,1.89,2.71.14,3.86-.95,6.11-1.65,5.67-1.77,8.34,6.27,3.4,8.47-3.09,1.38-6.24-1.87-10.08-1.44-2.95.33-5.73,3.19-8.66,1.03-3.51-2.59-1.78-8.2,2.56-8.29ZM551.09,281.24c-2.11.39-2.07,3.83.13,4.12,3.44.46,3.33-4.76-.13-4.12ZM565.1,281.23c-2.05.46-1.89,3.94.42,4.14,3.34.3,3.05-4.93-.42-4.14Z"/><path class="uuid-cda44b05-ca09-4e02-885f-4e65e4f64015" d="M565.74,278.75c2.11-.04,4.15,1.76,6.68,1.89,2.71.14,3.86-.95,6.11-1.65,5.67-1.77,8.34,6.27,3.4,8.47-3.09,1.38-6.24-1.87-10.08-1.44-2.95.33-5.73,3.19-8.66,1.03-3.51-2.59-1.78-8.2,2.56-8.29ZM565.3,281.26c-2.11.39-2.07,3.83.13,4.12,3.44.46,3.33-4.76-.13-4.12ZM579.31,281.26c-2.05.46-1.89,3.94.42,4.14,3.34.3,3.05-4.93-.42-4.14Z"/></svg>