<?xml version="1.0" encoding="UTF-8"?><svg id="uuid-13ee0c47-81cb-4279-81c2-07b358d4e8a3" xmlns="http://www.w3.org/2000/svg" viewBox="0 0 592.26 369.07"><defs><style>.uuid-05090d55-4abc-4a43-b067-a9ab86217e09{fill:#3c6142;}</style></defs><path class="uuid-05090d55-4abc-4a43-b067-a9ab86217e09" d="M43.32,288.28c-1.2-1.71-2.27-2.92-3.24-3.64-.96-.72-2-1.23-3.11-1.54-1.11-.31-2.27-.46-3.49-.46-1.79,0-3.46.4-5,1.2s-2.87,1.89-3.99,3.27-2,2.98-2.64,4.81c-.64,1.83-.96,3.76-.96,5.81s.32,4.02.95,5.85c.63,1.83,1.5,3.42,2.61,4.79,1.11,1.37,2.43,2.45,3.97,3.25s3.22,1.2,5.06,1.2c1.28,0,2.48-.21,3.59-.62,1.11-.42,2.12-.97,3.03-1.65.91-.68,1.7-1.47,2.39-2.35.68-.89,1.22-1.81,1.6-2.77l10.32,2.88c-.66,2.09-1.63,4.03-2.92,5.81s-2.82,3.33-4.63,4.63c-1.81,1.3-3.83,2.33-6.09,3.08-2.25.75-4.68,1.12-7.29,1.12-2.2,0-4.3-.3-6.31-.9-2.01-.6-3.88-1.44-5.62-2.53-1.74-1.09-3.32-2.4-4.74-3.94-1.42-1.54-2.63-3.24-3.64-5.11-1-1.87-1.78-3.88-2.34-6.02-.56-2.15-.83-4.38-.83-6.71,0-3.48.61-6.74,1.83-9.79s2.88-5.7,5-7.98c2.11-2.27,4.6-4.07,7.45-5.38s5.92-1.97,9.21-1.97c2.63,0,4.84.33,6.63.98,1.79.65,3.77,1.94,5.93,3.86h7.18v10.83h-9.9Z"/><path class="uuid-05090d55-4abc-4a43-b067-a9ab86217e09" d="M59.17,273.51h20.79v8.81h-4.07l6.5,11.15,6.89-11.15h-4.65v-8.81h20.79v8.81h-3.59l-14.45,19.61v11.37h5.89v8.78h-21.66v-8.78h5.38v-11.5l-13.58-19.48h-4.26v-8.81Z"/><path class="uuid-05090d55-4abc-4a43-b067-a9ab86217e09" d="M142.31,288.28c-1.2-1.71-2.27-2.92-3.24-3.64-.96-.72-2-1.23-3.11-1.54-1.11-.31-2.27-.46-3.49-.46-1.79,0-3.46.4-5,1.2-1.54.8-2.87,1.89-3.99,3.27s-2,2.98-2.64,4.81c-.64,1.83-.96,3.76-.96,5.81s.32,4.02.95,5.85c.63,1.83,1.5,3.42,2.61,4.79,1.11,1.37,2.43,2.45,3.97,3.25,1.54.8,3.22,1.2,5.06,1.2,1.28,0,2.48-.21,3.59-.62,1.11-.42,2.12-.97,3.03-1.65.91-.68,1.7-1.47,2.39-2.35.68-.89,1.22-1.81,1.6-2.77l10.32,2.88c-.66,2.09-1.63,4.03-2.92,5.81-1.28,1.78-2.82,3.33-4.63,4.63-1.81,1.3-3.83,2.33-6.09,3.08-2.25.75-4.68,1.12-7.29,1.12-2.2,0-4.3-.3-6.31-.9-2.01-.6-3.88-1.44-5.62-2.53-1.74-1.09-3.32-2.4-4.74-3.94-1.42-1.54-2.63-3.24-3.64-5.11-1-1.87-1.78-3.88-2.34-6.02-.56-2.15-.83-4.38-.83-6.71,0-3.48.61-6.74,1.83-9.79s2.88-5.7,5-7.98,4.6-4.07,7.45-5.38,5.92-1.97,9.21-1.97c2.63,0,4.84.33,6.63.98,1.79.65,3.77,1.94,5.93,3.86h7.18v10.83h-9.9Z"/><path class="uuid-05090d55-4abc-4a43-b067-a9ab86217e09" d="M160.28,273.51h20.79v8.81h-5.13v30.98h10.57c.28,0,.55-.08.82-.24.27-.16.5-.37.7-.62.2-.26.37-.53.5-.83s.19-.59.19-.86v-6.5h10.38v17.84h-38.83v-8.78h5.03v-30.98h-5.03v-8.81Z"/><path class="uuid-05090d55-4abc-4a43-b067-a9ab86217e09" d="M203.4,273.51h38.64v16.56h-10.44v-6.89h-12.46v9.58h9.64v9.29h-9.64v11.24h12.46v-8.62h10.44v17.4h-38.64v-8.78h5.09v-30.11h-5.09v-9.67Z"/><path class="uuid-05090d55-4abc-4a43-b067-a9ab86217e09" d="M260.74,273.51h37.58v16.56h-10.41v-6.82h-11.5v10.22h9.96v9.32h-9.96v10.51h5.13v8.78h-20.79v-8.78h5.03v-30.05h-5.03v-9.74Z"/><path class="uuid-05090d55-4abc-4a43-b067-a9ab86217e09" d="M323.92,322.94c-2.2,0-4.3-.3-6.31-.9-2.01-.6-3.88-1.44-5.62-2.53s-3.32-2.4-4.74-3.92c-1.42-1.53-2.63-3.22-3.64-5.09-1-1.87-1.78-3.87-2.34-6.01s-.83-4.37-.83-6.7.28-4.57.83-6.71,1.33-4.15,2.34-6.02c1-1.87,2.22-3.57,3.64-5.09,1.42-1.53,3-2.84,4.74-3.92,1.74-1.09,3.61-1.93,5.62-2.53,2.01-.6,4.11-.9,6.31-.9s4.31.3,6.33.9c2.02.6,3.9,1.44,5.64,2.53,1.74,1.09,3.32,2.4,4.74,3.92,1.42,1.53,2.64,3.22,3.65,5.09,1.01,1.87,1.8,3.88,2.35,6.02.56,2.15.83,4.38.83,6.71s-.28,4.53-.83,6.68c-.56,2.15-1.34,4.15-2.35,6.02s-2.23,3.57-3.65,5.09c-1.42,1.53-3,2.84-4.74,3.92-1.74,1.09-3.62,1.93-5.64,2.53-2.02.6-4.13.9-6.33.9ZM323.92,312.88c1.86,0,3.56-.4,5.11-1.2,1.55-.8,2.88-1.89,3.99-3.27,1.11-1.38,1.97-2.98,2.58-4.81.61-1.83.91-3.76.91-5.82s-.31-4.03-.93-5.86c-.62-1.84-1.49-3.44-2.61-4.82s-2.45-2.47-3.99-3.27c-1.54-.8-3.23-1.2-5.06-1.2s-3.52.4-5.06,1.2-2.86,1.89-3.97,3.27-1.98,2.98-2.61,4.82c-.63,1.84-.95,3.79-.95,5.86s.32,3.99.95,5.82,1.5,3.43,2.61,4.81,2.43,2.47,3.97,3.27,3.22,1.2,5.06,1.2Z"/><path class="uuid-05090d55-4abc-4a43-b067-a9ab86217e09" d="M353.84,273.51h25.69c2.5,0,4.73.37,6.7,1.12,1.96.75,3.62,1.75,4.97,3s2.38,2.7,3.09,4.36c.72,1.66,1.07,3.38,1.07,5.17,0,1.65-.18,3.09-.53,4.32-.35,1.24-.86,2.34-1.54,3.3s-1.5,1.81-2.48,2.55-2.1,1.4-3.36,2c1.09.56,2.05,1.4,2.88,2.55.83,1.14,1.46,2.62,1.89,4.44l1.63,6.31h4l.06,9.45h-14.1l-1.92-11.53c-.19-1.37-.49-2.55-.88-3.54s-.92-1.8-1.59-2.43-1.47-1.09-2.42-1.39-2.08-.45-3.38-.45h-4.13v10.57h4.45v8.78h-20.12v-8.78h5.03v-30.98h-5.03v-8.81ZM369.51,282.32v11.76h6.38c1.22,0,2.31-.11,3.28-.34s1.8-.58,2.5-1.06,1.23-1.08,1.6-1.81c.37-.73.56-1.59.56-2.59,0-1.88-.67-3.34-2.02-4.39-1.35-1.05-3.32-1.57-5.93-1.57h-6.38Z"/><path class="uuid-05090d55-4abc-4a43-b067-a9ab86217e09" d="M438.06,322.08v-8.33c-1.32,2.33-2.62,4.04-3.88,5.13-1.26,1.09-2.69,1.96-4.28,2.63-1.59.66-3.72.98-6.39.96-1.32-.02-2.65-.18-3.97-.46s-2.61-.69-3.84-1.22-2.45-1.15-3.64-1.89-2.26-1.59-3.22-2.55c-2.37-2.39-4.21-5.16-5.53-8.31-1.31-3.15-1.97-6.58-1.97-10.3,0-2.29.28-4.5.83-6.63.56-2.14,1.33-4.13,2.34-5.99,1-1.86,2.22-3.55,3.64-5.08,1.42-1.53,3-2.84,4.74-3.92s3.61-1.93,5.62-2.53c2.01-.6,4.11-.9,6.31-.9,2.52,0,4.71.34,6.57,1.01,1.86.67,3.85,1.93,5.99,3.76h7.18v10.83h-9.9c-.98-1.52-1.91-2.62-2.77-3.3-.86-.68-1.8-1.25-2.82-1.7-1.01-.45-2.43-.67-4.24-.67s-3.46.41-5,1.22c-1.54.81-2.87,1.91-3.99,3.28s-2,3-2.64,4.87c-.64,1.87-.96,3.79-.96,5.75s.29,3.79.86,5.54c.58,1.75,1.45,3.33,2.63,4.73s2.54,2.47,4.1,3.22c1.56.75,3.22,1.12,5,1.12,2.26,0,4.24-.66,5.93-1.99,1.69-1.32,2.9-3.13,3.65-5.41h-9.26v-8.78h22.49v25.92h-9.58Z"/><path class="uuid-05090d55-4abc-4a43-b067-a9ab86217e09" d="M455.27,273.51h20.79v8.78h-5.13v31.01h5.13v8.78h-20.79v-8.78h5.03v-31.01h-5.03v-8.78Z"/><path class="uuid-05090d55-4abc-4a43-b067-a9ab86217e09" d="M503.19,322.94c-2.2,0-4.3-.3-6.31-.9-2.01-.6-3.88-1.44-5.62-2.53s-3.32-2.4-4.74-3.92c-1.42-1.53-2.63-3.22-3.64-5.09s-1.78-3.87-2.34-6.01-.83-4.37-.83-6.7.28-4.57.83-6.71,1.33-4.15,2.34-6.02c1-1.87,2.22-3.57,3.64-5.09,1.42-1.53,3-2.84,4.74-3.92,1.74-1.09,3.61-1.93,5.62-2.53,2.01-.6,4.11-.9,6.31-.9s4.31.3,6.33.9c2.02.6,3.9,1.44,5.64,2.53,1.74,1.09,3.32,2.4,4.74,3.92,1.42,1.53,2.64,3.22,3.65,5.09,1.01,1.87,1.8,3.88,2.35,6.02s.83,4.38.83,6.71-.28,4.53-.83,6.68-1.34,4.15-2.35,6.02c-1.01,1.87-2.23,3.57-3.65,5.09s-3,2.84-4.74,3.92-3.62,1.93-5.64,2.53c-2.02.6-4.13.9-6.33.9ZM503.19,312.88c1.86,0,3.56-.4,5.11-1.2s2.88-1.89,3.99-3.27,1.97-2.98,2.58-4.81c.61-1.83.91-3.76.91-5.82s-.31-4.03-.93-5.86c-.62-1.84-1.49-3.44-2.61-4.82-1.12-1.38-2.45-2.47-3.99-3.27-1.54-.8-3.22-1.2-5.06-1.2s-3.52.4-5.06,1.2c-1.54.8-2.86,1.89-3.97,3.27-1.11,1.38-1.98,2.98-2.61,4.82-.63,1.84-.95,3.79-.95,5.86s.32,3.99.95,5.82c.63,1.83,1.5,3.43,2.61,4.81,1.11,1.38,2.43,2.47,3.97,3.27,1.54.8,3.22,1.2,5.06,1.2Z"/><path class="uuid-05090d55-4abc-4a43-b067-a9ab86217e09" d="M563.8,273.51h18.45v8.81h-3.94v39.76h-10.64l-20.21-31.4v22.62h4.07v8.78h-18.42v-8.78h4v-30.98h-3.94v-8.81h14.67l20.09,31.81v-23h-4.13v-8.81Z"/><path class="uuid-05090d55-4abc-4a43-b067-a9ab86217e09" d="M182.64,239.05c-26.84-.06-53.68-.12-80.52-.18-1.14,0-2.77.53-1.81,1.84s3.64,1.62,5.11,1.63c26.84.06,53.68.12,80.52.18,1.14,0,2.77-.53,1.81-1.84s-3.64-1.62-5.11-1.63h0Z"/><path class="uuid-05090d55-4abc-4a43-b067-a9ab86217e09" d="M370.72,85.31c4.1-3.35,8.15-6.77,12.51-9.78.2-.14.4-.27.6-.41.85,4.29,1.85,8.55,2.89,12.79,2.92,11.93,6.65,23.62,10.91,35.13,4.3,11.63,9.49,22.95,15.79,33.64,3.34,5.68,6.96,11.22,11.03,16.42,1.84,2.36,3.8,4.61,5.84,6.8.6.65,1.22,1.28,1.84,1.91,1.41,1.43,2.82,3.05,4.62,3.98-.26-.13-1.98-3.68-2.58-4.54-2.01-2.85-4.18-5.57-6.14-8.45-9.16-13.45-15.76-28.07-21.66-43.18-4.63-11.84-8.76-23.91-12.2-36.16-1.62-5.76-3.09-11.56-4.5-17.37-.35-1.45-.7-2.9-1.03-4.35-.1-.43-.19-.86-.29-1.29-.23-.99-.45-1.99-.67-2.99-.12-.55-.24-1.11-.36-1.67-.58-2.72-1.12-5.45-1.6-8.19-.83-4.76-1.56-9.53-2.03-14.34,6.01-.46,12.02-.93,18.02-1.41,4.77-.38,9.54-.8,14.31-1.21,2.26-.19,4.51-.42,6.76-.64.52,2.67.74,5.39.55,8.08-.26,2.72-1.03,5.31-1.97,7.87-1.38,3.77-3.51,7.2-5.9,10.41-1.36,1.88-2.63,3.88-4.45,5.36-1.26.92,4.09,6.25,5.15,6.49.25.06.36.1.53-.16.48-.68.72-1.51,1.26-2.15,4.33-5.35,7.86-11.48,8.63-18.42,1-5.9.04-11.99-1.87-17.65,0-.02-.02-.05-.03-.07-.19-.55-.38-1.09-.58-1.62-.06-.17-.13-.34-.19-.5-.21-.55-.43-1.11-.66-1.65-.07-.15-.15-.3-.23-.44-.38.04-.76.08-1.13.12-.07,0-.14.02-.2.02-4.71.52-9.41,1.09-14.11,1.68-4.66.59-9.31,1.17-13.96,1.81-3.39.47-6.79.9-10.19,1.33-1.03.13-2.05.27-3.08.41,0,.87,0,1.73.03,2.6.06,3.19.24,6.37.49,9.55-5.17-.27-10.36-.33-15.54-.11-11.73.51-23.4,2.17-34.89,4.59-11.75,2.48-23.34,5.68-34.66,9.7-11.21,3.98-22.04,8.95-32.46,14.68-2.7,1.48-5.36,3.01-8,4.58-4.13-9.48-8.31-18.93-12.51-28.38-2.41-5.43-4.8-10.88-7.15-16.34-1.96-4.57-3.95-9.14-5.89-13.72.24.05.48.09.73.14,6.48.84,13.46.97,19.37-2.2,1.34-.67,2.58-1.58,3.31-2.92,1.02-1.7,1.47-3.8,1.83-5.72.33-1.91.65-3.88.42-5.82-.09-.57-.36-1.38-1.03-1.52-1.2-.13-2.41.27-3.58.47-4.04.78-8.19.82-12.24,1.58-3.06.52-6.05,1.33-9.04,2.11-3.06.75-6.04,1.82-9.14,2.42-3.29.62-6.72.79-10.07.7-1.75-.06-3.7-.12-5.28-.94,0-.18-.06-.31-.24-.26-.25,0-.3.16-.39.39-.97,2.2.12,3.73,1.97,4.91,1.96,1.4,4.24,2.26,6.54,2.93,4.98,1.38,10.05,2.4,15.12,3.38,1.39,3.54,2.77,7.08,4.17,10.61,4.05,10.24,7.9,20.56,11.85,30.84,2.5,6.52,5.03,13.03,7.56,19.54-1.1.67-2.19,1.35-3.28,2.04-4.95,3.13-9.79,6.43-14.61,9.77-9.41,6.52-18.38,13.71-26.53,21.76-4.17,4.12-7.99,8.57-11.74,13.07-3.77,4.52-7.22,9.29-10.52,14.16-5.35,7.9-10.56,16.32-14.81,24.88-1.12,2.25.62,6.44,2.35,2.94.21-.43.43-.86.65-1.28.46-.87.93-1.72,1.41-2.58,1.08-1.91,2.24-3.78,3.45-5.61,3.17-4.81,6.73-9.36,10.52-13.7,3.78-4.34,7.85-8.44,11.98-12.44,4.11-3.98,8.41-7.78,12.75-11.51,4.42-3.79,8.84-7.59,13.37-11.25,4.38-3.54,8.86-6.98,13.41-10.3,4.77-3.47,9.71-6.68,14.76-9.73.22-.13.44-.26.66-.39.32.81.63,1.63.95,2.44,4.36,11.16,8.89,22.24,13.41,33.34,4.55,11.16,9.28,22.24,13.87,33.38,2.21,5.35,4.42,10.71,6.61,16.07,0,.02.02.04.02.06.51-1.07,1.03-2.14,1.55-3.21,2.69-5.41,5.67-10.69,8.84-15.83,6.37-10.31,13.64-20.01,21.09-29.55,7.24-9.27,15.03-18.13,23.25-26.53,8.1-8.27,16.67-16.09,25.63-23.42ZM313.18,136.65c-3.55,5.04-6.85,10.25-10.06,15.51-3.07,5.04-5.98,10.19-8.71,15.43-1.09,2.1-2.15,4.23-3.16,6.37-2.03-5.18-4.05-10.37-6.06-15.55-4.36-11.23-8.81-22.43-13.43-33.56-2.32-5.6-4.69-11.19-7.05-16.77-1.68-3.99-3.43-7.95-5.16-11.92,8.6-4.97,17.45-9.49,26.47-13.67,10.8-5,21.78-9.63,33.05-13.46,10.83-3.68,21.94-6.53,33.25-8.28,9.59-1.48,19.34-2.32,29.05-2.18.29,2.73.63,5.46,1.03,8.17-1.15.68-2.27,1.4-3.39,2.13-2.17,1.4-4.28,2.88-6.4,4.35-2.23,1.55-4.41,3.17-6.54,4.87-2.21,1.76-4.34,3.64-6.44,5.53-8.55,7.66-16.45,16.01-24.01,24.65-7.94,9.08-15.5,18.52-22.45,28.39Z"/><path class="uuid-05090d55-4abc-4a43-b067-a9ab86217e09" d="M258.66,212.67c.14-.47-.2-1.03-.38-1.31-.4-.64-.58-.88-.75-1.14-.45-.68-.49-.64-1-1.26-1.05-1.25-2.22-2.51-3.58-3.43-.45-.3-1.08-.87-1.48-.18-.52.91-.77,1.78-1.49,2.59-2.46,2.78-5.11,5.44-7.81,7.99-4.07,3.84-8.47,7.3-13.29,10.16-10.64,6.3-22.81,10.15-35.16,10.9-6.86.41-13.73-.05-20.48-1.34-6.8-1.3-13.35-3.58-19.61-6.52-3.1-1.45-6.11-3.19-8.96-5.09-2.91-1.93-5.71-4.03-8.31-6.37-2.81-2.53-5.43-5.25-7.78-8.21-2.29-2.89-4.35-5.96-6.19-9.15-3.49-6.08-6.16-12.65-7.95-19.42-1.91-7.21-2.77-14.65-2.69-22.11.14-13.78,3.82-27.7,10.75-39.63,3.43-5.92,7.54-11.37,12.31-16.27,4.73-4.87,10.1-9.22,15.91-12.75,5.43-3.3,11.25-6.04,17.33-7.91,5.73-1.76,11.6-3,17.58-3.55,2.83-.26,5.66-.38,8.5-.33.63.01,1.27.03,1.9.05.2,0,.4.01.6.03.09,0,.45.1.51.03.19-.21-.38-.87-.49-1-.33-.43-.71-.84-1.14-1.17-.25-.19-.43-.28-.73-.28-.2,0-.4-.02-.59-.03-5.61-.29-11.27-.1-16.82.75-12.6,1.93-24.75,6.86-35.17,14.19-5.72,4.02-10.83,8.8-15.35,14.14-4.33,5.13-7.92,10.85-10.9,16.86-1.44,2.92-2.69,5.96-3.73,9.04-1.1,3.23-2.05,6.51-2.73,9.85-1.41,6.9-1.96,13.93-1.54,20.96.84,14.16,5.43,28.18,13.26,40.02,8.2,12.38,19.11,23.09,32.12,30.35,6.12,3.41,12.63,6.1,19.4,7.88,6.49,1.71,13.27,2.7,20,2.72.14,0,.29,0,.43,0,3.37,0,6.75-.17,10.1-.56,6.2-.73,12.35-2.07,18.25-4.11,5.59-1.93,10.92-4.52,15.98-7.56,4.85-2.92,9.55-6.21,13.66-10.11,1.21-1.14,2.43-2.27,3.54-3.51"/><path class="uuid-05090d55-4abc-4a43-b067-a9ab86217e09" d="M500.27,148.55c-.91-6.42-2.61-12.75-5.04-18.76-4.44-11.01-11.38-20.84-19.59-29.36-1.07-1.11-2.14-2.25-3.38-3.19-.27-.21-1.51-1.11-1.34-.15.08.41.35.84.56,1.19.35.58.75,1.13,1.18,1.64.73.89,1.5,1.72,2.28,2.56.51.56,1.02,1.11,1.52,1.68.59.68,1.13,1.4,1.67,2.12,1.56,2.06,3.05,4.15,4.39,6.36,1.48,2.42,2.85,4.91,4.07,7.48,1.33,2.82,2.54,5.7,3.57,8.65,1.18,3.35,2.11,6.8,2.84,10.27,1.46,6.92,2.04,13.96,1.83,21.03-.2,6.67-1.42,13.37-3.43,19.72-1.04,3.26-2.23,6.49-3.68,9.59-1.42,3.02-2.94,6-4.73,8.82-1.84,2.91-3.8,5.7-5.94,8.39-2.09,2.62-4.39,5.06-6.77,7.41-2.37,2.34-4.95,4.46-7.59,6.48-2.59,1.99-5.36,3.82-8.2,5.43-2.98,1.69-6,3.23-9.14,4.6-3.17,1.38-6.44,2.51-9.75,3.51-6.35,1.91-12.99,3-19.61,3.34-13.62.68-27.42-2.26-39.52-8.56-6.16-3.21-11.87-7.18-16.97-11.9-4.62-4.28-8.62-9.21-11.95-14.54-5.82-9.33-9.56-19.89-11.55-30.68-.45-2.4-.76-4.82-1.07-7.24-.05-.37-.1-.75-.16-1.12-.03-.18-.08-.36-.09-.55-.02-.23,0-.44-.1-.65-.1-.2-1.07-1.53-1.31-1.25-.06.07.01.56,0,.67-.02.19-.04.37-.05.56-.09,2.04.13,4.1.33,6.12.24,2.47.63,4.93,1.17,7.36,1.18,5.28,2.87,10.4,5.12,15.32,2.46,5.4,5.53,10.51,9.03,15.31,7.99,10.95,18.43,20.07,30.38,26.46,6.17,3.3,12.74,5.75,19.51,7.49,3.51.9,7.1,1.54,10.69,1.98,3.16.38,6.37.61,9.56.62.17,0,.33,0,.5,0,3.37-.06,6.72-.18,10.07-.58,3.42-.41,6.79-1.08,10.13-1.91,3.05-.75,6.06-1.75,8.98-2.9,3.09-1.23,6.14-2.59,9.06-4.2,11.74-6.48,21.92-15.73,29.3-26.95,3.67-5.58,6.7-11.61,8.91-17.92,2.22-6.33,3.71-12.9,4.48-19.56.78-6.69.77-13.47-.18-20.15Z"/><path class="uuid-05090d55-4abc-4a43-b067-a9ab86217e09" d="M101.34,135.22c-19.29-.04-38.59-.09-57.88-.13-1.09,0-2.66.51-1.74,1.77.94,1.28,3.5,1.56,4.92,1.57,19.29.04,38.59.09,57.88.13,1.09,0,2.66-.51,1.74-1.77-.94-1.28-3.5-1.56-4.92-1.57h0Z"/><path class="uuid-05090d55-4abc-4a43-b067-a9ab86217e09" d="M74.79,150.34c-16.95-.04-33.9-.08-50.85-.12-1.09,0-2.66.51-1.74,1.77s3.5,1.56,4.92,1.57c16.95.04,33.9.08,50.85.12,1.09,0,2.66-.51,1.74-1.77-.94-1.28-3.5-1.56-4.92-1.57h0Z"/><path class="uuid-05090d55-4abc-4a43-b067-a9ab86217e09" d="M94.29,165.62c-14.97-.03-29.94-.07-44.91-.1-1.06,0-2.58.49-1.68,1.71s3.4,1.52,4.77,1.52c14.97.03,29.94.07,44.91.1,1.06,0,2.58-.49,1.68-1.71-.91-1.24-3.4-1.52-4.77-1.52h0Z"/><path class="uuid-05090d55-4abc-4a43-b067-a9ab86217e09" d="M97.62,117.21c-3.25,0-6.5-.01-9.75-.02-.51,0-1.48.12-1.87.54-.36.39-.21.88.14,1.22,1.19,1.22,3.3,1.56,4.92,1.57,3.25,0,6.5.01,9.75.02.51,0,1.48-.12,1.87-.54.36-.39.21-.88-.14-1.22-1.19-1.22-3.3-1.56-4.92-1.57h0Z"/><path class="uuid-05090d55-4abc-4a43-b067-a9ab86217e09" d="M486.09,150.64c-.76-5.33-2.17-10.59-4.18-15.58-3.68-9.15-9.46-17.3-16.27-24.38-.89-.92-1.77-1.87-2.8-2.65-.23-.17-1.26-.92-1.11-.13.06.34.29.7.47.99.29.48.62.94.98,1.36.61.74,1.25,1.43,1.89,2.12.42.46.85.92,1.26,1.39.49.56.94,1.16,1.39,1.76,1.29,1.71,2.53,3.45,3.65,5.28,1.23,2.01,2.37,4.08,3.38,6.21,1.11,2.34,2.11,4.73,2.97,7.18.98,2.78,1.75,5.64,2.36,8.53,1.21,5.74,1.69,11.6,1.52,17.46-.16,5.54-1.18,11.1-2.85,16.38-.86,2.71-1.85,5.39-3.06,7.97-1.18,2.51-2.44,4.99-3.92,7.33-1.53,2.41-3.16,4.74-4.94,6.97-1.74,2.18-3.64,4.2-5.62,6.16-1.97,1.94-4.11,3.7-6.3,5.38-2.15,1.65-4.45,3.17-6.81,4.51-2.47,1.4-4.99,2.68-7.59,3.82-2.63,1.15-5.35,2.09-8.1,2.91-5.28,1.59-10.79,2.49-16.29,2.77-11.31.57-22.77-1.88-32.82-7.11-5.12-2.66-9.86-5.96-14.09-9.89-3.84-3.55-7.16-7.65-9.93-12.08-4.84-7.75-7.94-16.52-9.6-25.48-.37-1.99-.63-4-.89-6.01-.04-.31-.08-.62-.13-.93-.03-.15-.06-.3-.08-.45-.02-.19,0-.37-.08-.54-.08-.17-.89-1.27-1.09-1.04-.05.06,0,.47,0,.56-.02.16-.03.31-.04.46-.07,1.69.11,3.4.27,5.08.2,2.05.53,4.1.97,6.11.98,4.39,2.39,8.63,4.25,12.72,2.05,4.49,4.59,8.73,7.5,12.71,6.63,9.09,15.31,16.66,25.23,21.97,5.13,2.74,10.58,4.77,16.21,6.22,2.91.75,5.9,1.28,8.88,1.64,2.63.32,5.29.51,7.94.52.14,0,.28,0,.41,0,2.8-.05,5.58-.15,8.36-.48,2.84-.34,5.64-.9,8.42-1.59,2.53-.62,5.03-1.45,7.46-2.41,2.57-1.02,5.1-2.15,7.52-3.49,9.75-5.38,18.21-13.07,24.34-22.39,3.05-4.63,5.57-9.64,7.4-14.88,1.84-5.26,3.08-10.71,3.72-16.24.65-5.56.64-11.18-.15-16.73Z"/><path class="uuid-05090d55-4abc-4a43-b067-a9ab86217e09" d="M195.11,86.75c.51,1.93,1.14,4.66.43,6.58-.08.22-.2.45-.42.53-.22.08-.47-.01-.69-.1-1.43-.59-2.77-.24-4.73-.27-2.25-.04-4.51.15-6.76.33-4.7.38-9.36,1.18-13.87,2.58-9.96,3.1-19.25,8.56-26.69,15.87-4.13,4.06-7.72,8.63-10.73,13.59-3.03,5-5.3,10.39-7,15.97-.84,2.76-1.45,5.63-1.88,8.49-.43,2.91-.7,5.86-.7,8.8,0,3.19.22,6.37.75,9.51.52,3.07,1.28,6.09,2.24,9.05,1.83,5.62,4.44,11,7.67,15.95,3.44,5.27,7.61,10.01,12.33,14.18,8.71,7.7,19.51,13.26,30.9,15.66,5.65,1.19,11.38,1.7,17.15,1.48,5.72-.21,11.49-1.12,16.97-2.76,5.14-1.54,10.14-3.63,14.75-6.39,4.34-2.6,8.44-5.57,12.16-9,1.76-1.63,3.44-3.33,5.01-5.14.35-.4.7-.81,1.04-1.22.11-.13.22-.26.32-.39.05-.06.19-.34.27-.34.24,0,.33.73.35.87.08.45.13.92.09,1.37-.02.26-.06.42-.24.61-.11.12-.21.26-.32.39-2.99,3.67-6.31,7.11-9.98,10.11-8.33,6.8-18.28,11.62-28.76,14.01-5.75,1.31-11.63,1.82-17.53,1.62-5.66-.19-11.27-1.17-16.72-2.7-2.64-.75-5.25-1.68-7.77-2.77-2.64-1.14-5.23-2.39-7.72-3.85-5.12-3.01-9.83-6.65-14-10.88-8.4-8.52-14.58-19.32-17.57-30.92-3.13-12.13-3.66-25.02-.86-37.27,1.32-5.76,3.32-11.36,6.03-16.61,2.6-5.03,5.81-9.84,9.6-14.06.08-.09.16-.18.24-.27,1.9-2.12,3.92-4.13,6.06-6.01,3.96-3.47,8.28-6.56,12.89-9.11,4.37-2.41,9-4.29,13.77-5.74,4.57-1.39,9.28-2.47,14.05-2.85,1.61-.13,3.23-.19,4.85-.15,1.17.03,2.05.04,3.39,0,.33-.01.67-.19.96-.04.31.15.44.5.53.83.04.15.09.3.13.45Z"/><path class="uuid-05090d55-4abc-4a43-b067-a9ab86217e09" d="M303.58,174.2c0,6.2-5.23,11.38-11.67,11.57-6.42.19-11.62-4.65-11.62-10.82s5.2-11.35,11.62-11.57c6.44-.22,11.67,4.62,11.67,10.82Z"/><path class="uuid-05090d55-4abc-4a43-b067-a9ab86217e09" d="M267.47,350.49c1.97-.04,3.89,1.65,6.26,1.77,2.54.13,3.62-.89,5.73-1.55,5.31-1.65,7.81,5.87,3.18,7.93-2.9,1.29-5.85-1.75-9.45-1.35-2.76.31-5.37,2.99-8.12.96-3.29-2.43-1.67-7.69,2.4-7.77ZM267.06,352.85c-1.98.37-1.94,3.59.12,3.86,3.23.43,3.12-4.46-.12-3.86ZM280.19,352.84c-1.92.43-1.77,3.69.39,3.88,3.13.28,2.86-4.62-.39-3.88Z"/><path class="uuid-05090d55-4abc-4a43-b067-a9ab86217e09" d="M280.78,350.51c1.97-.04,3.89,1.65,6.26,1.77,2.54.13,3.62-.89,5.73-1.55,5.31-1.65,7.81,5.87,3.18,7.93-2.9,1.29-5.85-1.75-9.45-1.35-2.76.31-5.37,2.99-8.12.96-3.29-2.43-1.67-7.69,2.4-7.77ZM280.37,352.87c-1.98.37-1.94,3.59.12,3.86,3.23.43,3.12-4.46-.12-3.86ZM293.5,352.87c-1.92.43-1.77,3.69.39,3.88,3.13.28,2.86-4.62-.39-3.88Z"/><path class="uuid-05090d55-4abc-4a43-b067-a9ab86217e09" d="M293.96,350.53c1.97-.04,3.89,1.65,6.26,1.77,2.54.13,3.62-.89,5.73-1.55,5.31-1.65,7.81,5.87,3.18,7.93-2.9,1.29-5.85-1.75-9.45-1.35-2.76.31-5.37,2.99-8.12.96-3.29-2.43-1.67-7.69,2.4-7.77ZM293.55,352.88c-1.98.37-1.94,3.59.12,3.86,3.23.43,3.12-4.46-.12-3.86ZM306.68,352.88c-1.92.43-1.77,3.69.39,3.88,3.13.28,2.86-4.62-.39-3.88Z"/><path class="uuid-05090d55-4abc-4a43-b067-a9ab86217e09" d="M307.28,350.55c1.97-.04,3.89,1.65,6.26,1.77,2.54.13,3.62-.89,5.73-1.55,5.31-1.65,7.81,5.87,3.18,7.93-2.9,1.29-5.85-1.75-9.45-1.35-2.76.31-5.37,2.99-8.12.96-3.29-2.43-1.67-7.69,2.4-7.77ZM306.86,352.9c-1.98.37-1.94,3.59.12,3.86,3.23.43,3.12-4.46-.12-3.86ZM319.99,352.9c-1.92.43-1.77,3.69.39,3.88,3.13.28,2.86-4.62-.39-3.88Z"/></svg>