<?xml version="1.0" encoding="UTF-8"?><svg id="uuid-2d113457-e376-42c2-bf2a-4909d6d65e14" xmlns="http://www.w3.org/2000/svg" viewBox="0 0 101.82 110.6"><defs><style>.uuid-77c8e61f-293c-4500-84d0-7ce8e6d8b25d{fill:#8ac397;}</style></defs><path class="uuid-77c8e61f-293c-4500-84d0-7ce8e6d8b25d" d="M91.43,83.43c-.24-.37-.51-.73-.79-1.07-.57-.68-1.2-1.37-1.94-1.87-.14-.1-.42-.31-.61-.29-.14.01-.12.08-.16.18-.05.11-.11.22-.14.34-.02.09-.02.15,0,.25.02.13.03.08-.06.13-.16.1-.29.29-.42.43-.45.51-.91,1.01-1.38,1.5-1,1.06-2.02,2.08-3.08,3.08-2.21,2.08-4.61,3.95-7.23,5.49-5.78,3.4-12.4,5.47-19.1,5.86-3.72.21-7.45-.05-11.11-.76-3.69-.72-7.24-1.96-10.64-3.57-1.68-.79-3.31-1.74-4.85-2.78-1.58-1.05-3.09-2.2-4.5-3.47-1.52-1.38-2.94-2.86-4.21-4.47-1.24-1.57-2.35-3.24-3.34-4.98-1.89-3.3-3.32-6.87-4.28-10.55-1.03-3.92-1.48-7.96-1.43-12.01.1-7.48,2.12-15.03,5.9-21.5,1.87-3.21,4.11-6.16,6.71-8.81,2.58-2.64,5.5-4.99,8.66-6.9,2.96-1.78,6.12-3.26,9.42-4.27,3.11-.95,6.3-1.61,9.55-1.9,1.54-.14,3.08-.2,4.62-.16.34,0,.69.02,1.03.03.11,0,.22,0,.33.02.05,0,.24.06.28.02.1-.11-.21-.47-.26-.54-.18-.23-.38-.46-.61-.64-.13-.1-.23-.15-.4-.15-.11,0-.22,0-.32-.02-3.04-.16-6.12-.07-9.13.38-6.84,1.03-13.44,3.69-19.12,7.65-3.11,2.18-5.9,4.76-8.35,7.65-2.36,2.78-4.32,5.88-5.94,9.13-.79,1.58-1.47,3.23-2.04,4.9-.6,1.75-1.12,3.53-1.5,5.34-.78,3.74-1.08,7.56-.87,11.38.43,7.69,2.9,15.3,7.14,21.74,4.43,6.74,10.34,12.57,17.39,16.53,3.31,1.86,6.85,3.33,10.52,4.31,3.52.94,7.2,1.49,10.85,1.51.08,0,.16,0,.24,0,1.83,0,3.66-.08,5.48-.29,3.37-.39,6.71-1.11,9.91-2.2,3.04-1.04,5.93-2.44,8.69-4.08,2.64-1.58,5.19-3.36,7.43-5.47,1.01-.95,1.95-1.97,2.83-3.04.14-.17.29-.35.42-.53.04-.05.07-.1.09-.15,0-.13.06-.16.17-.1.02,0,.04,0,.06.01.1,0,.23-.07.31-.13.16-.11.26-.18.22-.41-.05-.27-.24-.55-.38-.78Z"/><path class="uuid-77c8e61f-293c-4500-84d0-7ce8e6d8b25d" d="M57.44,15.93c.1.36.16.73.21,1.1.1.74.17,1.53.06,2.27-.02.15-.05.43-.17.55-.09.08-.11.03-.2,0-.1-.03-.2-.06-.3-.1-.07-.03-.11-.07-.16-.14-.07-.09-.03-.06-.12-.04-.16.04-.35.01-.51.01-.57,0-1.15,0-1.72,0-1.22.02-2.45.08-3.67.17-2.55.2-5.08.62-7.53,1.38-5.41,1.67-10.46,4.61-14.51,8.57-2.25,2.2-4.21,4.67-5.84,7.36-1.65,2.71-2.89,5.63-3.82,8.66-.46,1.5-.8,3.05-1.03,4.6-.24,1.58-.39,3.18-.4,4.78,0,1.73.11,3.46.39,5.16.28,1.67.68,3.31,1.2,4.91.99,3.06,2.39,5.98,4.14,8.67,1.86,2.87,4.12,5.45,6.67,7.72,4.72,4.19,10.57,7.23,16.75,8.55,3.06.66,6.18.94,9.31.83,3.11-.11,6.24-.59,9.22-1.47,2.79-.83,5.51-1.96,8.01-3.45,2.36-1.4,4.59-3.01,6.61-4.87.96-.88,1.87-1.8,2.73-2.78.19-.22.38-.44.57-.66.06-.07.12-.14.17-.21.02-.03.1-.18.15-.18.13,0,.18.4.19.47.04.24.07.5.05.75-.01.14-.04.23-.13.33-.06.07-.12.14-.17.21-1.63,1.99-3.44,3.85-5.43,5.47-4.53,3.68-9.94,6.28-15.64,7.56-3.13.7-6.32.97-9.52.85-3.07-.11-6.12-.65-9.07-1.49-1.43-.41-2.85-.92-4.21-1.51-1.43-.62-2.84-1.31-4.18-2.1-2.77-1.64-5.33-3.62-7.58-5.93-4.55-4.64-7.89-10.51-9.49-16.81-1.68-6.59-1.95-13.59-.41-20.23.72-3.12,1.82-6.16,3.3-9.01,1.42-2.73,3.17-5.33,5.23-7.62.04-.05.09-.1.13-.15,1.04-1.15,2.13-2.24,3.3-3.25,2.16-1.88,4.5-3.55,7.01-4.92,2.37-1.3,4.89-2.31,7.48-3.09,2.48-.75,5.04-1.33,7.63-1.52,1.16-.09,2.34-.1,3.5-.03.19.01.38.02.57.04.05,0,.1.01.15.03.08.07.13.05.16-.05,0-.01.02-.03.03-.04.06-.06.17-.1.26-.12.16-.04.26-.06.38.09.14.19.21.46.27.68Z"/></svg>