<?xml version="1.0" encoding="UTF-8"?><svg id="uuid-4be41004-4288-4e19-8588-00bb839de463" xmlns="http://www.w3.org/2000/svg" viewBox="0 0 112.16 97.81"><defs><style>.uuid-d83c0783-721c-4467-946f-b52eac75251d{fill:#58373b;}</style></defs><path class="uuid-d83c0783-721c-4467-946f-b52eac75251d" d="M11.03,60.11c.43.1.87.15,1.31.19.88.08,1.82.11,2.69-.06.17-.03.51-.08.64-.23.09-.11.03-.14,0-.24-.04-.12-.08-.23-.14-.34-.04-.08-.09-.12-.17-.18-.11-.07-.07-.04-.05-.14.04-.19,0-.41-.01-.6-.04-.68-.07-1.36-.09-2.04-.05-1.45-.05-2.9-.01-4.35.08-3.04.44-6.05,1.2-9,1.66-6.5,4.85-12.65,9.31-17.68,2.47-2.79,5.29-5.25,8.37-7.35,3.11-2.11,6.5-3.75,10.03-5.03,1.75-.63,3.57-1.12,5.39-1.49,1.86-.37,3.74-.65,5.63-.75,2.05-.11,4.1-.07,6.14.16,1.99.23,3.96.62,5.89,1.14,3.67.99,7.22,2.49,10.51,4.4,3.5,2.03,6.69,4.56,9.52,7.45,5.24,5.34,9.17,12.09,11.1,19.33.95,3.59,1.47,7.26,1.53,10.97.05,3.69-.33,7.42-1.21,11-.82,3.35-2,6.64-3.61,9.69-1.52,2.88-3.3,5.61-5.38,8.11-.99,1.19-2.03,2.32-3.14,3.39-.25.24-.5.48-.75.71-.08.07-.16.15-.24.22-.03.03-.21.13-.21.18,0,.15.48.19.57.2.29.04.6.05.89.01.17-.02.27-.06.39-.17.08-.08.16-.15.24-.22,2.26-2.04,4.36-4.29,6.16-6.75,4.09-5.58,6.86-12.13,8.05-18.95.65-3.74.78-7.54.46-11.32-.31-3.63-1.13-7.2-2.29-10.65-.57-1.67-1.26-3.32-2.04-4.9-.82-1.66-1.71-3.28-2.73-4.83-2.11-3.19-4.6-6.1-7.46-8.64-5.76-5.11-12.9-8.73-20.46-10.26-7.9-1.6-16.2-1.52-23.98.69-3.66,1.04-7.19,2.51-10.47,4.43-3.15,1.84-6.13,4.06-8.71,6.64-.06.06-.11.11-.17.17-1.3,1.29-2.52,2.66-3.66,4.09-2.1,2.66-3.94,5.54-5.42,8.59-1.4,2.89-2.45,5.93-3.23,9.04-.74,2.98-1.28,6.05-1.36,9.13-.04,1.38.02,2.77.16,4.15.02.22.04.45.08.67.01.06.02.12.04.17.09.09.07.16-.05.19-.02.01-.03.02-.05.03-.07.08-.11.21-.13.31-.03.19-.06.32.13.44.23.15.56.22.82.28Z"/><path class="uuid-d83c0783-721c-4467-946f-b52eac75251d" d="M82.88,83.57c-.33-.18-.63-.4-.93-.62-.6-.45-1.2-.96-1.66-1.56-.09-.12-.28-.34-.27-.51,0-.12.06-.1.14-.15.09-.05.18-.1.28-.14.07-.02.13-.02.21-.01.11.01.07.02.11-.06.08-.14.24-.26.35-.37.41-.4.81-.81,1.21-1.23.85-.88,1.67-1.79,2.46-2.72,1.66-1.95,3.14-4.05,4.33-6.32,2.63-5.01,4.1-10.67,4.15-16.34.03-3.15-.35-6.28-1.1-9.33-.76-3.08-1.95-6.02-3.45-8.81-.74-1.38-1.6-2.72-2.54-3.98-.95-1.28-1.98-2.52-3.11-3.65-1.22-1.22-2.53-2.36-3.94-3.36-1.38-.98-2.83-1.85-4.33-2.61-2.86-1.45-5.93-2.51-9.07-3.17-3.34-.7-6.77-.92-10.17-.71-6.3.39-12.58,2.41-17.87,5.86-2.62,1.71-5.02,3.72-7.15,6.02-2.11,2.28-3.98,4.84-5.45,7.58-1.38,2.56-2.5,5.29-3.2,8.11-.67,2.66-1.1,5.38-1.21,8.12-.05,1.3-.04,2.6.05,3.9.02.29.04.58.07.87,0,.09.02.18.03.27,0,.04.06.2.03.23-.09.09-.41-.15-.47-.2-.2-.14-.4-.3-.56-.49-.09-.11-.14-.19-.14-.33,0-.09-.02-.18-.03-.27-.26-2.56-.31-5.15-.05-7.71.58-5.81,2.55-11.48,5.65-16.42,1.7-2.71,3.77-5.16,6.1-7.35,2.24-2.1,4.77-3.88,7.45-5.38,1.3-.73,2.66-1.37,4.04-1.92,1.45-.58,2.93-1.09,4.44-1.48,3.12-.81,6.32-1.23,9.55-1.2,6.5.05,13.01,1.81,18.62,5.11,5.86,3.45,11.01,8.19,14.64,13.97,1.71,2.72,3.09,5.63,4.07,8.69.94,2.93,1.55,6,1.72,9.08,0,.07,0,.13.01.2.08,1.54.08,3.09-.02,4.63-.19,2.85-.66,5.7-1.45,8.44-.75,2.6-1.81,5.1-3.08,7.49-1.22,2.29-2.61,4.51-4.3,6.49-.76.89-1.58,1.73-2.44,2.51-.14.13-.28.26-.43.37-.04.03-.08.06-.12.09-.11.01-.13.06-.08.14,0,.02,0,.03.01.05,0,.08-.05.2-.1.27-.09.14-.14.23-.33.2-.23-.03-.47-.18-.67-.29Z"/></svg>