<?xml version="1.0" encoding="UTF-8"?><svg id="uuid-f953ecfb-dd75-4113-87ae-17fe599954e8" xmlns="http://www.w3.org/2000/svg" viewBox="0 0 57.97 113.63"><defs><style>.uuid-0b4c8039-0a1d-459b-bc4f-32b0fca7eaec{fill:#58373b;}</style></defs><path class="uuid-0b4c8039-0a1d-459b-bc4f-32b0fca7eaec" d="M47.97,97.86c-.25-21.42-.5-42.83-.75-64.25-.02-1.34-.57-2.8-1.99-1.9s-1.68,4.04-1.66,5.49c.25,21.42.5,42.83.75,64.25.02,1.34.57,2.8,1.99,1.9s1.68-4.04,1.66-5.49h0Z"/><path class="uuid-0b4c8039-0a1d-459b-bc4f-32b0fca7eaec" d="M30.77,68.63c-.22-18.82-.44-37.63-.66-56.45-.02-1.34-.57-2.8-1.99-1.9s-1.68,4.04-1.66,5.49c.22,18.82.44,37.63.66,56.45.02,1.34.57,2.8,1.99,1.9s1.68-4.04,1.66-5.49h0Z"/><path class="uuid-0b4c8039-0a1d-459b-bc4f-32b0fca7eaec" d="M14.12,90.51c-.19-16.62-.39-33.24-.58-49.85-.02-1.47-.53-2.5-1.93-1.84s-1.63,4.09-1.61,5.32c.19,16.62.39,33.24.58,49.85.02,1.47.53,2.5,1.93,1.84s1.63-4.09,1.61-5.32h0Z"/></svg>