<?xml version="1.0" encoding="UTF-8"?><svg id="uuid-1ba949c6-9171-4fea-88b0-a21dfabcf320" xmlns="http://www.w3.org/2000/svg" viewBox="0 0 112.16 97.48"><defs><style>.uuid-0838d9b9-2083-42e2-a82d-46b70093514b{fill:#eeefd5;}</style></defs><path class="uuid-0838d9b9-2083-42e2-a82d-46b70093514b" d="M101.07,36.88c-.43-.09-.88-.14-1.32-.18-.88-.07-1.82-.09-2.69.09-.17.04-.51.08-.63.24-.09.11-.03.14.01.24.04.12.08.23.15.34.05.08.09.12.18.17.11.07.07.03.05.14-.04.19,0,.41.02.6.05.68.09,1.36.12,2.04.06,1.45.08,2.9.06,4.35-.05,3.04-.38,6.06-1.1,9.01-1.59,6.52-4.72,12.71-9.11,17.78-2.44,2.82-5.23,5.31-8.29,7.44-3.09,2.15-6.46,3.82-9.97,5.14-1.74.65-3.56,1.16-5.37,1.55-1.85.39-3.73.69-5.63.81-2.05.13-4.1.12-6.14-.1-1.99-.21-3.96-.57-5.9-1.07-3.69-.95-7.24-2.41-10.55-4.28-3.53-2-6.74-4.48-9.6-7.34-5.3-5.29-9.3-11.99-11.31-19.21-.99-3.58-1.55-7.24-1.64-10.95-.09-3.68.25-7.42,1.09-11.01.78-3.36,1.92-6.66,3.51-9.73,1.49-2.89,3.24-5.64,5.29-8.17.97-1.2,2-2.34,3.1-3.43.24-.24.49-.48.74-.72.08-.08.16-.15.24-.22.03-.03.21-.13.21-.19,0-.15-.48-.18-.57-.19-.29-.03-.6-.04-.89,0-.17.02-.27.06-.39.18-.07.08-.16.15-.24.22-2.24,2.07-4.31,4.34-6.09,6.82-4.03,5.62-6.73,12.21-7.84,19.04-.61,3.75-.7,7.54-.33,11.32.35,3.63,1.2,7.19,2.41,10.63.59,1.67,1.29,3.3,2.09,4.88.84,1.65,1.75,3.26,2.79,4.8,2.14,3.17,4.67,6.05,7.55,8.55,5.81,5.05,13,8.58,20.57,10.04,7.92,1.52,16.22,1.34,23.97-.95,3.65-1.08,7.16-2.59,10.42-4.54,3.13-1.87,6.08-4.13,8.64-6.73.05-.06.11-.11.16-.17,1.28-1.31,2.49-2.68,3.61-4.13,2.07-2.68,3.88-5.58,5.33-8.65,1.37-2.9,2.39-5.95,3.13-9.07.71-2.99,1.21-6.06,1.26-9.14.02-1.38-.05-2.77-.21-4.15-.03-.22-.05-.45-.09-.67-.01-.06-.02-.12-.04-.17-.09-.09-.07-.16.05-.19.02-.01.03-.02.05-.03.07-.08.11-.21.12-.31.03-.19.05-.32-.14-.44-.23-.15-.56-.21-.82-.27Z"/><path class="uuid-0838d9b9-2083-42e2-a82d-46b70093514b" d="M28.97,14.2c.33.18.64.39.94.61.6.44,1.21.94,1.67,1.54.09.12.28.34.27.5,0,.12-.06.1-.14.15-.09.05-.18.1-.28.14-.07.03-.13.02-.21.01-.11-.01-.07-.02-.11.06-.08.14-.23.26-.34.37-.41.41-.8.82-1.2,1.24-.84.89-1.65,1.81-2.43,2.75-1.64,1.97-3.09,4.08-4.26,6.36-2.57,5.04-3.98,10.72-3.97,16.38,0,3.15.42,6.27,1.2,9.32.79,3.07,2.02,6,3.54,8.78.75,1.38,1.63,2.7,2.58,3.95.97,1.27,2.01,2.49,3.15,3.61,1.24,1.21,2.55,2.33,3.98,3.32,1.39.96,2.85,1.82,4.36,2.56,2.88,1.42,5.96,2.45,9.1,3.07,3.35.67,6.78.85,10.18.6,6.29-.46,12.55-2.54,17.8-6.05,2.61-1.74,4.98-3.77,7.08-6.1,2.09-2.3,3.93-4.88,5.37-7.64,1.35-2.58,2.44-5.31,3.12-8.15.64-2.67,1.04-5.39,1.12-8.14.04-1.3,0-2.6-.09-3.9-.02-.29-.05-.58-.08-.87,0-.09-.02-.18-.03-.27,0-.04-.06-.2-.03-.23.09-.09.41.15.47.19.2.14.41.3.57.49.09.11.14.19.15.33,0,.09.02.18.03.27.29,2.55.37,5.15.14,7.71-.52,5.81-2.42,11.51-5.47,16.48-1.67,2.73-3.71,5.2-6.02,7.42-2.22,2.13-4.73,3.93-7.39,5.46-1.29.74-2.65,1.4-4.02,1.97-1.44.59-2.92,1.12-4.42,1.53-3.11.84-6.31,1.29-9.54,1.31-6.5.03-13.03-1.67-18.67-4.91-5.9-3.39-11.1-8.07-14.8-13.81-1.74-2.7-3.15-5.6-4.16-8.64-.97-2.92-1.62-5.99-1.82-9.06,0-.07,0-.13-.01-.2-.1-1.54-.12-3.09-.03-4.63.15-2.86.59-5.7,1.36-8.46.72-2.61,1.75-5.12,3-7.52,1.19-2.3,2.56-4.54,4.23-6.54.75-.9,1.56-1.74,2.42-2.54.14-.13.28-.26.43-.38.04-.03.08-.06.12-.09.11-.01.13-.06.07-.14,0-.02,0-.03-.01-.05,0-.08.05-.2.09-.27.09-.14.14-.23.33-.21.23.03.47.17.67.28Z"/></svg>