<?xml version="1.0" encoding="UTF-8"?><svg id="uuid-739f78ec-e5d4-4271-8c06-3c9f74534358" xmlns="http://www.w3.org/2000/svg" viewBox="0 0 56.6 31.05"><defs><style>.uuid-5a90ab70-a123-4be8-acc4-b9f160fa872a{fill:#3c6142;}</style></defs><path class="uuid-5a90ab70-a123-4be8-acc4-b9f160fa872a" d="M13.86,7.52c4.22-.08,8.31,3.52,13.37,3.78,5.42.28,7.74-1.91,12.23-3.31,11.35-3.53,16.69,12.55,6.8,16.95-6.2,2.76-12.49-3.74-20.18-2.87-5.9.66-11.46,6.39-17.34,2.06C1.7,18.93,5.17,7.69,13.86,7.52ZM12.98,12.55c-4.23.78-4.14,7.66.26,8.26,6.89.93,6.66-9.54-.26-8.26ZM41.03,12.54c-4.1.93-3.78,7.89.84,8.29,6.69.59,6.11-9.87-.84-8.29Z"/></svg>