<?xml version="1.0" encoding="UTF-8"?><svg id="uuid-94f56b2f-00ec-4dde-9146-84d50091670e" xmlns="http://www.w3.org/2000/svg" viewBox="0 0 56.03 33.69"><defs><style>.uuid-aa615e82-86fa-4a33-b9fb-5a0ff324f708{fill:#eeefd5;}</style></defs><path class="uuid-aa615e82-86fa-4a33-b9fb-5a0ff324f708" d="M13.81,10.16c4.22-.08,8.31,3.52,13.37,3.78,5.42.28,7.74-1.91,12.23-3.31,11.35-3.53,16.69,12.55,6.8,16.95-6.2,2.76-12.49-3.74-20.18-2.87-5.9.66-11.46,6.39-17.34,2.06-7.03-5.19-3.57-16.43,5.12-16.6ZM12.94,15.19c-4.23.78-4.14,7.66.26,8.26,6.89.93,6.66-9.54-.26-8.26ZM40.98,15.18c-4.1.93-3.78,7.89.84,8.29,6.69.59,6.11-9.87-.84-8.29Z"/></svg>