<?xml version="1.0" encoding="UTF-8"?><svg id="uuid-1d94c263-d9b7-4983-b59d-6da6559e4dfc" xmlns="http://www.w3.org/2000/svg" viewBox="0 0 151.52 38.37"><defs><style>.uuid-6107c842-272c-43dc-9f9c-e8ea075d2c8c{fill:#8ac397;}</style></defs><path class="uuid-6107c842-272c-43dc-9f9c-e8ea075d2c8c" d="M18.89,10.04c4.22-.08,8.31,3.52,13.37,3.78,5.42.28,7.74-1.91,12.23-3.31,11.35-3.53,16.69,12.55,6.8,16.95-6.2,2.76-12.49-3.74-20.18-2.87-5.9.66-11.46,6.39-17.34,2.06-7.03-5.19-3.57-16.43,5.12-16.6ZM18.01,15.07c-4.23.78-4.14,7.66.26,8.26,6.89.93,6.66-9.54-.26-8.26ZM46.06,15.06c-4.1.93-3.78,7.89.84,8.29,6.69.59,6.11-9.87-.84-8.29Z"/><path class="uuid-6107c842-272c-43dc-9f9c-e8ea075d2c8c" d="M47.33,10.09c4.22-.08,8.31,3.52,13.37,3.78,5.42.28,7.74-1.91,12.23-3.31,11.35-3.53,16.69,12.55,6.8,16.95-6.2,2.76-12.49-3.74-20.18-2.87-5.9.66-11.46,6.39-17.34,2.06-7.03-5.19-3.57-16.43,5.12-16.6ZM46.45,15.12c-4.23.78-4.14,7.66.26,8.26,6.89.93,6.66-9.54-.26-8.26ZM74.5,15.11c-4.1.93-3.78,7.89.84,8.29,6.69.59,6.11-9.87-.84-8.29Z"/><path class="uuid-6107c842-272c-43dc-9f9c-e8ea075d2c8c" d="M75.49,10.11c4.22-.08,8.31,3.52,13.37,3.78,5.42.28,7.74-1.91,12.23-3.31,11.35-3.53,16.69,12.55,6.8,16.95-6.2,2.76-12.49-3.74-20.18-2.87-5.9.66-11.46,6.39-17.34,2.06-7.03-5.19-3.57-16.43,5.12-16.6ZM74.61,15.14c-4.23.78-4.14,7.66.26,8.26,6.89.93,6.66-9.54-.26-8.26ZM102.66,15.14c-4.1.93-3.78,7.89.84,8.29,6.69.59,6.11-9.87-.84-8.29Z"/><path class="uuid-6107c842-272c-43dc-9f9c-e8ea075d2c8c" d="M103.93,10.16c4.22-.08,8.31,3.52,13.37,3.78,5.42.28,7.74-1.91,12.23-3.31,11.35-3.53,16.69,12.55,6.8,16.95-6.2,2.76-12.49-3.74-20.18-2.87-5.9.66-11.46,6.39-17.34,2.06-7.03-5.19-3.57-16.43,5.12-16.6ZM103.05,15.19c-4.23.78-4.14,7.66.26,8.26,6.89.93,6.66-9.54-.26-8.26ZM131.1,15.19c-4.1.93-3.78,7.89.84,8.29,6.69.59,6.11-9.87-.84-8.29Z"/></svg>