<?xml version="1.0" encoding="UTF-8"?><svg id="uuid-be7d8e96-31b0-41ff-90ef-f8e40628c5af" xmlns="http://www.w3.org/2000/svg" viewBox="0 0 56.48 31.05"><defs><style>.uuid-7b841a6c-3d3e-4647-88af-b0881b9addf9{fill:#58373b;}</style></defs><path class="uuid-7b841a6c-3d3e-4647-88af-b0881b9addf9" d="M13.16,7.62c4.22-.08,8.31,3.52,13.37,3.78,5.42.28,7.74-1.91,12.23-3.31,11.35-3.53,16.69,12.55,6.8,16.95-6.2,2.76-12.49-3.74-20.18-2.87-5.9.66-11.46,6.39-17.34,2.06C1,19.03,4.46,7.79,13.16,7.62ZM12.28,12.65c-4.23.78-4.14,7.66.26,8.26,6.89.93,6.66-9.54-.26-8.26ZM40.33,12.64c-4.1.93-3.78,7.89.84,8.29,6.69.59,6.11-9.87-.84-8.29Z"/></svg>