<?xml version="1.0" encoding="UTF-8"?><svg id="uuid-e980cbd5-b30f-467d-90d1-12ad6a5891e0" xmlns="http://www.w3.org/2000/svg" viewBox="0 0 110.04 106.21"><defs><style>.uuid-a64c0750-7040-42a9-9091-30b3fe01db78{fill:#3c6142;}</style></defs><path class="uuid-a64c0750-7040-42a9-9091-30b3fe01db78" d="M76.86,10.53c-.33.29-.64.62-.92.95-.58.67-1.16,1.41-1.53,2.22-.07.16-.24.46-.18.65.04.13.09.1.2.13.12.04.24.07.36.09.09.01.15,0,.25-.04.12-.04.07-.04.14.04.13.14.34.24.5.34.58.36,1.14.74,1.71,1.12,1.2.81,2.38,1.66,3.53,2.54,2.41,1.85,4.65,3.91,6.59,6.24,4.3,5.16,7.41,11.35,8.88,17.9.81,3.64,1.16,7.36,1.05,11.09-.11,3.76-.76,7.46-1.8,11.07-.51,1.79-1.18,3.55-1.95,5.24-.78,1.73-1.67,3.41-2.7,5-1.11,1.72-2.34,3.37-3.73,4.88-1.35,1.48-2.82,2.84-4.37,4.11-2.95,2.4-6.25,4.39-9.72,5.94-3.7,1.65-7.61,2.75-11.62,3.35-7.4,1.11-15.17.35-22.17-2.34-3.47-1.33-6.74-3.06-9.78-5.19-3.02-2.12-5.82-4.62-8.21-7.42-2.24-2.63-4.21-5.51-5.74-8.61-1.44-2.92-2.61-5.96-3.42-9.11-.38-1.49-.69-3-.91-4.53-.05-.34-.09-.68-.14-1.02-.01-.11-.03-.22-.04-.32,0-.05.02-.25-.03-.28-.13-.08-.43.28-.49.35-.2.22-.39.45-.53.71-.08.15-.11.25-.08.42.02.11.03.21.04.32.33,3.03.92,6.05,1.86,8.95,2.12,6.59,5.82,12.67,10.64,17.62,2.65,2.72,5.65,5.05,8.9,7,3.12,1.88,6.5,3.31,9.98,4.38,1.69.52,3.42.92,5.17,1.22,1.83.31,3.66.53,5.52.61,3.82.16,7.64-.16,11.37-.99,7.52-1.67,14.63-5.34,20.3-10.57,5.93-5.46,10.72-12.24,13.49-19.84,1.3-3.57,2.18-7.3,2.55-11.08.36-3.63.3-7.35-.27-10.95-.01-.08-.02-.15-.04-.23-.29-1.81-.67-3.6-1.17-5.36-.93-3.26-2.18-6.44-3.78-9.43-1.52-2.83-3.37-5.46-5.43-7.91-1.98-2.35-4.15-4.58-6.6-6.45-1.1-.84-2.26-1.61-3.46-2.3-.19-.11-.39-.23-.59-.33-.06-.03-.11-.05-.17-.07-.13.02-.17-.03-.12-.15,0-.02,0-.04,0-.06-.02-.1-.11-.21-.18-.29-.14-.14-.22-.23-.44-.15-.26.1-.5.32-.71.5Z"/><path class="uuid-a64c0750-7040-42a9-9091-30b3fe01db78" d="M15.75,55.01c.34-.16.69-.28,1.05-.39.71-.22,1.48-.41,2.23-.43.15,0,.44-.03.57.08.09.07.05.11.03.2-.01.11-.02.21-.06.31-.02.07-.06.12-.11.18-.08.08-.05.04-.02.12.07.15.07.34.1.5.09.57.18,1.13.28,1.7.22,1.2.47,2.4.76,3.59.61,2.49,1.44,4.91,2.58,7.21,2.52,5.07,6.25,9.57,10.81,12.93,2.53,1.86,5.29,3.39,8.21,4.57,2.94,1.19,6.02,1.94,9.16,2.37,1.55.21,3.14.29,4.71.27,1.6-.02,3.2-.13,4.78-.38,1.71-.27,3.39-.67,5.03-1.22,1.6-.54,3.15-1.21,4.66-1.98,2.86-1.47,5.51-3.33,7.89-5.49,2.53-2.3,4.71-4.94,6.53-7.83,3.37-5.34,5.42-11.6,5.72-17.91.15-3.13-.07-6.25-.69-9.32-.61-3.05-1.59-6.06-2.95-8.86-1.27-2.62-2.82-5.12-4.7-7.35-1.77-2.1-3.71-4.04-5.88-5.74-1.02-.8-2.08-1.55-3.19-2.24-.25-.15-.49-.3-.74-.45-.08-.05-.16-.09-.24-.14-.03-.02-.2-.07-.21-.12-.02-.13.36-.24.44-.26.23-.08.48-.15.73-.17.14-.01.23,0,.35.08.08.05.16.09.23.14,2.23,1.28,4.36,2.77,6.28,4.47,4.36,3.88,7.81,8.79,10,14.2,1.2,2.97,1.98,6.08,2.38,9.25.39,3.05.35,6.14,0,9.19-.17,1.48-.45,2.96-.81,4.4-.38,1.51-.83,3.01-1.4,4.47-1.17,3-2.71,5.84-4.62,8.44-3.84,5.24-9.09,9.48-15.05,12.09-6.23,2.72-13.09,4.13-19.9,3.68-3.2-.21-6.37-.8-9.42-1.79-2.92-.96-5.77-2.26-8.36-3.93-.06-.04-.11-.07-.17-.11-1.3-.84-2.55-1.74-3.74-2.73-2.2-1.82-4.23-3.87-6-6.12-1.67-2.13-3.07-4.45-4.26-6.88-1.14-2.33-2.13-4.76-2.74-7.28-.28-1.13-.48-2.29-.6-3.45-.02-.19-.04-.38-.05-.57,0-.05,0-.1,0-.15.05-.09.03-.14-.07-.15-.01,0-.03-.01-.04-.02-.07-.05-.13-.16-.16-.23-.06-.15-.1-.25.03-.39.16-.17.42-.28.63-.37Z"/></svg>