<?xml version="1.0" encoding="UTF-8"?><svg id="uuid-81521a16-4a9a-4d3f-9482-923b63de08d4" xmlns="http://www.w3.org/2000/svg" viewBox="0 0 113.85 60.51"><defs><style>.uuid-954b0112-ac5e-4370-a814-6ada49d9422e{fill:#eeefd5;}</style></defs><path class="uuid-954b0112-ac5e-4370-a814-6ada49d9422e" d="M98.12,30.02c-21.42-.05-42.84-.1-64.26-.15-1.34,0-2.81.53-1.93,1.96s4.01,1.74,5.46,1.74c21.42.05,42.84.1,64.26.15,1.34,0,2.81-.53,1.93-1.96s-4.01-1.74-5.46-1.74h0Z"/><path class="uuid-954b0112-ac5e-4370-a814-6ada49d9422e" d="M68.65,46.81c-18.82-.04-37.63-.09-56.45-.13-1.34,0-2.81.53-1.93,1.96s4.01,1.74,5.46,1.74c18.82.04,37.63.09,56.45.13,1.34,0,2.81-.53,1.93-1.96s-4.01-1.74-5.46-1.74h0Z"/><path class="uuid-954b0112-ac5e-4370-a814-6ada49d9422e" d="M93.99,10.02c-3.61,0-7.22-.02-10.82-.02-1.22,0-2.95.56-1.93,1.96s3.89,1.74,5.46,1.74c3.61,0,7.22.02,10.82.02,1.22,0,2.95-.56,1.93-1.96s-3.89-1.74-5.46-1.74h0Z"/></svg>