<?xml version="1.0" encoding="UTF-8"?><svg id="uuid-1699ef89-4ed7-4b5f-ba6b-b9221f624e73" xmlns="http://www.w3.org/2000/svg" viewBox="0 0 58.13 28.37"><defs><style>.uuid-2dd78d0c-ea78-4f3d-9d5c-46e934ace1ad{fill:#8ac397;}</style></defs><path class="uuid-2dd78d0c-ea78-4f3d-9d5c-46e934ace1ad" d="M13.45,6c4.22-.08,8.31,3.52,13.37,3.78,5.42.28,7.74-1.91,12.23-3.31,11.35-3.53,16.69,12.55,6.8,16.95-6.2,2.76-12.49-3.74-20.18-2.87-5.9.66-11.46,6.39-17.34,2.06C1.29,17.41,4.75,6.17,13.45,6ZM12.57,11.03c-4.23.78-4.14,7.66.26,8.26,6.89.93,6.66-9.54-.26-8.26ZM40.62,11.02c-4.1.93-3.78,7.89.84,8.29,6.69.59,6.11-9.87-.84-8.29Z"/></svg>